<?xml version="1.0" encoding="utf-8"?>
<!-- Generator: Adobe Illustrator 27.8.1, SVG Export Plug-In . SVG Version: 6.00 Build 0)  -->
<svg version="1.1" id="Layer_1" xmlns="http://www.w3.org/2000/svg" xmlns:xlink="http://www.w3.org/1999/xlink" x="0px" y="0px"
	 viewBox="0 0 24 24" style="enable-background:new 0 0 24 24;" xml:space="preserve">
<style type="text/css">
	.st0{fill:#FFFFFF;}
</style>
<g id="_xD83D__xDD0D_-System-Icons">
	<g id="ic_fluent_battery_warning_24_regular">
		<path id="_xD83C__xDFA8_-Color" class="st0" d="M8,9c0.3,0.2,0.5,0.4,0.6,0.8l4.4,9.5c0.4,1,0.2,2.2-0.6,2.8
			c-0.2,0.2-0.5,0.3-0.8,0.3H2.8c-0.9,0-1.6-0.9-1.6-2c0-0.4,0.1-0.7,0.2-1l4.4-9.5C6.2,8.7,7.2,8.4,8,9z M7.2,18.2
			c-0.3,0-0.5,0.3-0.5,0.7s0.2,0.7,0.5,0.7c0.3,0,0.5-0.3,0.5-0.7S7.5,18.2,7.2,18.2z M17.5,1.9c1.8,0,3.3,1.8,3.3,4.1v1.4h1.1
			c0.2,0,0.4,0.1,0.5,0.2C22.8,7.8,23,8.2,23,8.7v2.7c0,0.5-0.2,0.9-0.5,1.2c-0.2,0.1-0.3,0.2-0.5,0.2h-1.1v1.4
			c0,2.2-1.5,4.1-3.3,4.1h-3.8l-0.9-2h4.7c0.9,0,1.5-0.8,1.6-1.8l0-0.2V6c0-1.1-0.6-1.9-1.5-2l-0.2,0H4.4c-0.9,0-1.5,0.8-1.6,1.8
			l0,0.2l0,7.4l-1.2,2.7c-0.3-0.6-0.4-1.2-0.4-1.9V6c0-2.2,1.5-4.1,3.3-4.1H17.5z M7.2,11.4c-0.3,0-0.5,0.2-0.5,0.6l0,0.1v4.1l0,0.1
			c0,0.3,0.3,0.6,0.5,0.6c0.3,0,0.5-0.2,0.5-0.6l0-0.1v-4.1l0-0.1C7.7,11.6,7.4,11.4,7.2,11.4z"/>
	</g>
</g>
</svg>
