<?xml version="1.0" encoding="utf-8"?>
<!-- Generator: Adobe Illustrator 27.3.1, SVG Export Plug-In . SVG Version: 6.00 Build 0)  -->
<svg version="1.1" id="Layer_1" xmlns="http://www.w3.org/2000/svg" xmlns:xlink="http://www.w3.org/1999/xlink" x="0px" y="0px"
	 viewBox="0 0 601 600" style="enable-background:new 0 0 601 600;" xml:space="preserve">
<style type="text/css">
	.st0{opacity:7.000000e-02;fill:url(#SVGID_1_);enable-background:new    ;}
	.st1{opacity:0.4;fill:url(#SVGID_00000158719623195984274380000016536839778002995345_);enable-background:new    ;}
	.st2{opacity:0.2;fill:#FFFFFF;enable-background:new    ;}
	.st3{fill:url(#SVGID_00000142136000670005667960000012646381913702769577_);}
	.st4{fill:url(#SVGID_00000031180961930305276120000006141886336547581109_);}
	.st5{opacity:7.000000e-02;fill:url(#SVGID_00000134960077027081383550000005651908634597679006_);enable-background:new    ;}
	.st6{opacity:0.3;fill:url(#SVGID_00000023975641284128674870000007196117603158196625_);enable-background:new    ;}
	.st7{fill:url(#SVGID_00000052822540410326479800000004398355652712453512_);}
	.st8{opacity:0.15;fill:#FFFFFF;enable-background:new    ;}
	.st9{opacity:7.000000e-02;fill:url(#SVGID_00000141441552681503573050000017389284963484892813_);enable-background:new    ;}
	.st10{opacity:0.3;fill:url(#SVGID_00000148641717959633613350000011865687572786388653_);enable-background:new    ;}
	.st11{fill:url(#SVGID_00000120554095103566855320000016670288423787464103_);}
	.st12{display:none;opacity:0.3;fill:url(#SVGID_00000102539271319305410910000005314193304247089070_);enable-background:new    ;}
	.st13{fill:url(#SVGID_00000114038060714853355960000018327123621323311005_);}
	.st14{fill:url(#SVGID_00000103254175112432670570000003451371936356711054_);}
	.st15{fill:url(#SVGID_00000090261188526463689300000000293734378757527978_);}
	.st16{opacity:0.2;fill:url(#SVGID_00000104691025741361689050000008119177066572046757_);enable-background:new    ;}
	.st17{opacity:0.2;fill:url(#SVGID_00000077309330835521491750000002170485016092840326_);enable-background:new    ;}
</style>
<linearGradient id="SVGID_1_" gradientUnits="userSpaceOnUse" x1="588.166" y1="487.248" x2="364.141" y2="274.914" gradientTransform="matrix(1 0 0 -1 0 602)">
	<stop  offset="0" style="stop-color:#FFFFFF"/>
	<stop  offset="1" style="stop-color:#FFFFFF;stop-opacity:0"/>
</linearGradient>
<path class="st0" d="M546.2,252.9c0,3.3-0.1,6.5-0.3,9.6c31.1,23.7,55.1,74.4,55.1,119.1c0,48.7-28.4,71.6-63.5,51.3
	c-0.1-0.1-0.1-0.1-0.2-0.1L316.8,305.5c-0.1-0.1-0.1-0.1-0.3-0.1c-39.4-22.8-71.4-85.6-71.4-140.2c0-51.2,28.1-77.2,64-61.5
	c4.4-35.1,27.9-50.2,56.3-33.8c13.6,7.9,26.1,21.7,35.9,38.4c14.2-21.1,38.3-26.4,65.7-10.6C510.8,122.8,546.2,192.4,546.2,252.9z"
	/>
<linearGradient id="SVGID_00000182498487968338594170000013527366517961407105_" gradientUnits="userSpaceOnUse" x1="551.9873" y1="452.4906" x2="327.9633" y2="240.1565" gradientTransform="matrix(1 0 0 -1 0 602)">
	<stop  offset="0" style="stop-color:#FFFFFF"/>
	<stop  offset="1" style="stop-color:#FFFFFF;stop-opacity:0"/>
</linearGradient>
<path style="opacity:0.4;fill:url(#SVGID_00000182498487968338594170000013527366517961407105_);enable-background:new    ;" d="
	M510.1,287.7c0,3.3-0.1,6.5-0.3,9.6c31.1,23.7,55.1,74.4,55.1,119.1c0,48.7-28.4,71.6-63.5,51.3c-0.1-0.1-0.1-0.1-0.2-0.1
	L280.6,340.3c-0.1-0.1-0.1-0.1-0.3-0.1c-39.4-22.8-71.4-85.6-71.4-140.2c0-51.2,28.1-77.2,64-61.5c4.4-35.1,27.9-50.2,56.3-33.8
	c13.6,7.9,26.1,21.7,35.9,38.4c14.2-21.1,38.3-26.4,65.7-10.6C474.6,157.5,510.1,227.1,510.1,287.7z"/>
<path class="st2" d="M161,349.6l-33.6-19.4v-11.4l33.6,19.4c2.8,1.6,6.7,4.8,10.1,9.7c3.7,5.3,6.3,11.9,6.3,19.2
	c0,8-2,12.5-5.9,13.8c-3.6,1.2-7.9-0.9-10.6-2.4l-13.8-8l-0.1-0.1c-1.2-0.7-3-1.4-4.6-0.9c-1.2,0.4-2.6,1.6-2.6,6
	c0,4.4,1.4,7.2,2.5,8.8c1.4,2,3.3,3.5,4.5,4.1l0.1,0.1l42.2,24.4v11.4l-42-24.3c-2.9-1.5-7-4.7-10.6-9.8c-3.9-5.5-6.7-12.5-6.6-20.3
	c0-7.7,2.7-11.7,6.6-12.8c3.6-1,7.7,0.4,10.6,2.2l13.7,7.9c2,1.2,3.5,1.7,4.4,1.3c0.7-0.2,2.2-1.3,2.2-7.1c0-3.7-1.2-6.2-2.3-7.8
	C163.9,351.7,162.1,350.3,161,349.6z"/>
<linearGradient id="SVGID_00000111179965903228496370000002236833529580358528_" gradientUnits="userSpaceOnUse" x1="110.26" y1="281.655" x2="134.714" y2="281.655" gradientTransform="matrix(1 0 0 -1 0 602)">
	<stop  offset="0" style="stop-color:#3182CE"/>
	<stop  offset="1" style="stop-color:#63B3ED"/>
</linearGradient>
<path style="fill:url(#SVGID_00000111179965903228496370000002236833529580358528_);" d="M134.7,327.4c0,9.3-5.5,13.8-12.2,9.9
	c-6.7-3.9-12.2-14.6-12.2-24c0-9.3,5.5-13.8,12.2-9.9C129.2,307.3,134.7,318.1,134.7,327.4z"/>
<linearGradient id="SVGID_00000147216708076439568350000016574206701335635081_" gradientUnits="userSpaceOnUse" x1="181.885" y1="181.0155" x2="206.339" y2="181.0155" gradientTransform="matrix(1 0 0 -1 0 602)">
	<stop  offset="0" style="stop-color:#3182CE"/>
	<stop  offset="1" style="stop-color:#63B3ED"/>
</linearGradient>
<path style="fill:url(#SVGID_00000147216708076439568350000016574206701335635081_);" d="M206.3,428c0,9.3-5.5,13.8-12.2,9.9
	c-6.7-3.9-12.2-14.6-12.2-24c0-9.3,5.5-13.8,12.2-9.9C200.8,407.9,206.3,418.7,206.3,428z"/>
<linearGradient id="SVGID_00000121260072712231467710000000374306804887105434_" gradientUnits="userSpaceOnUse" x1="368.1764" y1="405.2896" x2="376.2724" y2="202.0426" gradientTransform="matrix(1 0 0 -1 0 602)">
	<stop  offset="0" style="stop-color:#FFFFFF"/>
	<stop  offset="1" style="stop-color:#FFFFFF;stop-opacity:0"/>
</linearGradient>
<path style="opacity:7.000000e-02;fill:url(#SVGID_00000121260072712231467710000000374306804887105434_);enable-background:new    ;" d="
	M264.1,187.5l217,125.3v114.9l-217-125.3L264.1,187.5z"/>
<linearGradient id="SVGID_00000095334836632738135220000001420187307527028400_" gradientUnits="userSpaceOnUse" x1="339.2009" y1="390.8083" x2="347.2969" y2="187.5613" gradientTransform="matrix(1 0 0 -1 0 602)">
	<stop  offset="0" style="stop-color:#FFFFFF"/>
	<stop  offset="1" style="stop-color:#FFFFFF;stop-opacity:0"/>
</linearGradient>
<path style="opacity:0.3;fill:url(#SVGID_00000095334836632738135220000001420187307527028400_);enable-background:new    ;" d="
	M235.1,202l217,125.3v114.9l-217-125.3V202z"/>
<linearGradient id="SVGID_00000010297936797967302610000009654941039633949101_" gradientUnits="userSpaceOnUse" x1="254.594" y1="324.517" x2="279.048" y2="324.517" gradientTransform="matrix(1 0 0 -1 0 602)">
	<stop  offset="0" style="stop-color:#3182CE"/>
	<stop  offset="1" style="stop-color:#63B3ED"/>
</linearGradient>
<path style="fill:url(#SVGID_00000010297936797967302610000009654941039633949101_);" d="M254.6,270.4c0,9.3,5.5,19.9,12.2,23.8
	c6.7,3.9,12.2-0.4,12.2-9.7c0-9.3-5.5-19.9-12.2-23.8C260.1,256.8,254.6,261.2,254.6,270.4z"/>
<path class="st8" d="M285.2,288.3c0,4.3,2.5,9.3,5.7,11.1c3.1,1.8,5.6-0.2,5.6-4.5s-2.5-9.3-5.7-11.1
	C287.7,282,285.2,284,285.2,288.3z"/>
<path class="st8" d="M302.6,298.4c0,4.3,2.5,9.3,5.7,11.1c3.1,1.8,5.6-0.2,5.6-4.5c0-4.3-2.5-9.3-5.7-11.1
	C305.2,292.1,302.6,294.1,302.6,298.4z"/>
<path class="st8" d="M397.3,317.9v65.4l-8.5-4.9V313L397.3,317.9z"/>
<path class="st8" d="M416,328.8v65.4l-8.5-4.9v-65.4L416,328.8z"/>
<path class="st8" d="M434.7,339.6V405l-8.5-4.9v-65.4L434.7,339.6z"/>
<linearGradient id="SVGID_00000053536588454404227970000010716799912422940605_" gradientUnits="userSpaceOnUse" x1="368.1414" y1="248.2239" x2="376.2373" y2="44.9769" gradientTransform="matrix(1 0 0 -1 0 602)">
	<stop  offset="0" style="stop-color:#FFFFFF"/>
	<stop  offset="1" style="stop-color:#FFFFFF;stop-opacity:0"/>
</linearGradient>
<path style="opacity:7.000000e-02;fill:url(#SVGID_00000053536588454404227970000010716799912422940605_);enable-background:new    ;" d="
	M264.1,344.6l217,125.3v114.9l-217-125.3V344.6z"/>
<linearGradient id="SVGID_00000071524931529273094160000013955784704681596056_" gradientUnits="userSpaceOnUse" x1="339.2018" y1="233.0189" x2="347.2978" y2="29.7729" gradientTransform="matrix(1 0 0 -1 0 602)">
	<stop  offset="0" style="stop-color:#FFFFFF"/>
	<stop  offset="1" style="stop-color:#FFFFFF;stop-opacity:0"/>
</linearGradient>
<path style="opacity:0.3;fill:url(#SVGID_00000071524931529273094160000013955784704681596056_);enable-background:new    ;" d="
	M235.1,359.8l217,125.3V600l-217-125.3V359.8z"/>
<linearGradient id="SVGID_00000014636577082753987190000011214824055151399298_" gradientUnits="userSpaceOnUse" x1="254.594" y1="166.7521" x2="279.048" y2="166.7521" gradientTransform="matrix(1 0 0 -1 0 602)">
	<stop  offset="0" style="stop-color:#3182CE"/>
	<stop  offset="1" style="stop-color:#63B3ED"/>
</linearGradient>
<path style="fill:url(#SVGID_00000014636577082753987190000011214824055151399298_);" d="M254.6,428.2c0,9.3,5.5,19.9,12.2,23.8
	c6.7,3.9,12.2-0.4,12.2-9.7c0-9.3-5.5-19.9-12.2-23.8C260.1,414.6,254.6,418.9,254.6,428.2z"/>
<path class="st8" d="M285.2,446.1c0,4.3,2.5,9.3,5.7,11.1c3.1,1.8,5.6-0.2,5.6-4.5s-2.5-9.3-5.7-11.1
	C287.7,439.8,285.2,441.8,285.2,446.1z"/>
<path class="st8" d="M302.6,456.2c0,4.3,2.5,9.3,5.7,11.1c3.1,1.8,5.6-0.2,5.6-4.5s-2.5-9.3-5.7-11.1
	C305.1,449.8,302.6,451.9,302.6,456.2z"/>
<path class="st8" d="M397.3,477.9v65.4l-8.5-4.9V473L397.3,477.9z"/>
<path class="st8" d="M416,488.8v65.4l-8.5-4.9v-65.4L416,488.8z"/>
<path class="st8" d="M434.7,499.6V565l-8.5-4.9v-65.4L434.7,499.6z"/>
<linearGradient id="SVGID_00000119077961733441399180000009854565768982662068_" gradientUnits="userSpaceOnUse" x1="192.2904" y1="548.1155" x2="72.1224" y2="340.0793" gradientTransform="matrix(1 0 0 -1 0 602)">
	<stop  offset="0" style="stop-color:#FFFFFF"/>
	<stop  offset="1" style="stop-color:#FFFFFF;stop-opacity:0"/>
</linearGradient>
<path style="display:none;opacity:0.3;fill:url(#SVGID_00000119077961733441399180000009854565768982662068_);enable-background:new    ;" d="
	M42.5,31.8l135.2,78.1v250.7L42.5,282.4V31.8z"/>
<linearGradient id="SVGID_00000029728623362289787220000002955361579389317763_" gradientUnits="userSpaceOnUse" x1="93.6914" y1="488.835" x2="125.959" y2="488.835" gradientTransform="matrix(1 0 0 -1 0 602)">
	<stop  offset="0" style="stop-color:#3182CE"/>
	<stop  offset="1" style="stop-color:#63B3ED"/>
</linearGradient>
<path style="fill:url(#SVGID_00000029728623362289787220000002955361579389317763_);" d="M126,122.6c0,12.5-7.2,18.5-16.1,13.2
	s-16.1-19.5-16.1-32.1c0-12.5,7.2-18.5,16.1-13.2C118.7,95.7,126,110.1,126,122.6z"/>
<linearGradient id="SVGID_00000075156388952834774010000015731323894613005758_" gradientUnits="userSpaceOnUse" x1="81.4277" y1="430.4246" x2="138.2944" y2="430.4246" gradientTransform="matrix(1 0 0 -1 0 602)">
	<stop  offset="0" style="stop-color:#3182CE"/>
	<stop  offset="1" style="stop-color:#63B3ED"/>
</linearGradient>
<path style="fill:url(#SVGID_00000075156388952834774010000015731323894613005758_);" d="M109.8,145.9c-14.4-8.4-26.3-0.5-28.4,17.6
	c-0.4,3.1,2,7.3,4.9,9l47,27.4c2.9,1.7,5.3,0.4,4.9-3.3C136.1,176,124.2,154.3,109.8,145.9z"/>
<path class="st8" d="M69.6,194.4l80.6,46.6v9.8l-80.6-46.6V194.4z"/>
<path class="st8" d="M77.8,218.7l63.9,36.9v9.8l-63.9-36.9V218.7z"/>
<linearGradient id="SVGID_00000127004115766403700260000016156313559557408681_" gradientUnits="userSpaceOnUse" x1="0" y1="355.107" x2="94.0532" y2="355.107" gradientTransform="matrix(1 0 0 -1 0 602)">
	<stop  offset="0" style="stop-color:#3182CE"/>
	<stop  offset="1" style="stop-color:#63B3ED"/>
</linearGradient>
<path style="fill:url(#SVGID_00000127004115766403700260000016156313559557408681_);" d="M94.1,260.1L0,205.7v28l94.1,54.4V260.1z"
	/>
<linearGradient id="SVGID_00000128457772965803488760000009318168077906554506_" gradientUnits="userSpaceOnUse" x1="221.1661" y1="562.1091" x2="184.4571" y2="541.6612" gradientTransform="matrix(1 0 0 -1 0 602)">
	<stop  offset="0" style="stop-color:#FFFFFF"/>
	<stop  offset="1" style="stop-color:#FFFFFF;stop-opacity:0"/>
</linearGradient>
<path style="opacity:0.2;fill:url(#SVGID_00000128457772965803488760000009318168077906554506_);enable-background:new    ;" d="
	M206.8,0L227,39.5c2.7,5.4,2.3,10.9-1,12.2c-3.3,1.3-8.2-2.1-11-7.5l-0.2-0.5v43.9c0,5-3.5,7-7.8,4.6c-4.3-2.5-7.8-8.5-7.8-13.5
	V34.7l-0.2,0.2c-2.7,2.2-7.7-0.1-11-5.2c-3.3-5.1-3.8-11.1-1-13.3L206.8,0z"/>
<linearGradient id="SVGID_00000088120415018760631690000000697950405253863591_" gradientUnits="userSpaceOnUse" x1="192.4834" y1="58.1591" x2="229.1924" y2="78.6071" gradientTransform="matrix(1 0 0 -1 0 602)">
	<stop  offset="0" style="stop-color:#FFFFFF"/>
	<stop  offset="1" style="stop-color:#FFFFFF;stop-opacity:0"/>
</linearGradient>
<path style="opacity:0.2;fill:url(#SVGID_00000088120415018760631690000000697950405253863591_);enable-background:new    ;" d="
	M206.8,583.7l-20.1-39.5c-2.8-5.4-2.3-10.9,1-12.2c3.3-1.3,8.2,2.1,11,7.5l0.2,0.5v-43.9c0-5,3.5-7,7.8-4.6
	c4.3,2.5,7.8,8.5,7.8,13.5V549l0.2-0.2c2.7-2.2,7.7,0.1,11,5.2c3.3,5.1,3.8,11.1,1,13.3L206.8,583.7z"/>
</svg>
