<?xml version="1.0" encoding="UTF-8"?><svg id="Layer_1" xmlns="http://www.w3.org/2000/svg" viewBox="0 0 379.75 152.64"><defs><style>.cls-1{stroke-linecap:round;stroke-linejoin:round;}.cls-1,.cls-2{stroke:#2b3990;}.cls-1,.cls-3{fill:none;}.cls-4{fill:#8dc63f;stroke:#006838;}.cls-4,.cls-2{stroke-width:.5px;}.cls-4,.cls-2,.cls-3{stroke-miterlimit:10;}.cls-2{fill:#27aae1;}.cls-3{stroke:#808285;stroke-width:.75px;}.cls-5{fill:#6d6e71;font-size:13px;letter-spacing:0em;}.cls-5,.cls-6{font-family:AvenirNext-Regular, 'Avenir Next';}.cls-7{letter-spacing:0em;}.cls-8{letter-spacing:0em;}.cls-6{fill:#2e3192;font-size:12px;}.cls-9{fill:#808285;stroke-width:0px;}</style></defs><line class="cls-3" x1="7.97" y1="18.86" x2="372.31" y2="18.86"/><polygon class="cls-9" points="367.88 21.24 367.62 20.54 372.24 18.86 367.62 17.18 367.88 16.47 374.43 18.86 367.88 21.24"/><text class="cls-5" transform="translate(12.74 14.08)"><tspan x="0" y="0">time</tspan></text><circle class="cls-2" cx="32.63" cy="39.71" r="4.46"/><circle class="cls-2" cx="65.3" cy="39.71" r="4.46"/><circle class="cls-2" cx="102.25" cy="39.71" r="4.46"/><circle class="cls-4" cx="156.04" cy="39.71" r="4.46"/><circle class="cls-2" cx="169.99" cy="39.71" r="4.46"/><circle class="cls-2" cx="208.14" cy="39.71" r="4.46"/><circle class="cls-4" cx="252.81" cy="39.71" r="4.46"/><circle class="cls-2" cx="293.99" cy="39.71" r="4.46"/><circle class="cls-2" cx="329.66" cy="39.71" r="4.46"/><circle class="cls-4" cx="352.61" cy="39.71" r="4.46"/><line class="cls-1" x1="16.06" y1="52.7" x2="16.06" y2="65.9"/><line class="cls-1" x1="16.06" y1="65.9" x2="131.62" y2="65.9"/><line class="cls-1" x1="131.62" y1="65.9" x2="131.62" y2="52.7"/><line class="cls-1" x1="131.73" y1="52.69" x2="131.73" y2="65.89"/><line class="cls-1" x1="131.73" y1="65.89" x2="247.28" y2="65.89"/><line class="cls-1" x1="247.28" y1="65.89" x2="247.28" y2="52.69"/><line class="cls-1" x1="247.39" y1="52.69" x2="247.39" y2="65.89"/><line class="cls-1" x1="247.39" y1="65.89" x2="362.95" y2="65.89"/><line class="cls-1" x1="362.95" y1="65.89" x2="362.95" y2="52.69"/><line class="cls-1" x1="74.7" y1="71.25" x2="74.7" y2="97.12"/><circle class="cls-4" cx="43.86" cy="39.87" r="4.46"/><circle class="cls-4" cx="124.62" cy="39.68" r="4.46"/><circle class="cls-4" cx="183.44" cy="39.82" r="4.46"/><circle class="cls-4" cx="219.35" cy="39.82" r="4.46"/><circle class="cls-4" cx="281.67" cy="39.63" r="4.46"/><circle class="cls-4" cx="342.33" cy="39.82" r="4.46"/><circle class="cls-2" cx="60" cy="111.12" r="4.46"/><circle class="cls-2" cx="74.5" cy="111.12" r="4.46"/><circle class="cls-2" cx="89" cy="111.12" r="4.46"/><circle class="cls-4" cx="59.94" cy="130.09" r="4.46"/><circle class="cls-4" cx="74.7" cy="130.09" r="4.46"/><text class="cls-6" transform="translate(15.6 114.24)"><tspan class="cls-8" x="0" y="0">k</tspan><tspan class="cls-7" x="6.02" y="0">ey1</tspan></text><text class="cls-6" transform="translate(15.23 133.4)"><tspan class="cls-8" x="0" y="0">k</tspan><tspan class="cls-7" x="6.02" y="0">ey2</tspan></text><line class="cls-1" x1="192.68" y1="71.25" x2="192.68" y2="97.12"/><circle class="cls-2" cx="179" cy="111.12" r="4.46"/><circle class="cls-2" cx="193.5" cy="111.12" r="4.46"/><circle class="cls-4" cx="178.94" cy="130.11" r="4.46"/><circle class="cls-4" cx="193.7" cy="130.11" r="4.46"/><circle class="cls-4" cx="208.31" cy="130.07" r="4.46"/><line class="cls-1" x1="310.34" y1="71.25" x2="310.34" y2="97.12"/><circle class="cls-2" cx="288.27" cy="111.12" r="4.46"/><circle class="cls-2" cx="302.77" cy="111.12" r="4.46"/><circle class="cls-4" cx="288.22" cy="130.12" r="4.46"/><circle class="cls-4" cx="302.98" cy="130.12" r="4.46"/><circle class="cls-4" cx="317.58" cy="130.08" r="4.46"/><circle class="cls-4" cx="332.01" cy="130.06" r="4.46"/></svg>