<svg id="Group_169" data-name="Group 169" xmlns="http://www.w3.org/2000/svg" xmlns:xlink="http://www.w3.org/1999/xlink" width="146.364" height="140" viewBox="0 0 146.364 140">
  <defs>
    <clipPath id="clip-path">
      <rect id="Rectangle_149" data-name="Rectangle 149" width="146.364" height="140" fill="#080851"></rect>
    </clipPath>
  </defs>
  <g id="Group_169-2" data-name="Group 169" clip-path="url(#clip-path)">
    <path id="Path_607" data-name="Path 607" d="M368.647,156.93,344.97,103.51a2.5,2.5,0,0,0-2.281-1.484h-11.1l25.455,57.432-25.455,57.114h11.108a2.5,2.5,0,0,0,2.279-1.479l23.675-53.107a6.237,6.237,0,0,0,0-5.055" transform="translate(-248.858 -76.571)" fill="#080851"></path>
    <path id="Path_608" data-name="Path 608" d="M473.772,155.766l-5.249-11.8a6.237,6.237,0,0,1,0-5.062l15.686-35.391a2.5,2.5,0,0,1,2.281-1.484h11.1Z" transform="translate(-351.227 -76.571)" fill="#080851"></path>
    <path id="Path_609" data-name="Path 609" d="M22.622,5.481,5.481,22.622A18.712,18.712,0,0,0,0,35.853V86.6a2.5,2.5,0,0,0,2.495,2.495H12.727V25.2A12.475,12.475,0,0,1,25.2,12.727H48.414a2.5,2.5,0,0,0,2.495-2.495V0H35.853A18.712,18.712,0,0,0,22.622,5.481" fill="#080851"></path>
    <path id="Path_610" data-name="Path 610" d="M239.427,83.61,222.286,66.469A18.712,18.712,0,0,1,216.8,53.238V0h10.232a2.5,2.5,0,0,1,2.495,2.495V63.889a12.475,12.475,0,0,0,12.474,12.475h22.775l2.831,6.364-2.831,6.364H252.658a18.712,18.712,0,0,1-13.231-5.481" transform="translate(-162.714)" fill="#080851"></path>
    <path id="Path_611" data-name="Path 611" d="M96.271,153.04H78.879a6.237,6.237,0,0,0-4.451,1.867l-10.662,10.86h35V155.535a2.5,2.5,0,0,0-2.495-2.495" transform="translate(-47.857 -114.858)" fill="#080851"></path>
  </g>
</svg>