<?xml version="1.0" encoding="UTF-8"?><svg id="Layer_1" xmlns="http://www.w3.org/2000/svg" viewBox="0 0 379.75 152.64"><defs><style>.cls-1,.cls-2{stroke-linecap:round;stroke-linejoin:round;}.cls-1,.cls-2,.cls-3{fill:none;}.cls-1,.cls-4{stroke:#2b3990;}.cls-2{stroke:#f15a29;}.cls-2,.cls-3{stroke-width:.75px;}.cls-5{fill:#8dc63f;stroke:#006838;}.cls-5,.cls-4{stroke-width:.5px;}.cls-5,.cls-4,.cls-3{stroke-miterlimit:10;}.cls-4{fill:#27aae1;}.cls-3{stroke:#808285;}.cls-6{fill:#6d6e71;font-size:13px;letter-spacing:0em;}.cls-6,.cls-7{font-family:AvenirNext-Regular, 'Avenir Next';}.cls-7{fill:#ef4136;font-size:12px;letter-spacing:.01em;}.cls-8{fill:#808285;}.cls-8,.cls-9{stroke-width:0px;}.cls-9{fill:#f15a29;}</style></defs><line class="cls-3" x1="7.97" y1="18.86" x2="372.31" y2="18.86"/><polygon class="cls-8" points="367.88 21.24 367.62 20.54 372.24 18.86 367.62 17.18 367.88 16.47 374.43 18.86 367.88 21.24"/><text class="cls-6" transform="translate(12.74 14.08)"><tspan x="0" y="0">time</tspan></text><circle class="cls-4" cx="32.63" cy="39.71" r="4.46"/><circle class="cls-4" cx="65.3" cy="39.71" r="4.46"/><circle class="cls-4" cx="102.25" cy="39.71" r="4.46"/><circle class="cls-5" cx="156.04" cy="39.71" r="4.46"/><circle class="cls-4" cx="169.99" cy="39.71" r="4.46"/><circle class="cls-4" cx="208.14" cy="39.71" r="4.46"/><circle class="cls-5" cx="252.81" cy="39.71" r="4.46"/><circle class="cls-4" cx="293.99" cy="39.71" r="4.46"/><circle class="cls-4" cx="329.66" cy="39.71" r="4.46"/><circle class="cls-5" cx="352.61" cy="39.71" r="4.46"/><line class="cls-1" x1="16.06" y1="52.7" x2="16.06" y2="65.9"/><line class="cls-1" x1="16.06" y1="65.9" x2="131.62" y2="65.9"/><line class="cls-1" x1="131.62" y1="65.9" x2="131.62" y2="52.7"/><line class="cls-1" x1="131.73" y1="52.69" x2="131.73" y2="65.89"/><line class="cls-1" x1="131.73" y1="65.89" x2="247.28" y2="65.89"/><line class="cls-1" x1="247.28" y1="65.89" x2="247.28" y2="52.69"/><line class="cls-1" x1="247.39" y1="52.69" x2="247.39" y2="65.89"/><line class="cls-1" x1="247.39" y1="65.89" x2="362.95" y2="65.89"/><line class="cls-1" x1="362.95" y1="65.89" x2="362.95" y2="52.69"/><line class="cls-1" x1="74.7" y1="71.25" x2="74.7" y2="97.12"/><circle class="cls-5" cx="43.86" cy="39.87" r="4.46"/><circle class="cls-5" cx="124.62" cy="39.68" r="4.46"/><circle class="cls-5" cx="183.44" cy="39.82" r="4.46"/><circle class="cls-5" cx="219.35" cy="39.82" r="4.46"/><circle class="cls-5" cx="281.67" cy="39.63" r="4.46"/><circle class="cls-5" cx="342.33" cy="39.82" r="4.46"/><circle class="cls-4" cx="60" cy="111.12" r="4.46"/><circle class="cls-4" cx="74.5" cy="111.12" r="4.46"/><circle class="cls-4" cx="89" cy="111.12" r="4.46"/><circle class="cls-5" cx="59.94" cy="130.09" r="4.46"/><circle class="cls-5" cx="74.7" cy="130.09" r="4.46"/><text class="cls-7" transform="translate(117.93 115.08)"><tspan x="0" y="0">3</tspan></text><text class="cls-7" transform="translate(117.47 134.94)"><tspan x="0" y="0">2</tspan></text><line class="cls-1" x1="192.68" y1="71.25" x2="192.68" y2="97.12"/><circle class="cls-4" cx="174" cy="111.12" r="4.46"/><circle class="cls-4" cx="188.5" cy="111.12" r="4.46"/><circle class="cls-5" cx="173.94" cy="130.11" r="4.46"/><circle class="cls-5" cx="188.7" cy="130.11" r="4.46"/><circle class="cls-5" cx="203.31" cy="130.07" r="4.46"/><line class="cls-1" x1="310.34" y1="71.25" x2="310.34" y2="97.12"/><circle class="cls-4" cx="281.27" cy="111.12" r="4.46"/><circle class="cls-4" cx="295.77" cy="111.12" r="4.46"/><circle class="cls-5" cx="281.22" cy="130.12" r="4.46"/><circle class="cls-5" cx="295.98" cy="130.12" r="4.46"/><circle class="cls-5" cx="310.58" cy="130.08" r="4.46"/><circle class="cls-5" cx="325.01" cy="130.06" r="4.46"/><text class="cls-7" transform="translate(7.71 92.05)"><tspan x="0" y="0">count ()</tspan></text><text class="cls-7" transform="translate(229.59 115.08)"><tspan x="0" y="0">2</tspan></text><text class="cls-7" transform="translate(230.12 135.24)"><tspan x="0" y="0">3</tspan></text><text class="cls-7" transform="translate(351.76 115.08)"><tspan x="0" y="0">2</tspan></text><text class="cls-7" transform="translate(352.29 134.94)"><tspan x="0" y="0">4</tspan></text><line class="cls-2" x1="101.67" y1="110.95" x2="110.08" y2="110.95"/><line class="cls-2" x1="101.86" y1="130.07" x2="110.27" y2="130.07"/><line class="cls-2" x1="215.32" y1="111.25" x2="223.73" y2="111.25"/><line class="cls-2" x1="215.52" y1="130.37" x2="223.93" y2="130.37"/><line class="cls-2" x1="337.49" y1="110.93" x2="345.9" y2="110.93"/><line class="cls-2" x1="337.69" y1="130.05" x2="346.1" y2="130.05"/><line class="cls-2" x1="25.21" y1="98.25" x2="25.21" y2="133.57"/><line class="cls-2" x1="34.35" y1="110.91" x2="45.16" y2="110.91"/><polygon class="cls-9" points="42.68 113.98 42.16 113.43 44.87 110.91 42.16 108.39 42.68 107.84 45.97 110.91 42.68 113.98"/><line class="cls-2" x1="34.71" y1="130.38" x2="45.52" y2="130.38"/><polygon class="cls-9" points="43.03 133.44 42.52 132.9 45.23 130.38 42.52 127.86 43.03 127.31 46.33 130.38 43.03 133.44"/></svg>