<svg id="Layer_1" data-name="Layer 1" xmlns="http://www.w3.org/2000/svg" xmlns:xlink="http://www.w3.org/1999/xlink" viewBox="0 0 634.77 181.11"><defs><style>.cls-1,.cls-11,.cls-23,.cls-27,.cls-4{fill:none;}.cls-2{clip-path:url(#clip-path);}.cls-3{fill:#fff;}.cls-23,.cls-4{stroke:#53489a;}.cls-27,.cls-4{stroke-linecap:round;stroke-linejoin:round;}.cls-23,.cls-27,.cls-4{stroke-width:1.5px;}.cls-18,.cls-5{font-size:18px;}.cls-14,.cls-18,.cls-5{font-family:AvenirNext-Regular, Avenir Next;}.cls-6{letter-spacing:-0.09em;}.cls-7{letter-spacing:-0.06em;}.cls-8{letter-spacing:0em;}.cls-9{letter-spacing:-0.01em;}.cls-10{fill:#53489a;}.cls-11{stroke:#35284b;stroke-width:0.5px;}.cls-11,.cls-23{stroke-miterlimit:10;}.cls-12{fill:#907eb3;}.cls-13{fill:#5654a4;}.cls-14{font-size:14px;fill:#45338e;}.cls-15{letter-spacing:-0.01em;}.cls-16{letter-spacing:0em;}.cls-17{letter-spacing:-0.02em;}.cls-18{letter-spacing:-0.05em;}.cls-19{letter-spacing:-0.02em;}.cls-20{letter-spacing:0em;}.cls-21{letter-spacing:-0.01em;}.cls-22{letter-spacing:-0.02em;}.cls-24{letter-spacing:-0.01em;}.cls-25{letter-spacing:0em;}.cls-26{letter-spacing:-0.02em;}.cls-27{stroke:#5654a4;}</style><clipPath id="clip-path" transform="translate(-15.31 -10.47)"><rect class="cls-1" x="9.64" y="2.83" width="641" height="193"/></clipPath></defs><g class="cls-2"><rect class="cls-3" x="124.67" y="64.47" width="178.66" height="44"/><rect class="cls-4" x="124.67" y="64.47" width="178.66" height="44"/><text class="cls-5" transform="translate(148.75 52.47)"><tspan class="cls-6">T</tspan><tspan x="8.55" y="0">opic/</tspan><tspan class="cls-7" x="51.14" y="0">P</tspan><tspan class="cls-8" x="60.52" y="0">a</tspan><tspan class="cls-9" x="70.13" y="0">r</tspan><tspan x="76.41" y="0">tition</tspan></text><rect class="cls-10" x="240.57" y="78.09" width="12" height="16.75"/><rect class="cls-11" x="240.57" y="78.09" width="12" height="16.75"/><rect class="cls-10" x="228.57" y="78.09" width="12" height="16.75"/><rect class="cls-11" x="228.57" y="78.09" width="12" height="16.75"/><rect class="cls-12" x="216.57" y="78.09" width="12" height="16.75"/><rect class="cls-11" x="216.57" y="78.09" width="12" height="16.75"/><rect class="cls-3" x="252.57" y="78.09" width="12" height="16.75"/><rect class="cls-11" x="252.57" y="78.09" width="12" height="16.75"/><rect class="cls-3" x="276.57" y="78.09" width="12" height="16.75"/><rect class="cls-11" x="276.57" y="78.09" width="12" height="16.75"/><rect class="cls-3" x="264.57" y="78.09" width="12" height="16.75"/><rect class="cls-11" x="264.57" y="78.09" width="12" height="16.75"/><rect class="cls-10" x="204.57" y="78.09" width="12" height="16.75"/><rect class="cls-11" x="204.57" y="78.09" width="12" height="16.75"/><rect class="cls-13" x="192.57" y="78.09" width="12" height="16.75"/><rect class="cls-11" x="192.57" y="78.09" width="12" height="16.75"/><rect class="cls-12" x="180.57" y="78.09" width="12" height="16.75"/><rect class="cls-11" x="180.57" y="78.09" width="12" height="16.75"/><rect class="cls-10" x="168.57" y="78.09" width="12" height="16.75"/><rect class="cls-11" x="168.57" y="78.09" width="12" height="16.75"/><rect class="cls-13" x="156.57" y="78.09" width="12" height="16.75"/><rect class="cls-11" x="156.57" y="78.09" width="12" height="16.75"/><rect class="cls-10" x="144.57" y="78.09" width="12" height="16.75"/><rect class="cls-11" x="144.57" y="78.09" width="12" height="16.75"/><rect class="cls-13" x="132.57" y="78.09" width="12" height="16.75"/><rect class="cls-11" x="132.57" y="78.09" width="12" height="16.75"/><text class="cls-14" transform="translate(380.08 175.35)"><tspan class="cls-15">W</tspan><tspan class="cls-16" x="13.45" y="0">ASM-</tspan><tspan class="cls-17" x="48.03" y="0">F</tspan><tspan x="55.66" y="0">ilter</tspan></text><text class="cls-18" transform="translate(0 61.48)">P<tspan class="cls-19" x="9.59" y="0">r</tspan><tspan class="cls-20" x="15.77" y="0">oducer</tspan></text><text class="cls-5" transform="translate(518.23 15.37)"><tspan class="cls-21">C</tspan><tspan x="12.76" y="0">onsume</tspan><tspan class="cls-22" x="78.86" y="0">r</tspan><tspan x="84.92" y="0">-1</tspan></text><line class="cls-4" x1="68.9" y1="84.64" x2="109.17" y2="84.64"/><path class="cls-23" d="M124.48,91.82l8.8,3.3-8.8,3.3m8.8-3.3h-8.8" transform="translate(-15.31 -10.47)"/><polyline class="cls-4" points="348.57 92.94 348.57 38.48 475.94 38.48"/><path class="cls-23" d="M491.25,45.66l8.8,3.3-8.8,3.3m8.8-3.3h-8.8" transform="translate(-15.31 -10.47)"/><rect class="cls-10" x="622.52" y="27.37" width="12" height="16.75"/><rect class="cls-11" x="622.52" y="27.37" width="12" height="16.75"/><rect class="cls-10" x="608.77" y="27.37" width="12" height="16.75"/><rect class="cls-11" x="608.77" y="27.37" width="12" height="16.75"/><rect class="cls-12" x="594.77" y="27.37" width="12" height="16.75"/><rect class="cls-11" x="594.77" y="27.37" width="12" height="16.75"/><rect class="cls-10" x="580.78" y="27.37" width="12" height="16.75"/><rect class="cls-11" x="580.78" y="27.37" width="12" height="16.75"/><rect class="cls-13" x="566.79" y="27.37" width="12" height="16.75"/><rect class="cls-11" x="566.79" y="27.37" width="12" height="16.75"/><rect class="cls-12" x="552.8" y="27.37" width="12" height="16.75"/><rect class="cls-11" x="552.8" y="27.37" width="12" height="16.75"/><rect class="cls-10" x="538.81" y="27.37" width="12" height="16.75"/><rect class="cls-11" x="538.81" y="27.37" width="12" height="16.75"/><rect class="cls-13" x="524.81" y="27.37" width="12" height="16.75"/><rect class="cls-11" x="524.81" y="27.37" width="12" height="16.75"/><rect class="cls-10" x="510.82" y="27.37" width="12" height="16.75"/><rect class="cls-11" x="510.82" y="27.37" width="12" height="16.75"/><rect class="cls-13" x="496.83" y="27.37" width="12" height="16.75"/><rect class="cls-11" x="496.83" y="27.37" width="12" height="16.75"/><polyline class="cls-4" points="348.57 90.19 348.57 132.52 475.94 132.52"/><path class="cls-23" d="M491.25,139.69l8.8,3.3-8.8,3.3m8.8-3.3h-8.8" transform="translate(-15.31 -10.47)"/><text class="cls-5" transform="translate(515.13 116.86)"><tspan class="cls-24">C</tspan><tspan class="cls-25" x="12.76" y="0">onsume</tspan><tspan class="cls-26" x="78.86" y="0">r</tspan><tspan x="84.92" y="0">-2</tspan></text><rect class="cls-10" x="553.6" y="125.98" width="12" height="16.75"/><rect class="cls-11" x="553.6" y="125.98" width="12" height="16.75"/><rect class="cls-10" x="539.47" y="125.98" width="12" height="16.75"/><rect class="cls-11" x="539.47" y="125.98" width="12" height="16.75"/><rect class="cls-10" x="525.21" y="125.98" width="12" height="16.75"/><rect class="cls-11" x="525.21" y="125.98" width="12" height="16.75"/><rect class="cls-10" x="511.02" y="125.98" width="12" height="16.75"/><rect class="cls-11" x="511.02" y="125.98" width="12" height="16.75"/><rect class="cls-10" x="496.83" y="125.98" width="12" height="16.75"/><rect class="cls-11" x="496.83" y="125.98" width="12" height="16.75"/><rect class="cls-3" x="396.23" y="112.35" width="45" height="44"/><rect class="cls-27" x="396.23" y="112.35" width="45" height="44"/><path class="cls-27" d="M439.91,154.94a11.44,11.44,0,0,0,5.86-10,11.77,11.77,0,1,0-17.68,10" transform="translate(-15.31 -10.47)"/><path class="cls-27" d="M434,137a2.9,2.9,0,0,1,.57-.08,2.31,2.31,0,1,1,0,4.62,2.45,2.45,0,0,1-.57-.08" transform="translate(-15.31 -10.47)"/><line class="cls-27" x1="418.73" y1="122.96" x2="418.73" y2="126.52"/><line class="cls-27" x1="418.73" y1="130.97" x2="418.73" y2="134.49"/><path class="cls-27" d="M434,152.93a2.9,2.9,0,0,0,.57.08,2.31,2.31,0,1,0,0-4.62,2.45,2.45,0,0,0-.57.08" transform="translate(-15.31 -10.47)"/><line class="cls-27" x1="418.73" y1="146.01" x2="418.73" y2="142.45"/><line class="cls-27" x1="418.73" y1="138" x2="418.73" y2="134.49"/><path class="cls-27" d="M425.91,145a2.18,2.18,0,0,1-.09-.56,2.36,2.36,0,0,1,4.72,0,2.29,2.29,0,0,1-.08.56" transform="translate(-15.31 -10.47)"/><line class="cls-27" x1="406.96" y1="134.49" x2="410.59" y2="134.49"/><line class="cls-27" x1="415.14" y1="134.49" x2="418.73" y2="134.49"/><path class="cls-27" d="M434,137a2.9,2.9,0,0,1,.57-.08,2.31,2.31,0,1,1,0,4.62,2.45,2.45,0,0,1-.57-.08" transform="translate(-15.31 -10.47)"/><line class="cls-27" x1="418.73" y1="122.96" x2="418.73" y2="126.52"/><line class="cls-27" x1="418.73" y1="130.97" x2="418.73" y2="134.49"/><path class="cls-27" d="M442.18,145a2.72,2.72,0,0,0,.09-.56,2.37,2.37,0,0,0-4.73,0,2.26,2.26,0,0,0,.09.56" transform="translate(-15.31 -10.47)"/><line class="cls-27" x1="430.5" y1="134.49" x2="426.87" y2="134.49"/><line class="cls-27" x1="422.32" y1="134.49" x2="418.73" y2="134.49"/><path class="cls-27" d="M434,152.93a2.9,2.9,0,0,0,.57.08,2.31,2.31,0,1,0,0-4.62,2.45,2.45,0,0,0-.57.08" transform="translate(-15.31 -10.47)"/><line class="cls-27" x1="418.73" y1="146.01" x2="418.73" y2="142.45"/><line class="cls-27" x1="418.73" y1="138" x2="418.73" y2="134.49"/><line class="cls-27" x1="418.73" y1="117.35" x2="418.73" y2="120.95"/><line class="cls-27" x1="436.23" y1="134.49" x2="432.55" y2="134.49"/><line class="cls-27" x1="404.9" y1="134.49" x2="401.23" y2="134.49"/><line class="cls-27" x1="431.11" y1="122.36" x2="428.53" y2="124.89"/><line class="cls-27" x1="408.93" y1="144.08" x2="406.35" y2="146.61"/><line class="cls-27" x1="406.35" y1="122.36" x2="408.93" y2="124.89"/><line class="cls-27" x1="428.53" y1="144.08" x2="431.11" y2="146.61"/><line class="cls-27" x1="412.87" y1="151.3" x2="412.87" y2="144.47"/><line class="cls-27" x1="424.59" y1="151.35" x2="412.87" y2="151.35"/><line class="cls-27" x1="424.59" y1="146.09" x2="412.87" y2="146.09"/><line class="cls-27" x1="424.62" y1="151.35" x2="424.62" y2="144.52"/><line class="cls-4" x1="303.33" y1="86.47" x2="348.57" y2="86.31"/><rect class="cls-10" x="18" y="76.77" width="12" height="16.75"/><rect class="cls-11" x="18" y="76.77" width="12" height="16.75"/><rect class="cls-13" x="33.67" y="76.77" width="12" height="16.75"/><rect class="cls-11" x="33.67" y="76.77" width="12" height="16.75"/><rect class="cls-12" x="2.33" y="76.77" width="12" height="16.75"/><rect class="cls-11" x="2.33" y="76.77" width="12" height="16.75"/><rect class="cls-12" x="49.34" y="76.77" width="12" height="16.75"/><rect class="cls-11" x="49.34" y="76.77" width="12" height="16.75"/></g></svg>