<svg id="Layer_1" data-name="Layer 1" xmlns="http://www.w3.org/2000/svg" viewBox="0 0 735.31 369.73"><defs><style>.cls-1,.cls-10,.cls-11,.cls-12,.cls-16,.cls-18,.cls-19,.cls-2,.cls-20,.cls-21,.cls-23,.cls-25,.cls-26,.cls-27,.cls-28,.cls-3,.cls-31,.cls-32,.cls-33,.cls-35,.cls-36,.cls-37,.cls-4,.cls-5,.cls-7{fill:none;}.cls-1,.cls-2,.cls-26,.cls-27,.cls-28,.cls-3,.cls-4,.cls-5{stroke:#6d6e71;}.cls-1,.cls-12,.cls-16,.cls-19,.cls-20,.cls-21,.cls-23,.cls-25,.cls-3,.cls-32,.cls-37,.cls-7{stroke-linecap:round;}.cls-1,.cls-10,.cls-11,.cls-14,.cls-18,.cls-2,.cls-26,.cls-27,.cls-28,.cls-29,.cls-31,.cls-32,.cls-35,.cls-36,.cls-4,.cls-5{stroke-miterlimit:10;}.cls-12,.cls-16,.cls-19,.cls-20,.cls-21,.cls-23,.cls-25,.cls-3,.cls-33,.cls-37,.cls-7{stroke-linejoin:round;}.cls-21,.cls-25,.cls-27,.cls-4{stroke-width:0.8px;}.cls-5{stroke-linecap:square;}.cls-6{fill:#6d6e71;}.cls-16,.cls-7{stroke:#a7a9ac;}.cls-18,.cls-23,.cls-26,.cls-7{stroke-width:0.75px;}.cls-8{fill:#a7a9ac;}.cls-9{fill:#231f20;}.cls-10,.cls-14,.cls-23,.cls-25{stroke:#39b54a;}.cls-11,.cls-12,.cls-29{stroke:#009444;}.cls-13,.cls-14,.cls-29{fill:#43428e;}.cls-15{fill:#009444;}.cls-16{stroke-width:0.88px;}.cls-17{fill:#f7f7fa;}.cls-18,.cls-31,.cls-32{stroke:#f7f7fa;}.cls-19,.cls-20{stroke:#43428e;}.cls-20{stroke-dasharray:1.04 8.36;}.cls-21{stroke:#939598;}.cls-22{fill:#939598;}.cls-24{fill:#39b54a;}.cls-27{stroke-dasharray:2 0.5;}.cls-28{stroke-width:0.7px;}.cls-30{fill:#45328d;}.cls-33,.cls-35,.cls-36,.cls-37{stroke:#fff;}.cls-34{fill:#fff;}.cls-35{fill-rule:evenodd;}</style></defs><path id="mobile--add" class="cls-1" d="M26.08,92.73a1,1,0,1,1,1-1A1,1,0,0,1,26.08,92.73Z"/><rect class="cls-2" x="18.44" y="69.49" width="15.28" height="24.76" rx="0.51"/><line class="cls-2" x1="18.44" y1="88.75" x2="33.72" y2="88.75"/><circle class="cls-2" cx="26.08" cy="76.46" r="2.21"/><path class="cls-2" d="M20.84,86.07a5.11,5.11,0,0,1,5.24-5,5.11,5.11,0,0,1,5.25,5"/><path class="cls-3" d="M34.43,296.37c1,.33,1.59,1.78,1,3.42s-1.84,2.71-2.88,2.38"/><path class="cls-3" d="M18.93,293.08l7.23,2.28,12.41,1.52.72-2.17-18.92-6Z"/><path class="cls-3" d="M26.16,295.36l-7.23-2.28-1.44,4.33,15,4.73,1.92-5.77Z"/><path class="cls-3" d="M22.48,303.26l-1.46-.5.63-3.84,2.66.9Z"/><ellipse class="cls-3" cx="21.18" cy="304.41" rx="1.53" ry="1.49"/><path class="cls-3" d="M19.91,305.49H13.22v-1.78h6.69"/><rect class="cls-3" x="11.39" y="300.75" width="1.83" height="7.11"/><path class="cls-1" d="M23.22,286a6.9,6.9,0,0,1,5.89-3A6.92,6.92,0,0,1,35,286"/><path class="cls-1" d="M25.57,286.91a4.36,4.36,0,0,1,7,0"/><path class="cls-4" d="M708.37,220.31a3,3,0,0,0,2.82-2h.43a4.24,4.24,0,0,0,3-1.19,4.35,4.35,0,0,0,1.32-3.17,5.75,5.75,0,0,0-.89-2.78,5.07,5.07,0,0,0,3.25-4.66"/><path class="cls-4" d="M718.25,206.52a5.08,5.08,0,0,0-3.25-4.66,5.62,5.62,0,0,0,.91-2.76,4.32,4.32,0,0,0-4.3-4.38h-.42a3,3,0,0,0-2.82-2h0a2.7,2.7,0,0,0-2.1.93,3.6,3.6,0,0,0-.81,2.41V217c0,2,1.19,3.34,2.92,3.34"/><line class="cls-4" x1="708.36" y1="192.73" x2="708.36" y2="202.9"/><ellipse class="cls-4" cx="708.36" cy="203.75" rx="0.82" ry="0.94"/><ellipse class="cls-4" cx="711.59" cy="199.5" rx="0.82" ry="0.94"/><ellipse class="cls-4" cx="714.49" cy="206.3" rx="0.82" ry="0.94"/><ellipse class="cls-4" cx="711.03" cy="211.07" rx="0.82" ry="0.94"/><ellipse class="cls-4" cx="708.36" cy="215.89" rx="0.82" ry="0.94"/><line class="cls-4" x1="708.36" y1="208.33" x2="708.36" y2="215.41"/><line class="cls-4" x1="715.31" y1="211.18" x2="711.89" y2="211.18"/><path class="cls-4" d="M705.65,208H710c.88,0,1.6-1.21,1.6-2.71v-4.87"/><line class="cls-4" x1="713.67" y1="206.3" x2="711.48" y2="206.3"/><path class="cls-4" d="M700.8,220.31c1.73,0,2.93-1.38,2.93-3.34v-20.9a3.66,3.66,0,0,0-.82-2.41,2.7,2.7,0,0,0-2.1-.93h0a3,3,0,0,0-2.82,2h-.42a4.33,4.33,0,0,0-4.3,4.38,5.62,5.62,0,0,0,.91,2.76,5,5,0,0,0,0,9.32,5.75,5.75,0,0,0-.89,2.78,4.35,4.35,0,0,0,1.32,3.17,4.24,4.24,0,0,0,2.95,1.19H698a3,3,0,0,0,2.82,2"/><line class="cls-4" x1="700.81" y1="192.73" x2="700.81" y2="202.9"/><ellipse class="cls-4" cx="700.81" cy="203.75" rx="0.82" ry="0.94"/><ellipse class="cls-4" cx="697.58" cy="199.5" rx="0.82" ry="0.94"/><ellipse class="cls-4" cx="694.68" cy="206.3" rx="0.82" ry="0.94"/><ellipse class="cls-4" cx="698.14" cy="211.07" rx="0.82" ry="0.94"/><ellipse class="cls-4" cx="700.81" cy="215.89" rx="0.82" ry="0.94"/><line class="cls-4" x1="700.81" y1="208.33" x2="700.81" y2="215.41"/><line class="cls-4" x1="693.86" y1="211.18" x2="697.28" y2="211.18"/><path class="cls-4" d="M703.52,208h-4.34c-.88,0-1.6-1.21-1.6-2.71v-4.87"/><line class="cls-4" x1="695.5" y1="206.3" x2="697.69" y2="206.3"/><path class="cls-2" d="M704,72l-.11-.11L692.51,59.59l-.11-.12"/><path class="cls-2" d="M715.47,47h0A7.75,7.75,0,0,0,704,46.92a7.75,7.75,0,0,0-11.48.11h0a9.41,9.41,0,0,0-.11,12.44l.11.12,11.37,12.32L704,72a.57.57,0,0,1,.11-.11l11.37-12.32.1-.12A9.4,9.4,0,0,0,715.47,47Z"/><path class="cls-3" d="M690.69,55.39h2.8L696.14,60q2.64-5.76,5.29-11.53l4,6.92,1.32-4.61,4,10.38L712,55.39h5.29"/><rect class="cls-2" x="14.43" y="260.98" width="3.25" height="6.22" rx="0.98"/><line class="cls-1" x1="16.05" y1="257.43" x2="16.05" y2="260.98"/><rect class="cls-2" x="36.38" y="260.98" width="3.25" height="6.22" rx="0.98"/><line class="cls-1" x1="38" y1="257.43" x2="38" y2="260.98"/><line class="cls-1" x1="10.36" y1="258.32" x2="21.74" y2="258.32"/><line class="cls-1" x1="32.31" y1="258.32" x2="43.7" y2="258.32"/><line class="cls-1" x1="17.68" y1="263.65" x2="21.74" y2="263.65"/><line class="cls-1" x1="32.31" y1="263.65" x2="36.38" y2="263.65"/><path class="cls-1" d="M27.72,265.81H23.54a1.89,1.89,0,0,1-1.8-2h0a1.89,1.89,0,0,1,1.8-2h7a1.89,1.89,0,0,1,1.8,2h0a1.89,1.89,0,0,1-1.8,2h-.79"/><path class="cls-5" d="M29.87,266.32v2.45a1.05,1.05,0,0,1-1,1.1H25.19a1.05,1.05,0,0,1-1-1.1v-2.45"/><path class="cls-2" d="M24.18,268.09c-.28.26-1.62,0-2,1.34l-2,6.66"/><line class="cls-1" x1="18.49" y1="276.09" x2="21.74" y2="276.09"/><path class="cls-2" d="M29.87,268.09c.29.26,1.63,0,2,1.34l2,6.66"/><line class="cls-1" x1="35.57" y1="276.09" x2="32.31" y2="276.09"/><path class="cls-1" d="M21.23,255a6.83,6.83,0,0,1,12.12-.07"/><path class="cls-1" d="M23.65,256.06a4.1,4.1,0,0,1,7.28,0"/><rect class="cls-2" x="12.4" y="100.81" width="26.82" height="21.59" rx="2"/><ellipse class="cls-2" cx="25.81" cy="108.25" rx="2.82" ry="2.98"/><path class="cls-2" d="M19.11,120.91a6.71,6.71,0,0,1,13.41,0"/><line class="cls-2" x1="12.5" y1="125.67" x2="39.12" y2="125.67"/><rect class="cls-2" x="13.15" y="162.19" width="29.51" height="9.71" rx="2.02"/><ellipse class="cls-2" cx="18.03" cy="167.05" rx="1.2" ry="1.39"/><line class="cls-1" x1="24.07" y1="166.81" x2="39.38" y2="166.81"/><rect class="cls-2" x="13.15" y="174.62" width="29.51" height="9.71" rx="2.02"/><ellipse class="cls-2" cx="18.03" cy="179.48" rx="1.2" ry="1.39"/><line class="cls-1" x1="24.07" y1="179.24" x2="39.38" y2="179.24"/><path class="cls-2" d="M16.73,195.5c1.59,1,5.16,2.29,10.12,2.29s9.16-1.25,10.5-2.5"/><path class="cls-2" d="M16.73,201.65c1.59,1,5.16,2.29,10.12,2.29s9.16-1.25,10.5-2.5"/><path class="cls-2" d="M16.73,207.8c1.59,1,5.16,2.29,10.12,2.29s9.16-1.25,10.5-2.51"/><path class="cls-6" d="M26.94,192.5c5.22,0,8.84,1.46,9.94,2.39V195l0,.11v18.17c-.41.72-4.28,2.4-10,2.4-5.23,0-8.85-1.46-9.94-2.4V195.13h0V195l0-.13c.4-.72,4.27-2.4,10-2.4m0-1c-5.42,0-10,1.53-10.83,2.91a.93.93,0,0,0-.1.59.49.49,0,0,0,0,.12v18.24a.92.92,0,0,0,.3.68c1.21,1.08,5,2.68,10.64,2.68,5.42,0,10.06-1.53,10.83-2.91a1,1,0,0,0,.12-.45V195.12a.5.5,0,0,0,0-.12.88.88,0,0,0-.29-.82c-1.21-1.08-5-2.68-10.64-2.68Z"/><line class="cls-7" x1="57.08" y1="90.06" x2="110.86" y2="157.08"/><polygon class="cls-8" points="106.91 157.06 107.02 156.32 110.68 156.86 110.95 153.17 111.69 153.22 111.37 157.72 106.91 157.06"/><polyline class="cls-3" points="717.39 119.66 690.06 119.66 690.06 94.7"/><path class="cls-3" d="M692.21,117.44c.69-2.74,1.39-5.47,2.09-8.21l1.05,3.08,2.09-8.21,4.19,11.28,2.1-6.15c.34,1.37.69,2.74,1,4.1q2.1-6.15,4.19-12.31l2.1,5.13L714.2,99l1-2"/><path class="cls-9" d="M16.16,132.37v3.82c0,1.44.64,2.05,1.5,2.05s1.57-.63,1.57-2.05v-3.82h.84v3.76c0,2-1,2.79-2.44,2.79s-2.31-.76-2.31-2.75v-3.8Z"/><path class="cls-9" d="M21.32,138a2.08,2.08,0,0,0,1.1.34c.62,0,.9-.31.9-.69s-.24-.62-.86-.85c-.83-.3-1.22-.75-1.22-1.31a1.43,1.43,0,0,1,1.59-1.36,2.35,2.35,0,0,1,1.14.29l-.21.61a1.82,1.82,0,0,0-.94-.26c-.5,0-.78.28-.78.63s.28.55.88.78c.8.31,1.21.71,1.21,1.39s-.63,1.39-1.73,1.39a2.51,2.51,0,0,1-1.29-.32Z"/><path class="cls-9" d="M25.68,136.65a1.49,1.49,0,0,0,1.59,1.61,2.93,2.93,0,0,0,1.28-.24l.14.6a3.59,3.59,0,0,1-1.53.29,2.15,2.15,0,0,1-2.28-2.33,2.25,2.25,0,0,1,2.17-2.5A2,2,0,0,1,29,136.26a2.79,2.79,0,0,1,0,.39Zm2.47-.6A1.19,1.19,0,0,0,27,134.69a1.39,1.39,0,0,0-1.29,1.36Z"/><path class="cls-9" d="M30,135.63c0-.54,0-1,0-1.44h.73l0,.91h0a1.4,1.4,0,0,1,1.28-1,.88.88,0,0,1,.24,0v.8a1.23,1.23,0,0,0-.29,0A1.17,1.17,0,0,0,30.88,136a2.23,2.23,0,0,0,0,.39v2.46H30Z"/><path class="cls-9" d="M33,138a2.14,2.14,0,0,0,1.11.34c.61,0,.9-.31.9-.69s-.24-.62-.86-.85c-.84-.3-1.23-.75-1.23-1.31a1.43,1.43,0,0,1,1.6-1.36,2.35,2.35,0,0,1,1.14.29l-.22.61a1.82,1.82,0,0,0-.94-.26c-.5,0-.78.28-.78.63s.28.55.88.78c.81.31,1.22.71,1.22,1.39s-.63,1.39-1.73,1.39a2.52,2.52,0,0,1-1.3-.32Z"/><path class="cls-9" d="M11.37,227.71a2.91,2.91,0,0,0,1.49.42c.85,0,1.35-.45,1.35-1.1s-.35-.95-1.22-1.28c-1.05-.37-1.7-.92-1.7-1.83a1.85,1.85,0,0,1,2.08-1.74,3,3,0,0,1,1.43.31l-.23.68a2.5,2.5,0,0,0-1.23-.31c-.87,0-1.21.53-1.21,1,0,.6.39.9,1.28,1.24,1.09.42,1.65,1,1.65,1.89s-.74,1.86-2.26,1.86a3.3,3.3,0,0,1-1.64-.41Z"/><path class="cls-9" d="M16.4,224.1l1,2.73c.1.31.22.67.3.95h0c.09-.28.19-.63.3-1l.92-2.71h.89l-1.26,3.29a7.19,7.19,0,0,1-1.59,2.9,2.2,2.2,0,0,1-1,.54l-.21-.7a2.28,2.28,0,0,0,.73-.41,2.62,2.62,0,0,0,.71-.94.59.59,0,0,0,.07-.2.66.66,0,0,0-.06-.22l-1.71-4.26Z"/><path class="cls-9" d="M20.42,227.86a2.24,2.24,0,0,0,1.11.34c.61,0,.9-.31.9-.69s-.24-.62-.86-.85c-.83-.3-1.22-.76-1.22-1.31A1.42,1.42,0,0,1,21.94,224a2.35,2.35,0,0,1,1.14.29l-.21.61a1.85,1.85,0,0,0-.95-.27c-.5,0-.77.29-.77.63s.27.56.88.79c.8.3,1.21.7,1.21,1.39s-.63,1.39-1.73,1.39a2.66,2.66,0,0,1-1.3-.32Z"/><path class="cls-9" d="M25.34,222.77v1.33h1.2v.64h-1.2v2.49c0,.57.16.9.63.9a1.7,1.7,0,0,0,.48-.06l0,.63a2,2,0,0,1-.74.12,1.16,1.16,0,0,1-.91-.36,1.69,1.69,0,0,1-.33-1.2v-2.52H23.8v-.64h.71V223Z"/><path class="cls-9" d="M27.9,226.56a1.48,1.48,0,0,0,1.58,1.61,3.14,3.14,0,0,0,1.29-.24l.14.6a3.81,3.81,0,0,1-1.54.29,2.15,2.15,0,0,1-2.27-2.33,2.25,2.25,0,0,1,2.16-2.5,2,2,0,0,1,1.92,2.18,2.94,2.94,0,0,1,0,.39Zm2.46-.6a1.2,1.2,0,0,0-1.16-1.37A1.39,1.39,0,0,0,27.91,226Z"/><path class="cls-9" d="M32.22,225.35c0-.48,0-.87,0-1.25h.74l0,.74h0a1.57,1.57,0,0,1,1.45-.85,1.36,1.36,0,0,1,1.31.93h0a1.8,1.8,0,0,1,.51-.6,1.58,1.58,0,0,1,1-.33c.62,0,1.52.4,1.52,2v2.72H38V226.1c0-.89-.32-1.42-1-1.42a1.08,1.08,0,0,0-1,.76,1.37,1.37,0,0,0-.07.42v2.86h-.82V226c0-.74-.33-1.27-1-1.27a1.15,1.15,0,0,0-1,.84,1.1,1.1,0,0,0-.07.41v2.79h-.82Z"/><path class="cls-9" d="M40.08,227.86a2.24,2.24,0,0,0,1.11.34c.61,0,.9-.31.9-.69s-.24-.62-.86-.85c-.83-.3-1.23-.76-1.23-1.31A1.43,1.43,0,0,1,41.6,224a2.35,2.35,0,0,1,1.14.29l-.21.61a1.85,1.85,0,0,0-1-.27c-.5,0-.77.29-.77.63s.27.56.88.79c.8.3,1.21.7,1.21,1.39s-.63,1.39-1.73,1.39a2.63,2.63,0,0,1-1.3-.32Z"/><path class="cls-9" d="M20.89,313.59V320h-.83v-6.44Z"/><path class="cls-9" d="M26.5,317.68a2.27,2.27,0,0,1-2.3,2.46A2.2,2.2,0,0,1,22,317.76a2.26,2.26,0,0,1,2.29-2.46A2.19,2.19,0,0,1,26.5,317.68Zm-3.67.05c0,1,.58,1.77,1.4,1.77s1.41-.75,1.41-1.79c0-.79-.39-1.78-1.39-1.78S22.83,316.85,22.83,317.73Z"/><path class="cls-9" d="M28.43,314.3h-2v-.71h4.77v.71h-2V320h-.84Z"/><circle class="cls-10" cx="149.06" cy="185.65" r="21"/><ellipse class="cls-11" cx="146.32" cy="199.07" rx="1.47" ry="1.49"/><ellipse class="cls-11" cx="141.67" cy="179.23" rx="1.47" ry="1.49"/><ellipse class="cls-11" cx="141.67" cy="193.27" rx="1.47" ry="1.49"/><ellipse class="cls-11" cx="139.62" cy="186.25" rx="1.47" ry="1.49"/><rect class="cls-12" x="153.98" y="185.1" width="11.17" height="2.3" transform="translate(-26.69 345.81) rotate(-90)"/><ellipse class="cls-11" cx="146.07" cy="173.5" rx="1.47" ry="1.49"/><path class="cls-11" d="M155.21,181.61l-6.11-5.22"/><path class="cls-11" d="M154.2,184.46l-9.34-3.8"/><path class="cls-11" d="M149.1,196.65l6.11-5.22"/><path class="cls-11" d="M144.86,192.36l9.34-3.8"/><path class="cls-11" d="M144.08,186.66l10,0"/><ellipse class="cls-11" cx="595.41" cy="197.77" rx="1.47" ry="1.49"/><ellipse class="cls-11" cx="600.06" cy="177.93" rx="1.47" ry="1.49"/><ellipse class="cls-11" cx="600.06" cy="191.97" rx="1.47" ry="1.49"/><ellipse class="cls-11" cx="602.11" cy="184.95" rx="1.47" ry="1.49"/><rect class="cls-12" x="576.58" y="183.8" width="11.17" height="2.3" transform="translate(397.23 767.12) rotate(-90)"/><ellipse class="cls-11" cx="595.66" cy="172.2" rx="1.47" ry="1.49"/><path class="cls-11" d="M586.53,180.31l6.11-5.22"/><path class="cls-11" d="M587.53,183.16l9.35-3.8"/><path class="cls-11" d="M592.64,195.35l-6.11-5.22"/><path class="cls-11" d="M596.88,191.06l-9.35-3.8"/><path class="cls-11" d="M597.66,185.36l-10,0"/><line class="cls-7" x1="57.09" y1="121.64" x2="107.04" y2="168.68"/><polygon class="cls-8" points="103.13 169.21 103.13 168.45 106.83 168.48 106.58 164.79 107.33 164.74 107.63 169.23 103.13 169.21"/><line class="cls-7" x1="59.85" y1="174.73" x2="101.9" y2="181"/><polygon class="cls-8" points="98.99 183.67 98.56 183.05 101.61 180.96 99.31 178.07 99.89 177.6 102.7 181.12 98.99 183.67"/><line class="cls-7" x1="57.52" y1="201.7" x2="104.14" y2="195.63"/><polygon class="cls-8" points="102.07 198.99 101.49 198.51 103.85 195.66 100.84 193.52 101.28 192.91 104.94 195.52 102.07 198.99"/><line class="cls-7" x1="60.41" y1="304.7" x2="115.53" y2="225.22"/><polygon class="cls-8" points="116.63 229.01 115.89 229.12 115.36 225.46 111.75 226.25 111.59 225.51 115.99 224.55 116.63 229.01"/><line class="cls-7" x1="61.06" y1="265.89" x2="108.52" y2="212.78"/><polygon class="cls-8" points="109.15 216.68 108.4 216.7 108.33 213 104.64 213.34 104.58 212.59 109.06 212.18 109.15 216.68"/><circle class="cls-10" cx="591.27" cy="185.65" r="21"/><path class="cls-13" d="M451.73,212a11.27,11.27,0,0,1,2.06-.17,3.39,3.39,0,0,1,2.4.68,2,2,0,0,1,.65,1.57,2.17,2.17,0,0,1-1.56,2.12v0a2.07,2.07,0,0,1,1.22,1.67,12.42,12.42,0,0,0,.64,2.28H456a10.66,10.66,0,0,1-.56-2c-.24-1.15-.69-1.58-1.66-1.61h-1v3.59h-1.07Zm1.07,3.78h1.1c1.14,0,1.87-.63,1.87-1.57s-.78-1.54-1.91-1.56a4.32,4.32,0,0,0-1.06.1Z"/><path class="cls-13" d="M459,217.42a1.91,1.91,0,0,0,2,2.07,3.91,3.91,0,0,0,1.65-.31l.19.78a4.88,4.88,0,0,1-2,.37,2.78,2.78,0,0,1-2.94-3c0-1.8,1.06-3.21,2.8-3.21a2.52,2.52,0,0,1,2.46,2.8,5,5,0,0,1,0,.51Zm3.18-.78a1.55,1.55,0,0,0-1.51-1.76,1.8,1.8,0,0,0-1.66,1.76Z"/><path class="cls-13" d="M467.83,220.2l-.08-.75h0a2.21,2.21,0,0,1-1.82.89,1.7,1.7,0,0,1-1.83-1.71c0-1.44,1.29-2.23,3.59-2.22v-.12a1.23,1.23,0,0,0-1.36-1.38,3,3,0,0,0-1.55.44l-.24-.71a3.58,3.58,0,0,1,1.95-.53c1.83,0,2.27,1.24,2.27,2.43v2.23a7.76,7.76,0,0,0,.1,1.43Zm-.16-3c-1.18,0-2.52.19-2.52,1.34a1,1,0,0,0,1,1,1.47,1.47,0,0,0,1.44-1,1,1,0,0,0,.06-.34Z"/><path class="cls-13" d="M474.72,220a4,4,0,0,1-1.72.35,2.83,2.83,0,0,1-3-3.05,3,3,0,0,1,3.2-3.16,3.55,3.55,0,0,1,1.5.31l-.25.83a2.55,2.55,0,0,0-1.25-.28,2.25,2.25,0,0,0,0,4.48,3.16,3.16,0,0,0,1.33-.29Z"/><path class="cls-13" d="M477.45,212.53v1.71H479v.83h-1.55v3.21c0,.74.21,1.16.81,1.16a2.89,2.89,0,0,0,.63-.07l.05.81a2.78,2.78,0,0,1-1,.15,1.48,1.48,0,0,1-1.17-.46,2.2,2.2,0,0,1-.42-1.55v-3.25h-.93v-.83h.93v-1.43Z"/><circle class="cls-14" cx="257.61" cy="185.65" r="21"/><path class="cls-15" d="M571.56,346.86h1v6.83h3.28v.83h-4.27Z"/><path class="cls-15" d="M581.71,351.72a2.69,2.69,0,0,1-2.74,2.93,2.62,2.62,0,0,1-2.64-2.84,2.69,2.69,0,0,1,2.73-2.92A2.6,2.6,0,0,1,581.71,351.72Zm-4.36.06c0,1.21.69,2.12,1.67,2.12s1.67-.9,1.67-2.14c0-.94-.47-2.12-1.65-2.12S577.35,350.73,577.35,351.78Z"/><path class="cls-15" d="M588,351.72a2.69,2.69,0,0,1-2.74,2.93,2.62,2.62,0,0,1-2.64-2.84,2.69,2.69,0,0,1,2.73-2.92A2.6,2.6,0,0,1,588,351.72Zm-4.36.06c0,1.21.69,2.12,1.67,2.12s1.67-.9,1.67-2.14c0-.94-.47-2.12-1.65-2.12S583.59,350.73,583.59,351.78Z"/><path class="cls-15" d="M590.2,351.54h0c.14-.19.33-.43.49-.62l1.62-1.9h1.2l-2.12,2.26,2.42,3.24h-1.22l-1.9-2.64-.51.57v2.07h-1v-8.07h1Z"/><path class="cls-15" d="M594.69,354.52c0-.37,0-.93,0-1.42v-6.65h1v3.45h0a2.06,2.06,0,0,1,1.88-1c1.36,0,2.33,1.14,2.32,2.81,0,2-1.24,2.95-2.47,2.95a2,2,0,0,1-1.84-1h0l0,.91Zm1-2.21a2.21,2.21,0,0,0,0,.37,1.56,1.56,0,0,0,1.5,1.17c1.05,0,1.68-.85,1.68-2.12,0-1.1-.57-2-1.64-2a1.6,1.6,0,0,0-1.53,1.23,2.18,2.18,0,0,0,0,.4Z"/><path class="cls-15" d="M604.25,354.52l-.08-.69h0a2.06,2.06,0,0,1-1.68.82,1.58,1.58,0,0,1-1.69-1.59c0-1.33,1.19-2.05,3.31-2v-.12a1.13,1.13,0,0,0-1.25-1.27,2.75,2.75,0,0,0-1.43.41l-.23-.66a3.41,3.41,0,0,1,1.81-.49c1.68,0,2.09,1.15,2.09,2.25v2.06a7.53,7.53,0,0,0,.09,1.32Zm-.14-2.81c-1.1,0-2.34.17-2.34,1.24a.89.89,0,0,0,1,1,1.38,1.38,0,0,0,1.33-.92,1.28,1.28,0,0,0,.06-.32Z"/><path class="cls-15" d="M610.61,354.32a3.8,3.8,0,0,1-1.58.31,2.61,2.61,0,0,1-2.74-2.8,2.8,2.8,0,0,1,3-2.93,3.29,3.29,0,0,1,1.39.29l-.23.77a2.28,2.28,0,0,0-1.16-.26,2.08,2.08,0,0,0,0,4.14,3,3,0,0,0,1.23-.27Z"/><path class="cls-15" d="M612.77,351.54h0c.13-.19.33-.43.49-.62l1.61-1.9h1.21L614,351.28l2.42,3.24h-1.21l-1.9-2.64-.51.57v2.07h-1v-8.07h1Z"/><circle class="cls-11" cx="592.96" cy="319.31" r="21"/><line class="cls-11" x1="587.6" y1="312.15" x2="590.37" y2="312.15"/><line class="cls-11" x1="588.74" y1="313.8" x2="594.27" y2="313.8"/><line class="cls-11" x1="588.74" y1="315.58" x2="594.27" y2="315.58"/><line class="cls-11" x1="587.6" y1="317.36" x2="591.85" y2="317.36"/><path class="cls-11" d="M595.94,319.31l8,4.95"/><circle class="cls-11" cx="590.93" cy="314.76" r="6.75"/><path class="cls-11" d="M604.49,327.46H585.18"/><polygon class="cls-15" points="587.17 325.77 585.48 327.46 587.17 329.16 585.73 329.16 584.04 327.46 585.73 325.77 587.17 325.77"/><path class="cls-10" d="M520.45,330.29v20.93a6.41,6.41,0,0,1-6.42,6.42H202.94a6.41,6.41,0,0,1-6.42-6.42v-53.7a6.42,6.42,0,0,1,6.42-6.42H514a6.42,6.42,0,0,1,6.42,6.42v19.2"/><path class="cls-2" d="M692.9,148.35c1.7,1.11,5.52,2.44,10.81,2.44s9.78-1.33,11.22-2.67"/><path class="cls-2" d="M692.9,154.92c1.7,1.11,5.52,2.44,10.81,2.44s9.78-1.33,11.22-2.67"/><path class="cls-2" d="M692.9,161.49c1.7,1.11,5.52,2.44,10.81,2.44s9.78-1.33,11.22-2.67"/><path class="cls-6" d="M703.81,145.08c5.66,0,9.57,1.6,10.69,2.59l0,.13,0,.14v19.48c-.49.88-4.71,2.59-10.69,2.59-5.66,0-9.57-1.6-10.69-2.59V148l-1-.11,1,.06,0-.14,0-.13c.49-.88,4.71-2.59,10.69-2.59m0-1c-5.79,0-10.74,1.63-11.57,3.1a1,1,0,0,0-.11.64.49.49,0,0,0,0,.12v19.48a1,1,0,0,0,.32.73c1.29,1.15,5.39,2.86,11.37,2.86,5.79,0,10.74-1.63,11.56-3.1a1,1,0,0,0,.13-.49V147.94s0-.09,0-.13a1,1,0,0,0-.31-.87c-1.29-1.15-5.39-2.86-11.37-2.86Z"/><line class="cls-7" x1="178.47" y1="185.81" x2="224.35" y2="185.81"/><polygon class="cls-8" points="221.87 188.88 221.35 188.33 224.06 185.82 221.35 183.3 221.87 182.75 225.16 185.82 221.87 188.88"/><path class="cls-10" d="M334.87,110.85H216.28c-9.82,0-17.78,4.66-17.78,10.4v57.59"/><path class="cls-10" d="M508.93,179.37v-58c0-5.79-7.77-10.48-17.35-10.48H391"/><path class="cls-10" d="M508.93,193.22v53.22c0,5.85-5.09,10.59-11.37,10.59H209.86c-6.28,0-11.36-4.74-11.36-10.59V192.79"/><line class="cls-7" x1="390.95" y1="184.61" x2="431.94" y2="184.61"/><polygon class="cls-8" points="429.45 187.67 428.94 187.12 431.65 184.61 428.94 182.09 429.45 181.54 432.75 184.61 429.45 187.67"/><line class="cls-7" x1="496.71" y1="183.37" x2="559.95" y2="183.37"/><polygon class="cls-8" points="557.46 186.44 556.95 185.89 559.66 183.37 556.95 180.85 557.46 180.31 560.76 183.37 557.46 186.44"/><line class="cls-7" x1="629.94" y1="323.98" x2="676.07" y2="323.98"/><polygon class="cls-8" points="673.58 327.04 673.07 326.49 675.78 323.98 673.07 321.46 673.58 320.91 676.88 323.98 673.58 327.04"/><path class="cls-9" d="M683,180.45a3.07,3.07,0,0,0,1.59.45c.91,0,1.44-.48,1.44-1.17s-.37-1-1.3-1.37c-1.12-.4-1.82-1-1.82-2a2,2,0,0,1,2.23-1.87,3.15,3.15,0,0,1,1.52.34l-.24.73a2.69,2.69,0,0,0-1.31-.33c-.94,0-1.3.56-1.3,1,0,.64.42,1,1.37,1.33,1.16.45,1.76,1,1.76,2s-.79,2-2.41,2a3.62,3.62,0,0,1-1.76-.44Z"/><path class="cls-9" d="M688.11,177.93c0-.51,0-.93,0-1.33h.8l0,.81h0a1.83,1.83,0,0,1,1.63-.93c.69,0,1.75.41,1.75,2.11v2.95h-.9v-2.85c0-.8-.3-1.46-1.14-1.46a1.31,1.31,0,0,0-1.27,1.34v3h-.9Z"/><path class="cls-9" d="M698.25,179a2.41,2.41,0,0,1-2.46,2.62,2.35,2.35,0,0,1-2.36-2.54,2.41,2.41,0,0,1,2.45-2.63A2.34,2.34,0,0,1,698.25,179Zm-3.92.05c0,1.08.63,1.9,1.5,1.9s1.5-.81,1.5-1.92c0-.84-.41-1.9-1.47-1.9S694.33,178.14,694.33,179.08Z"/><path class="cls-9" d="M699.68,176.6l.65,2.51c.14.55.27,1.06.37,1.57h0c.11-.5.27-1,.44-1.56l.8-2.52h.76l.76,2.47c.19.59.33,1.11.44,1.61h0c.09-.5.22-1,.38-1.6l.7-2.48h.89l-1.59,4.94h-.82l-.75-2.36a16.75,16.75,0,0,1-.44-1.62h0a14.86,14.86,0,0,1-.45,1.63l-.8,2.35h-.81l-1.49-4.94Z"/><path class="cls-9" d="M706.87,174.66h3.7v.74h-2.82v2.29h2.61v.73h-2.61v3.12h-.88Z"/><path class="cls-9" d="M711.64,174.29h.89v7.25h-.89Z"/><path class="cls-9" d="M716.78,181.54l-.07-.63h0a1.83,1.83,0,0,1-1.51.74,1.41,1.41,0,0,1-1.51-1.42c0-1.19,1.06-1.85,3-1.84v-.1a1,1,0,0,0-1.12-1.14,2.52,2.52,0,0,0-1.29.36l-.2-.59a3.09,3.09,0,0,1,1.62-.44c1.51,0,1.88,1,1.88,2v1.85a7.19,7.19,0,0,0,.08,1.19Zm-.13-2.52c-1,0-2.09.15-2.09,1.11a.79.79,0,0,0,.84.86,1.23,1.23,0,0,0,1.2-.83,1,1,0,0,0,0-.29Z"/><path class="cls-9" d="M719.86,178.86h0c.12-.17.29-.39.44-.56l1.45-1.7h1.08l-1.91,2,2.17,2.91H722l-1.7-2.37-.46.51v1.86H719v-7.25h.89Z"/><path class="cls-9" d="M724.26,179.23a1.58,1.58,0,0,0,1.69,1.71,3.27,3.27,0,0,0,1.37-.25l.16.64a3.91,3.91,0,0,1-1.65.31,2.29,2.29,0,0,1-2.43-2.49,2.41,2.41,0,0,1,2.32-2.67,2.1,2.1,0,0,1,2,2.33,3.52,3.52,0,0,1,0,.42Zm2.63-.64a1.27,1.27,0,0,0-1.24-1.46,1.48,1.48,0,0,0-1.38,1.46Z"/><line class="cls-4" x1="692.72" y1="320.44" x2="697.39" y2="320.44"/><line class="cls-4" x1="692.72" y1="323.1" x2="699.73" y2="323.1"/><line class="cls-4" x1="692.72" y1="325.77" x2="703.94" y2="325.77"/><line class="cls-4" x1="692.72" y1="328.44" x2="700.98" y2="328.44"/><line class="cls-4" x1="692.72" y1="331.11" x2="700.98" y2="331.11"/><line class="cls-4" x1="692.72" y1="333.78" x2="696.62" y2="333.78"/><path class="cls-4" d="M707.11,320.78V335.1a1.52,1.52,0,0,1-1.52,1.51H691.76a1.52,1.52,0,0,1-1.52-1.51V319a1.52,1.52,0,0,1,1.52-1.51H702.3Z"/><polyline class="cls-4" points="702.05 317.55 702.05 320.88 707.11 320.88"/><path class="cls-4" d="M700.61,316.17v-6.46a1.51,1.51,0,0,1,1.52-1.51h10.54l4.81,3.28V325.8a1.52,1.52,0,0,1-1.52,1.51h-7.1"/><polyline class="cls-4" points="712.42 308.25 712.42 311.57 717.48 311.57"/><line class="cls-4" x1="703" y1="310.95" x2="707.67" y2="310.95"/><line class="cls-4" x1="703" y1="313.62" x2="710.01" y2="313.62"/><line class="cls-4" x1="704.57" y1="316.29" x2="714.27" y2="316.29"/><line class="cls-4" x1="708.66" y1="318.95" x2="711.78" y2="318.95"/><line class="cls-4" x1="709.29" y1="321.62" x2="714.27" y2="321.62"/><path class="cls-9" d="M692.74,230.74a3.2,3.2,0,0,0,1.59.45c.91,0,1.44-.48,1.44-1.18s-.37-1-1.29-1.36c-1.13-.4-1.82-1-1.82-2a2,2,0,0,1,2.22-1.87,3.08,3.08,0,0,1,1.53.34l-.25.72a2.74,2.74,0,0,0-1.31-.33c-.94,0-1.29.57-1.29,1,0,.65.42,1,1.37,1.33,1.16.45,1.75,1,1.75,2s-.78,2-2.41,2a3.47,3.47,0,0,1-1.75-.44Z"/><path class="cls-9" d="M697.87,228.49c0-.63,0-1.14,0-1.61h.8l0,.85h0a2,2,0,0,1,1.76-1,2.23,2.23,0,0,1,2.09,2.51c0,1.78-1.08,2.65-2.24,2.65a1.71,1.71,0,0,1-1.52-.77h0v2.68h-.89Zm.89,1.32a2.1,2.1,0,0,0,0,.37,1.38,1.38,0,0,0,1.34,1c1,0,1.51-.78,1.51-1.91s-.53-1.84-1.48-1.84a1.56,1.56,0,0,0-1.41,1.48Z"/><path class="cls-9" d="M706.42,231.82l-.08-.62h0a1.81,1.81,0,0,1-1.51.73,1.41,1.41,0,0,1-1.51-1.42c0-1.19,1.06-1.84,3-1.83v-.1a1,1,0,0,0-1.12-1.15,2.43,2.43,0,0,0-1.29.37l-.2-.59a3,3,0,0,1,1.62-.44c1.51,0,1.88,1,1.88,2v1.85a7.06,7.06,0,0,0,.08,1.18Zm-.14-2.52c-1,0-2.09.15-2.09,1.11a.8.8,0,0,0,.85.86,1.22,1.22,0,0,0,1.19-.83.92.92,0,0,0,0-.28Z"/><path class="cls-9" d="M708.6,228.42c0-.58,0-1.08,0-1.54h.79l0,1h0a1.48,1.48,0,0,1,1.37-1.08,1,1,0,0,1,.25,0v.85a1.32,1.32,0,0,0-.3,0,1.26,1.26,0,0,0-1.21,1.15,2.5,2.5,0,0,0,0,.42v2.63h-.89Z"/><path class="cls-9" d="M712.87,229.15h0c.12-.18.3-.39.44-.56l1.45-1.71h1.08l-1.91,2,2.18,2.91H715l-1.71-2.37-.46.51v1.86H712v-7.25h.89Z"/><path class="cls-9" d="M686.35,126.75a12.93,12.93,0,0,1,1.89-.14,4,4,0,0,1,2.79.86,3.18,3.18,0,0,1,1,2.47,3.64,3.64,0,0,1-1,2.67,4.24,4.24,0,0,1-3,1,14.62,14.62,0,0,1-1.61-.08Zm.89,6.09a5.69,5.69,0,0,0,.9,0,2.64,2.64,0,0,0,2.93-2.92,2.46,2.46,0,0,0-2.79-2.66,5,5,0,0,0-1,.1Z"/><path class="cls-9" d="M695.86,133.54l-.07-.62h0a1.85,1.85,0,0,1-1.52.73,1.4,1.4,0,0,1-1.51-1.41c0-1.2,1.07-1.85,3-1.84v-.1a1,1,0,0,0-1.12-1.15,2.46,2.46,0,0,0-1.28.37l-.21-.59a3,3,0,0,1,1.62-.44c1.52,0,1.88,1,1.88,2v1.85a7.06,7.06,0,0,0,.08,1.18Zm-.14-2.52c-1,0-2.09.15-2.09,1.11a.8.8,0,0,0,.85.86,1.22,1.22,0,0,0,1.19-.83.92.92,0,0,0,.05-.28Z"/><path class="cls-9" d="M699.09,127.18v1.42h1.28v.68h-1.28V132c0,.61.17,1,.67,1a2,2,0,0,0,.52-.06l0,.67a2.24,2.24,0,0,1-.8.12,1.24,1.24,0,0,1-1-.37,1.83,1.83,0,0,1-.35-1.29v-2.7h-.77v-.68h.77v-1.18Z"/><path class="cls-9" d="M704.12,133.54l-.07-.62h0a1.84,1.84,0,0,1-1.51.73,1.4,1.4,0,0,1-1.51-1.41c0-1.2,1.06-1.85,3-1.84v-.1a1,1,0,0,0-1.13-1.15,2.52,2.52,0,0,0-1.28.37l-.21-.59a3,3,0,0,1,1.63-.44c1.51,0,1.88,1,1.88,2v1.85a7.06,7.06,0,0,0,.08,1.18ZM704,131c-1,0-2.09.15-2.09,1.11a.79.79,0,0,0,.84.86,1.24,1.24,0,0,0,1.2-.83.92.92,0,0,0,0-.28Z"/><path class="cls-9" d="M706.34,126.75a12.93,12.93,0,0,1,1.89-.14,3.93,3.93,0,0,1,2.78.86,3.14,3.14,0,0,1,1,2.47,3.6,3.6,0,0,1-1,2.67,4.19,4.19,0,0,1-3,1,14.62,14.62,0,0,1-1.61-.08Zm.89,6.09a5.63,5.63,0,0,0,.89,0,2.64,2.64,0,0,0,2.93-2.92,2.45,2.45,0,0,0-2.78-2.66,5,5,0,0,0-1,.1Z"/><path class="cls-9" d="M717.62,131a2.41,2.41,0,0,1-2.46,2.62,2.35,2.35,0,0,1-2.37-2.54,2.42,2.42,0,0,1,2.45-2.62A2.34,2.34,0,0,1,717.62,131Zm-3.92.05c0,1.08.62,1.9,1.5,1.9s1.5-.81,1.5-1.92c0-.84-.42-1.9-1.48-1.9S713.7,130.14,713.7,131.08Z"/><path class="cls-9" d="M723,128.6c0,.36,0,.76,0,1.36v2.87a2.83,2.83,0,0,1-.7,2.25,2.62,2.62,0,0,1-1.8.6,3.24,3.24,0,0,1-1.64-.41l.22-.69a2.75,2.75,0,0,0,1.45.39c.92,0,1.6-.48,1.6-1.72v-.56h0a1.78,1.78,0,0,1-1.58.83,2.21,2.21,0,0,1-2.1-2.41,2.37,2.37,0,0,1,2.23-2.62,1.65,1.65,0,0,1,1.54.86h0l0-.75Zm-.93,2a1.31,1.31,0,0,0-1.31-1.36c-.86,0-1.47.73-1.47,1.87,0,1,.49,1.78,1.46,1.78a1.31,1.31,0,0,0,1.24-.92,1.34,1.34,0,0,0,.08-.48Z"/><path class="cls-9" d="M695.52,345.36l-.71,2.16h-.92l2.34-6.88h1.07l2.35,6.88h-.95l-.74-2.16Zm2.26-.69-.68-2c-.15-.45-.25-.86-.35-1.26h0c-.11.41-.22.83-.35,1.25l-.67,2Z"/><path class="cls-9" d="M704.64,346.18c0,.51,0,1,0,1.34h-.79l-.06-.8h0a1.84,1.84,0,0,1-1.63.92c-.78,0-1.7-.43-1.7-2.17v-2.89h.89v2.74c0,.94.29,1.57,1.11,1.57a1.26,1.26,0,0,0,1.26-1.27v-3h.9Z"/><path class="cls-9" d="M710.4,340.28v6c0,.44,0,.94,0,1.27h-.8l0-.85h0a1.81,1.81,0,0,1-1.68,1,2.25,2.25,0,0,1-2.11-2.51,2.36,2.36,0,0,1,2.21-2.66,1.64,1.64,0,0,1,1.49.76h0v-3Zm-.9,4.31a1.55,1.55,0,0,0,0-.37,1.31,1.31,0,0,0-1.29-1c-.93,0-1.48.81-1.48,1.9s.49,1.83,1.46,1.83a1.34,1.34,0,0,0,1.31-1.07,1.61,1.61,0,0,0,0-.39Z"/><path class="cls-9" d="M712.9,341.19a.56.56,0,1,1-1.12,0,.55.55,0,0,1,.56-.56A.54.54,0,0,1,712.9,341.19Zm-1,6.33v-4.94h.89v4.94Z"/><path class="cls-9" d="M715.37,341.16v1.42h1.28v.69h-1.28v2.66c0,.61.17,1,.67,1a2,2,0,0,0,.52-.06l0,.67a2,2,0,0,1-.79.13,1.26,1.26,0,0,1-1-.38,1.83,1.83,0,0,1-.35-1.29v-2.69h-.77v-.69h.77V341.4Z"/><line class="cls-7" x1="613.4" y1="155.3" x2="669.97" y2="82.82"/><polygon class="cls-8" points="670.86 86.67 670.11 86.73 669.79 83.05 666.14 83.63 666.02 82.89 670.47 82.18 670.86 86.67"/><line class="cls-7" x1="628.52" y1="169.13" x2="674.24" y2="127.9"/><polygon class="cls-8" points="674.45 131.84 673.7 131.78 674.02 128.1 670.33 128.04 670.34 127.29 674.84 127.36 674.45 131.84"/><line class="cls-7" x1="632.02" y1="182.52" x2="676.12" y2="165.5"/><polygon class="cls-8" points="674.91 169.25 674.23 168.92 675.85 165.6 672.42 164.23 672.7 163.53 676.88 165.2 674.91 169.25"/><line class="cls-7" x1="630.93" y1="195.94" x2="677.56" y2="210.94"/><polygon class="cls-8" points="674.26 213.09 673.94 212.41 677.29 210.85 675.48 207.62 676.14 207.25 678.34 211.19 674.26 213.09"/><path class="cls-15" d="M276.77,238.36H279a4.44,4.44,0,0,1,1.08.13,2.51,2.51,0,0,1,.84.39,1.68,1.68,0,0,1,.53.65,2,2,0,0,1,.19.92,2,2,0,0,1-.19.92,1.83,1.83,0,0,1-.54.66,2.71,2.71,0,0,1-.84.39,4.12,4.12,0,0,1-1.09.13h-1.39v3.63h-.8Zm.8,3.52h1.34a2.3,2.3,0,0,0,1.43-.37,1.24,1.24,0,0,0,.49-1.06,1.18,1.18,0,0,0-.51-1.06,2.45,2.45,0,0,0-1.41-.34h-1.34Z"/><path class="cls-15" d="M282.59,241.61c0-.22,0-.42,0-.59h.72c0,.14,0,.29,0,.46s0,.31,0,.42h0a1.84,1.84,0,0,1,1.66-1h.26l.24.05-.1.72-.22,0-.31,0a1.66,1.66,0,0,0-.58.11,1.24,1.24,0,0,0-.48.35,2,2,0,0,0-.33.6,2.88,2.88,0,0,0-.13.89v2.64h-.75v-4C282.6,242,282.6,241.83,282.59,241.61Z"/><path class="cls-15" d="M291.52,243.6a2.74,2.74,0,0,1-.21,1.08,2.4,2.4,0,0,1-.57.86,2.35,2.35,0,0,1-.87.57,3,3,0,0,1-2.22,0,2.35,2.35,0,0,1-.87-.57,2.69,2.69,0,0,1-.57-.86,3,3,0,0,1,0-2.16,2.69,2.69,0,0,1,.57-.86,2.35,2.35,0,0,1,.87-.57,3,3,0,0,1,2.22,0,2.35,2.35,0,0,1,.87.57,2.4,2.4,0,0,1,.57.86A2.74,2.74,0,0,1,291.52,243.6Zm-.8,0a2.16,2.16,0,0,0-.14-.81,1.81,1.81,0,0,0-.39-.66,1.77,1.77,0,0,0-.62-.45,2,2,0,0,0-1.63,0,1.83,1.83,0,0,0-.61.45,1.81,1.81,0,0,0-.39.66,2.41,2.41,0,0,0,0,1.62,1.81,1.81,0,0,0,.39.66,1.83,1.83,0,0,0,.61.45,2.16,2.16,0,0,0,1.63,0,1.77,1.77,0,0,0,.62-.45,1.81,1.81,0,0,0,.39-.66A2.16,2.16,0,0,0,290.72,243.6Z"/><path class="cls-15" d="M293.4,247.22a2.55,2.55,0,0,0,.85.68,2.47,2.47,0,0,0,1.13.27,2.4,2.4,0,0,0,.94-.16,1.5,1.5,0,0,0,.62-.43,1.71,1.71,0,0,0,.35-.65,2.56,2.56,0,0,0,.11-.79v-1h0a2,2,0,0,1-.84.75,2.5,2.5,0,0,1-1.11.26,3,3,0,0,1-1.1-.19,2.61,2.61,0,0,1-.84-.55,2.43,2.43,0,0,1-.54-.84,2.8,2.8,0,0,1,0-2.08,2.57,2.57,0,0,1,.54-.85,2.38,2.38,0,0,1,.84-.58,2.77,2.77,0,0,1,1.1-.21,2.45,2.45,0,0,1,1.1.27,2,2,0,0,1,.85.76h0V241h.75v5.12a3.55,3.55,0,0,1-.11.89,2.33,2.33,0,0,1-.43.88,2.55,2.55,0,0,1-.86.66,3.15,3.15,0,0,1-1.4.26,3.45,3.45,0,0,1-2.49-1Zm.15-3.69a2.24,2.24,0,0,0,.13.78,2.17,2.17,0,0,0,.38.64,1.78,1.78,0,0,0,.61.43,2,2,0,0,0,.83.16,2.07,2.07,0,0,0,.8-.14,1.82,1.82,0,0,0,1-1,2.19,2.19,0,0,0,.15-.83,2,2,0,0,0-.15-.77,2,2,0,0,0-.41-.64,2.16,2.16,0,0,0-.63-.44,1.91,1.91,0,0,0-.8-.17,2,2,0,0,0-.83.17,2,2,0,0,0-.61.44,2,2,0,0,0-.38.64A2.19,2.19,0,0,0,293.55,243.53Z"/><path class="cls-15" d="M300.1,241.61c0-.22,0-.42,0-.59h.72a3.23,3.23,0,0,1,0,.46c0,.17,0,.31,0,.42h0a1.88,1.88,0,0,1,.66-.74,1.9,1.9,0,0,1,1-.28h.26l.24.05-.1.72a1.23,1.23,0,0,0-.22,0l-.31,0a1.56,1.56,0,0,0-.57.11,1.11,1.11,0,0,0-.48.35,1.64,1.64,0,0,0-.33.6,2.61,2.61,0,0,0-.13.89v2.64h-.75v-4C300.11,242,300.1,241.83,300.1,241.61Z"/><path class="cls-15" d="M307.21,242.84a1.32,1.32,0,0,0-.35-1,1.47,1.47,0,0,0-1-.33,2.2,2.2,0,0,0-.86.17,2.16,2.16,0,0,0-.68.44l-.41-.5a2.47,2.47,0,0,1,.84-.53,3.19,3.19,0,0,1,1.19-.21,2.45,2.45,0,0,1,.78.12,1.81,1.81,0,0,1,.64.35,1.47,1.47,0,0,1,.43.58,2,2,0,0,1,.16.83V245c0,.2,0,.41,0,.62a3.25,3.25,0,0,0,.07.54h-.68c0-.12,0-.26-.05-.4a3.37,3.37,0,0,1,0-.44h0a2.1,2.1,0,0,1-.8.75,2.39,2.39,0,0,1-1.08.23,2.25,2.25,0,0,1-.61-.09,1.5,1.5,0,0,1-.57-.27,1.44,1.44,0,0,1-.6-1.22,1.38,1.38,0,0,1,.3-.94,1.7,1.7,0,0,1,.81-.52,4.85,4.85,0,0,1,1.17-.23c.43,0,.89-.05,1.36-.05Zm-.22.76c-.31,0-.62,0-.93,0a4,4,0,0,0-.85.15,1.58,1.58,0,0,0-.63.34.76.76,0,0,0-.24.59,1,1,0,0,0,.1.46.83.83,0,0,0,.29.3,1,1,0,0,0,.39.17,2.1,2.1,0,0,0,.43,0,1.76,1.76,0,0,0,.71-.14,1.43,1.43,0,0,0,.52-.38,1.55,1.55,0,0,0,.32-.54,2.06,2.06,0,0,0,.11-.65v-.39Z"/><path class="cls-15" d="M311.27,241.16a2,2,0,0,1,1-.28,2.28,2.28,0,0,1,.44.05,1.33,1.33,0,0,1,.44.17,2,2,0,0,1,.4.33,2.2,2.2,0,0,1,.31.55,2,2,0,0,1,.72-.82,2.13,2.13,0,0,1,1.09-.28,1.83,1.83,0,0,1,1.48.59,2.35,2.35,0,0,1,.49,1.54v3.17h-.75v-2.86a2.42,2.42,0,0,0-.31-1.31,1.11,1.11,0,0,0-1-.5,1.36,1.36,0,0,0-.69.17,1.24,1.24,0,0,0-.45.43,1.8,1.8,0,0,0-.25.62,3.27,3.27,0,0,0-.08.7v2.75h-.75v-3a4.86,4.86,0,0,0-.05-.69,1.53,1.53,0,0,0-.2-.52.94.94,0,0,0-.38-.33,1.4,1.4,0,0,0-.62-.12,1.31,1.31,0,0,0-.53.12,1.44,1.44,0,0,0-.49.37,2.11,2.11,0,0,0-.35.63,2.75,2.75,0,0,0-.13.9v2.65h-.75v-4c0-.14,0-.32,0-.54s0-.42,0-.59h.71c0,.14,0,.29,0,.46s0,.31,0,.42h0A1.79,1.79,0,0,1,311.27,241.16Z"/><path class="cls-15" d="M321,241.16a2,2,0,0,1,1-.28,2.28,2.28,0,0,1,.44.05,1.26,1.26,0,0,1,.44.17,1.76,1.76,0,0,1,.4.33,1.93,1.93,0,0,1,.31.55,2,2,0,0,1,.73-.82,2.06,2.06,0,0,1,1.08-.28,1.83,1.83,0,0,1,1.48.59,2.3,2.3,0,0,1,.49,1.54v3.17h-.75v-2.86a2.52,2.52,0,0,0-.3-1.31,1.13,1.13,0,0,0-1-.5,1.36,1.36,0,0,0-.69.17,1.32,1.32,0,0,0-.45.43,2,2,0,0,0-.25.62,3.27,3.27,0,0,0-.08.7v2.75h-.75v-3a3.73,3.73,0,0,0-.05-.69,1.52,1.52,0,0,0-.19-.52,1,1,0,0,0-.39-.33,1.35,1.35,0,0,0-.61-.12,1.32,1.32,0,0,0-.54.12,1.55,1.55,0,0,0-.49.37,1.89,1.89,0,0,0-.34.63,2.74,2.74,0,0,0-.14.9v2.65h-.75v-4c0-.14,0-.32,0-.54s0-.42,0-.59h.72c0,.14,0,.29,0,.46s0,.31,0,.42h0A1.86,1.86,0,0,1,321,241.16Z"/><path class="cls-15" d="M332.61,242.84a1.32,1.32,0,0,0-.35-1,1.47,1.47,0,0,0-1-.33,2.24,2.24,0,0,0-.86.17,2.11,2.11,0,0,0-.67.44l-.42-.5a2.47,2.47,0,0,1,.84-.53,3.19,3.19,0,0,1,1.19-.21,2.45,2.45,0,0,1,.78.12,1.73,1.73,0,0,1,.64.35,1.47,1.47,0,0,1,.43.58,2,2,0,0,1,.16.83V245c0,.2,0,.41,0,.62a4.84,4.84,0,0,0,.07.54h-.68c0-.12,0-.26-.05-.4a3.31,3.31,0,0,1,0-.44h0a2.1,2.1,0,0,1-.8.75,2.32,2.32,0,0,1-1.07.23,2.27,2.27,0,0,1-.62-.09,1.5,1.5,0,0,1-.57-.27,1.47,1.47,0,0,1-.43-.49,1.36,1.36,0,0,1-.17-.73,1.38,1.38,0,0,1,.3-.94,1.7,1.7,0,0,1,.81-.52,4.85,4.85,0,0,1,1.17-.23c.44,0,.89-.05,1.36-.05Zm-.22.76c-.31,0-.62,0-.93,0a4,4,0,0,0-.85.15,1.65,1.65,0,0,0-.63.34.76.76,0,0,0-.24.59,1,1,0,0,0,.11.46.81.81,0,0,0,.28.3,1.13,1.13,0,0,0,.39.17,2.12,2.12,0,0,0,.44,0,1.71,1.71,0,0,0,.7-.14,1.43,1.43,0,0,0,.52-.38,1.55,1.55,0,0,0,.32-.54,1.81,1.81,0,0,0,.11-.65v-.39Z"/><path class="cls-15" d="M336,245.31v.87h-.76v-8.35H336v4.08h0a2.2,2.2,0,0,1,.86-.77,2.49,2.49,0,0,1,1.09-.26,2.77,2.77,0,0,1,1.1.21,2.38,2.38,0,0,1,.84.58,2.62,2.62,0,0,1,.54.86,3.11,3.11,0,0,1,0,2.14,2.62,2.62,0,0,1-.54.86,2.38,2.38,0,0,1-.84.58,2.77,2.77,0,0,1-1.1.21,2.49,2.49,0,0,1-1.09-.26,2.15,2.15,0,0,1-.86-.75Zm3.85-1.71a2.37,2.37,0,0,0-.13-.81,1.94,1.94,0,0,0-.38-.66,1.77,1.77,0,0,0-.62-.45,2,2,0,0,0-.82-.17,2.08,2.08,0,0,0-.8.16,2.16,2.16,0,0,0-.63.44,2,2,0,0,0-.41.67,2.32,2.32,0,0,0,0,1.64,1.85,1.85,0,0,0,.41.66,2.16,2.16,0,0,0,.63.44,2.08,2.08,0,0,0,.8.16,2.14,2.14,0,0,0,.82-.16,1.77,1.77,0,0,0,.62-.45,1.94,1.94,0,0,0,.38-.66A2.37,2.37,0,0,0,339.88,243.6Z"/><path class="cls-15" d="M343.06,246.18h-.75v-8.35h.75Z"/><path class="cls-15" d="M349.78,243.45v.16a1.37,1.37,0,0,1,0,.19h-4.28a2.21,2.21,0,0,0,.15.73,1.87,1.87,0,0,0,.4.59,1.94,1.94,0,0,0,.6.41,1.78,1.78,0,0,0,.74.15,1.86,1.86,0,0,0,1-.27,1.93,1.93,0,0,0,.64-.63l.57.44a2.83,2.83,0,0,1-1,.84,2.91,2.91,0,0,1-1.2.26,2.69,2.69,0,0,1-1.07-.21,2.24,2.24,0,0,1-.84-.57,2.51,2.51,0,0,1-.56-.86,2.74,2.74,0,0,1-.21-1.08,2.92,2.92,0,0,1,.2-1.08,2.67,2.67,0,0,1,.56-.86,2.33,2.33,0,0,1,.82-.57,2.73,2.73,0,0,1,2.1,0,2.2,2.2,0,0,1,.78.55,2.31,2.31,0,0,1,.46.81A3,3,0,0,1,349.78,243.45Zm-.77-.25a1.87,1.87,0,0,0-.47-1.21,1.58,1.58,0,0,0-1.24-.48A1.8,1.8,0,0,0,346,242a1.6,1.6,0,0,0-.38.54,1.56,1.56,0,0,0-.17.63Z"/><path class="cls-15" d="M355,245.48h4.18v.7h-5v-7.82H359v.71H355v2.69h3.79v.7H355Z"/><path class="cls-15" d="M362.67,246.18h-.82L359.74,241h.84l1.67,4.37h0L364,241h.8Z"/><path class="cls-15" d="M370.65,243.45v.16a1.28,1.28,0,0,1,0,.19h-4.29a2,2,0,0,0,.16.73,1.71,1.71,0,0,0,.4.59,1.78,1.78,0,0,0,.59.41,2,2,0,0,0,1.75-.12,2,2,0,0,0,.65-.63l.56.44a2.71,2.71,0,0,1-2.22,1.1,2.64,2.64,0,0,1-1.06-.21,2.36,2.36,0,0,1-.85-.57,2.84,2.84,0,0,1-.56-.86,3,3,0,0,1,0-2.16,2.49,2.49,0,0,1,.55-.86,2.37,2.37,0,0,1,.83-.57,2.5,2.5,0,0,1,1-.21,2.59,2.59,0,0,1,1.07.21,2.17,2.17,0,0,1,.77.55,2.33,2.33,0,0,1,.47.81A3,3,0,0,1,370.65,243.45Zm-.76-.25a1.87,1.87,0,0,0-.47-1.21,1.6,1.6,0,0,0-1.24-.48,1.76,1.76,0,0,0-1.26.52,1.63,1.63,0,0,0-.39.54,1.74,1.74,0,0,0-.17.63Z"/><path class="cls-15" d="M372.93,241c0,.14,0,.29,0,.46s0,.31,0,.42h0a1.76,1.76,0,0,1,.72-.74,2.17,2.17,0,0,1,1-.28,1.81,1.81,0,0,1,1.47.59,2.3,2.3,0,0,1,.49,1.54v3.17H376v-2.86a4.18,4.18,0,0,0-.06-.74,1.5,1.5,0,0,0-.23-.56,1.13,1.13,0,0,0-.43-.38,1.68,1.68,0,0,0-.68-.13,1.41,1.41,0,0,0-1.08.49,1.93,1.93,0,0,0-.36.63,3,3,0,0,0-.13.9v2.65h-.75v-4c0-.14,0-.32,0-.54s0-.42,0-.59Z"/><path class="cls-15" d="M381,241.64h-1.46v3a1.53,1.53,0,0,0,.06.47.62.62,0,0,0,.16.3.49.49,0,0,0,.24.14,1.06,1.06,0,0,0,.31,0,1.29,1.29,0,0,0,.33,0,1.51,1.51,0,0,0,.33-.13l0,.66a1.85,1.85,0,0,1-.42.11,2.29,2.29,0,0,1-.47,0,2.37,2.37,0,0,1-.44-.05,1.09,1.09,0,0,1-.75-.63,1.56,1.56,0,0,1-.13-.7v-3.23h-1.07V241h1.07v-1.46h.75V241H381Z"/><path class="cls-15" d="M385,238.36h2.21a4.59,4.59,0,0,1,1.09.13,2.55,2.55,0,0,1,.83.39,1.8,1.8,0,0,1,.54.65,2.19,2.19,0,0,1,.18.92,2,2,0,0,1-.19.92,1.83,1.83,0,0,1-.54.66,2.51,2.51,0,0,1-.84.39,4.12,4.12,0,0,1-1.09.13h-1.39v3.63H385Zm.8,3.52h1.35a2.29,2.29,0,0,0,1.42-.37,1.22,1.22,0,0,0,.49-1.06,1.19,1.19,0,0,0-.5-1.06,2.49,2.49,0,0,0-1.41-.34h-1.35Z"/><path class="cls-15" d="M392,239a.5.5,0,0,1-.17.38.53.53,0,0,1-.36.15.55.55,0,0,1-.37-.15.49.49,0,0,1-.16-.38.48.48,0,0,1,.16-.38.55.55,0,0,1,.37-.15.53.53,0,0,1,.36.15A.49.49,0,0,1,392,239Zm-.16,7.15h-.75V241h.75Z"/><path class="cls-15" d="M394.59,248.83h-.75V241h.75v.89h0a2.1,2.1,0,0,1,.85-.77,2.53,2.53,0,0,1,1.09-.26,2.8,2.8,0,0,1,1.1.21,2.38,2.38,0,0,1,.84.58,2.62,2.62,0,0,1,.54.86,3.11,3.11,0,0,1,0,2.14,2.62,2.62,0,0,1-.54.86,2.38,2.38,0,0,1-.84.58,2.8,2.8,0,0,1-1.1.21,2.53,2.53,0,0,1-1.09-.26,2.13,2.13,0,0,1-.85-.75h0Zm3.86-5.23a2.64,2.64,0,0,0-.13-.81,1.81,1.81,0,0,0-.39-.66,1.73,1.73,0,0,0-.61-.45,2,2,0,0,0-.83-.17,2.06,2.06,0,0,0-.79.16,1.93,1.93,0,0,0-.63.44,2,2,0,0,0-.42.67,2.32,2.32,0,0,0,0,1.64,1.87,1.87,0,0,0,.42.66,1.93,1.93,0,0,0,.63.44,2.06,2.06,0,0,0,.79.16,2.15,2.15,0,0,0,.83-.16,1.73,1.73,0,0,0,.61-.45,1.81,1.81,0,0,0,.39-.66A2.64,2.64,0,0,0,398.45,243.6Z"/><path class="cls-15" d="M405.56,243.45v.16a1.28,1.28,0,0,1,0,.19h-4.29a2,2,0,0,0,.16.73,1.71,1.71,0,0,0,.4.59,2,2,0,0,0,.59.41,2,2,0,0,0,1.75-.12,2,2,0,0,0,.65-.63l.56.44a2.71,2.71,0,0,1-2.22,1.1,2.64,2.64,0,0,1-1.06-.21,2.36,2.36,0,0,1-.85-.57,2.84,2.84,0,0,1-.56-.86,3,3,0,0,1,0-2.16,2.64,2.64,0,0,1,.55-.86,2.37,2.37,0,0,1,.83-.57,2.53,2.53,0,0,1,1-.21,2.59,2.59,0,0,1,1.07.21,2.08,2.08,0,0,1,.77.55,2.33,2.33,0,0,1,.47.81A3,3,0,0,1,405.56,243.45Zm-.76-.25a1.87,1.87,0,0,0-.47-1.21,1.6,1.6,0,0,0-1.24-.48,1.86,1.86,0,0,0-1.65,1.06,1.72,1.72,0,0,0-.16.63Z"/><path class="cls-15" d="M408,246.18h-.76v-8.35H408Z"/><path class="cls-15" d="M410.87,239a.49.49,0,0,1-.16.38.55.55,0,0,1-.37.15.53.53,0,0,1-.36-.15.5.5,0,0,1-.17-.38.49.49,0,0,1,.17-.38.53.53,0,0,1,.36-.15.55.55,0,0,1,.37.15A.48.48,0,0,1,410.87,239Zm-.15,7.15H410V241h.75Z"/><path class="cls-15" d="M413.39,241a3.23,3.23,0,0,1,0,.46c0,.17,0,.31,0,.42h0a1.65,1.65,0,0,1,.72-.74,2.16,2.16,0,0,1,1-.28,1.83,1.83,0,0,1,1.48.59,2.3,2.3,0,0,1,.49,1.54v3.17h-.75v-2.86a3.38,3.38,0,0,0-.07-.74,1.49,1.49,0,0,0-.22-.56,1.13,1.13,0,0,0-.43-.38,1.68,1.68,0,0,0-.68-.13,1.43,1.43,0,0,0-.58.12,1.52,1.52,0,0,0-.51.37,2.11,2.11,0,0,0-.35.63,2.75,2.75,0,0,0-.13.9v2.65h-.75v-4c0-.14,0-.32,0-.54s0-.42,0-.59Z"/><path class="cls-15" d="M423.84,243.45v.16c0,.06,0,.12,0,.19h-4.29a2,2,0,0,0,.16.73,1.69,1.69,0,0,0,.39.59,1.94,1.94,0,0,0,.6.41,2,2,0,0,0,1.75-.12,2.07,2.07,0,0,0,.65-.63l.56.44a2.71,2.71,0,0,1-2.22,1.1,2.64,2.64,0,0,1-1.06-.21,2.36,2.36,0,0,1-.85-.57,2.67,2.67,0,0,1-.56-.86,2.92,2.92,0,0,1-.2-1.08,2.73,2.73,0,0,1,.2-1.08,2.49,2.49,0,0,1,.55-.86,2.37,2.37,0,0,1,.83-.57,2.48,2.48,0,0,1,1-.21,2.6,2.6,0,0,1,1.08.21,2.17,2.17,0,0,1,.77.55,2.5,2.5,0,0,1,.47.81A3,3,0,0,1,423.84,243.45Zm-.76-.25a1.92,1.92,0,0,0-.47-1.21,1.61,1.61,0,0,0-1.25-.48,1.74,1.74,0,0,0-.69.14,1.79,1.79,0,0,0-.56.38,1.63,1.63,0,0,0-.39.54,1.74,1.74,0,0,0-.17.63Z"/><path class="cls-15" d="M428.2,242.24a1.31,1.31,0,0,0-.5-.52,1.44,1.44,0,0,0-.77-.21,1.9,1.9,0,0,0-.4.05,1,1,0,0,0-.35.14.85.85,0,0,0-.25.25.75.75,0,0,0-.09.37.63.63,0,0,0,.3.56,2.9,2.9,0,0,0,.93.32,3.16,3.16,0,0,1,1.36.55,1.19,1.19,0,0,1,.43,1,1.42,1.42,0,0,1-.17.74,1.52,1.52,0,0,1-.44.5,1.77,1.77,0,0,1-.63.27,2.74,2.74,0,0,1-.7.09,2.7,2.7,0,0,1-1.14-.25,2,2,0,0,1-.9-.76l.59-.44a1.62,1.62,0,0,0,.59.57,1.58,1.58,0,0,0,.85.24,2.24,2.24,0,0,0,.46-.05,1.13,1.13,0,0,0,.39-.15.86.86,0,0,0,.26-.28.83.83,0,0,0,.1-.43.65.65,0,0,0-.39-.61,4.6,4.6,0,0,0-1.13-.38l-.49-.14a2.16,2.16,0,0,1-.48-.24,1.45,1.45,0,0,1-.37-.41,1.22,1.22,0,0,1-.14-.61,1.38,1.38,0,0,1,.15-.67,1.47,1.47,0,0,1,.42-.47,1.88,1.88,0,0,1,.59-.27,2.59,2.59,0,0,1,.68-.09,2.26,2.26,0,0,1,1.05.25,1.71,1.71,0,0,1,.77.68Z"/><path class="cls-15" d="M315.07,350.81h-.78v-7.65h.78Z"/><path class="cls-15" d="M317.72,345.75c0,.14,0,.29,0,.46s0,.3,0,.41h0a1.62,1.62,0,0,1,.7-.72,2.13,2.13,0,0,1,1-.28,1.78,1.78,0,0,1,1.44.58,2.26,2.26,0,0,1,.48,1.51v3.1h-.73V348a3.26,3.26,0,0,0-.07-.72,1.4,1.4,0,0,0-.22-.56,1.06,1.06,0,0,0-.42-.36,1.48,1.48,0,0,0-.67-.13,1.38,1.38,0,0,0-.56.12,1.45,1.45,0,0,0-.5.36,1.92,1.92,0,0,0-.34.62,2.59,2.59,0,0,0-.13.88v2.59h-.74v-3.94c0-.14,0-.32,0-.53s0-.41,0-.59Z"/><path class="cls-15" d="M325.49,346.37H324.3v4.44h-.74v-4.44H322.5v-.62h1.06v-1.38A2,2,0,0,1,324,343a1.64,1.64,0,0,1,1.3-.5,1.67,1.67,0,0,1,.31,0l.3.06-.13.64-.24-.05-.27,0a1,1,0,0,0-.48.1.63.63,0,0,0-.29.27,1.1,1.1,0,0,0-.14.42,2.78,2.78,0,0,0,0,.51v1.29h1.19Zm1.93-2.56a.47.47,0,0,1-.16.37.53.53,0,0,1-.36.15.5.5,0,0,1-.35-.15.47.47,0,0,1-.16-.37.49.49,0,0,1,.16-.38.54.54,0,0,1,.35-.14.56.56,0,0,1,.36.14A.49.49,0,0,1,327.42,343.81Zm-.16,7h-.73v-5.06h.73Z"/><path class="cls-15" d="M329.89,345.75c0,.14,0,.29,0,.46s0,.3,0,.41h0a1.64,1.64,0,0,1,.71-.72,2.06,2.06,0,0,1,1-.28,1.79,1.79,0,0,1,1.45.58,2.26,2.26,0,0,1,.48,1.51v3.1h-.74V348a4,4,0,0,0-.06-.72,1.56,1.56,0,0,0-.22-.56,1.22,1.22,0,0,0-.42-.36,1.48,1.48,0,0,0-.67-.13,1.46,1.46,0,0,0-.57.12,1.51,1.51,0,0,0-.49.36,1.75,1.75,0,0,0-.34.62,2.59,2.59,0,0,0-.13.88v2.59h-.74v-3.94c0-.14,0-.32,0-.53s0-.41,0-.59Z"/><path class="cls-15" d="M336.41,343.81a.47.47,0,0,1-.16.37.51.51,0,0,1-.72,0,.51.51,0,0,1-.16-.37.53.53,0,0,1,.16-.38.53.53,0,0,1,.72,0A.49.49,0,0,1,336.41,343.81Zm-.15,7h-.74v-5.06h.74Z"/><path class="cls-15" d="M340.5,346.37h-1.43v2.95a1.53,1.53,0,0,0,.06.47.54.54,0,0,0,.15.28.48.48,0,0,0,.25.14,1,1,0,0,0,.3,0,1.22,1.22,0,0,0,.32,0,1.75,1.75,0,0,0,.32-.12l0,.64a1.91,1.91,0,0,1-.41.11,2.19,2.19,0,0,1-.46,0,2.27,2.27,0,0,1-.43-.05,1.19,1.19,0,0,1-.42-.21,1.11,1.11,0,0,1-.32-.41,1.63,1.63,0,0,1-.12-.68v-3.16h-1v-.62h1v-1.42h.73v1.42h1.43Z"/><path class="cls-15" d="M346.25,348.13v.17a1.21,1.21,0,0,1,0,.18h-4.19a1.71,1.71,0,0,0,.15.71,1.69,1.69,0,0,0,.39.59,2,2,0,0,0,.58.39,1.72,1.72,0,0,0,.72.15,1.74,1.74,0,0,0,1-.27,2,2,0,0,0,.64-.61l.55.43a2.74,2.74,0,0,1-1,.83,2.93,2.93,0,0,1-1.18.24,2.57,2.57,0,0,1-1-.2,2.36,2.36,0,0,1-.83-.55,2.57,2.57,0,0,1-.54-.85,2.6,2.6,0,0,1-.2-1.06,2.85,2.85,0,0,1,.19-1.06,2.63,2.63,0,0,1,.54-.84,2.55,2.55,0,0,1,.81-.56,2.75,2.75,0,0,1,2.06,0,2.49,2.49,0,0,1,.76.54,2.33,2.33,0,0,1,.45.8A2.82,2.82,0,0,1,346.25,348.13Zm-.74-.24a1.89,1.89,0,0,0-.46-1.18,1.58,1.58,0,0,0-1.22-.47,1.69,1.69,0,0,0-.68.14,1.75,1.75,0,0,0-.55.36,1.78,1.78,0,0,0-.38.53,1.54,1.54,0,0,0-.16.62Z"/><path class="cls-15" d="M351.36,350.12h4.1v.69h-4.88v-7.65h4.75v.69h-4v2.63h3.71v.69h-3.71Z"/><path class="cls-15" d="M358.88,350.81h-.81L356,345.75h.82l1.64,4.29h0l1.66-4.29h.79Z"/><path class="cls-15" d="M366.69,348.13v.17a1.21,1.21,0,0,1,0,.18h-4.2a1.89,1.89,0,0,0,.16.71,1.69,1.69,0,0,0,.39.59,2,2,0,0,0,.58.39,1.72,1.72,0,0,0,.72.15,1.74,1.74,0,0,0,1-.27,2,2,0,0,0,.64-.61l.55.43a2.83,2.83,0,0,1-1,.83,2.93,2.93,0,0,1-1.18.24,2.57,2.57,0,0,1-1-.2,2.36,2.36,0,0,1-.83-.55,2.57,2.57,0,0,1-.54-.85,2.6,2.6,0,0,1-.2-1.06,2.85,2.85,0,0,1,.19-1.06,2.63,2.63,0,0,1,.54-.84,2.55,2.55,0,0,1,.81-.56,2.75,2.75,0,0,1,2.06,0,2.33,2.33,0,0,1,.75.54,2.2,2.2,0,0,1,.46.8A2.82,2.82,0,0,1,366.69,348.13Zm-.74-.24a1.84,1.84,0,0,0-.47-1.18,1.56,1.56,0,0,0-1.21-.47,1.69,1.69,0,0,0-.68.14,1.75,1.75,0,0,0-.55.36,1.78,1.78,0,0,0-.38.53,1.54,1.54,0,0,0-.16.62Z"/><path class="cls-15" d="M368.93,345.75c0,.14,0,.29,0,.46s0,.3,0,.41h0a1.64,1.64,0,0,1,.71-.72,2.1,2.1,0,0,1,1-.28,1.78,1.78,0,0,1,1.44.58,2.26,2.26,0,0,1,.48,1.51v3.1h-.74V348a4,4,0,0,0-.06-.72,1.56,1.56,0,0,0-.22-.56,1.22,1.22,0,0,0-.42-.36,1.48,1.48,0,0,0-.67-.13,1.46,1.46,0,0,0-.57.12,1.51,1.51,0,0,0-.49.36,1.75,1.75,0,0,0-.34.62,2.59,2.59,0,0,0-.13.88v2.59h-.74v-3.94c0-.14,0-.32,0-.53s0-.41,0-.59Z"/><path class="cls-15" d="M376.84,346.37h-1.43v2.95a2,2,0,0,0,0,.47.63.63,0,0,0,.16.28.49.49,0,0,0,.24.14,1,1,0,0,0,.3,0,1.17,1.17,0,0,0,.32,0,1.52,1.52,0,0,0,.32-.12l0,.64a1.91,1.91,0,0,1-.41.11,2.21,2.21,0,0,1-.89,0,1.19,1.19,0,0,1-.42-.21,1.11,1.11,0,0,1-.32-.41,1.47,1.47,0,0,1-.13-.68v-3.16h-1.05v-.62h1.05v-1.42h.74v1.42h1.43Z"/><path class="cls-15" d="M384.44,344.39a1.92,1.92,0,0,0-.64-.56,2,2,0,0,0-.94-.21,1.88,1.88,0,0,0-.57.09,1.75,1.75,0,0,0-.53.26,1.41,1.41,0,0,0-.39.45,1.31,1.31,0,0,0-.14.64,1.13,1.13,0,0,0,.14.61,1.18,1.18,0,0,0,.37.4,2,2,0,0,0,.53.28l.62.21c.26.09.53.18.8.29a3,3,0,0,1,.73.39,2.13,2.13,0,0,1,.51,2.55,1.92,1.92,0,0,1-.57.69,2.36,2.36,0,0,1-.79.4,3.13,3.13,0,0,1-.91.13,3.23,3.23,0,0,1-.69-.07,3.63,3.63,0,0,1-.66-.21,2.68,2.68,0,0,1-.58-.36,2.53,2.53,0,0,1-.48-.5l.67-.49a2.07,2.07,0,0,0,.7.68,1.93,1.93,0,0,0,1.06.28,2.06,2.06,0,0,0,.59-.09,1.91,1.91,0,0,0,.55-.28,1.81,1.81,0,0,0,.4-.47,1.32,1.32,0,0,0,.15-.64,1.36,1.36,0,0,0-.15-.67,1.6,1.6,0,0,0-.42-.44,2.4,2.4,0,0,0-.6-.3l-.7-.24c-.25-.08-.5-.17-.74-.27a2.4,2.4,0,0,1-.66-.39,1.74,1.74,0,0,1-.47-.6,1.94,1.94,0,0,1-.18-.88,1.91,1.91,0,0,1,.22-.95,2,2,0,0,1,.58-.66,2.51,2.51,0,0,1,.79-.38,3.12,3.12,0,0,1,.85-.12,3,3,0,0,1,1.33.28,2.17,2.17,0,0,1,.83.65Z"/><path class="cls-15" d="M389,346.37h-1.43v2.95a1.53,1.53,0,0,0,.06.47.62.62,0,0,0,.15.28.48.48,0,0,0,.25.14,1,1,0,0,0,.3,0,1.22,1.22,0,0,0,.32,0,1.75,1.75,0,0,0,.32-.12l0,.64a1.82,1.82,0,0,1-.4.11,2.25,2.25,0,0,1-.46,0,2.37,2.37,0,0,1-.44-.05,1.19,1.19,0,0,1-.42-.21,1.22,1.22,0,0,1-.32-.41,1.63,1.63,0,0,1-.12-.68v-3.16h-1v-.62h1v-1.42h.73v1.42H389Z"/><path class="cls-15" d="M395.18,348.28a2.78,2.78,0,0,1-.2,1.06,2.62,2.62,0,0,1-.56.85,2.45,2.45,0,0,1-.85.55,2.83,2.83,0,0,1-1.1.2,2.73,2.73,0,0,1-1.08-.2,2.47,2.47,0,0,1-1.41-1.4,2.78,2.78,0,0,1-.2-1.06,2.86,2.86,0,0,1,.2-1.06,2.53,2.53,0,0,1,.56-.84,2.62,2.62,0,0,1,.85-.56,2.92,2.92,0,0,1,1.08-.2,3,3,0,0,1,1.1.2,2.62,2.62,0,0,1,.85.56,2.69,2.69,0,0,1,.56.84A2.86,2.86,0,0,1,395.18,348.28Zm-.78,0a2.3,2.3,0,0,0-.14-.79,1.83,1.83,0,0,0-.38-.65,2,2,0,0,0-.61-.44,2.06,2.06,0,0,0-1.59,0,1.8,1.8,0,0,0-.6.44,1.85,1.85,0,0,0-.39.65,2.5,2.5,0,0,0,0,1.59,1.94,1.94,0,0,0,.39.65,1.65,1.65,0,0,0,.6.43,2.06,2.06,0,0,0,1.59,0,1.78,1.78,0,0,0,.61-.43,1.92,1.92,0,0,0,.38-.65A2.32,2.32,0,0,0,394.4,348.28Z"/><path class="cls-15" d="M396.75,346.34c0-.22,0-.41,0-.59h.7c0,.14,0,.29,0,.46s0,.3,0,.41h0a1.67,1.67,0,0,1,.65-.72,1.8,1.8,0,0,1,1-.28h.26l.23.05-.1.7-.21,0a1.67,1.67,0,0,0-.31,0,1.54,1.54,0,0,0-.56.1,1.32,1.32,0,0,0-.47.34,1.9,1.9,0,0,0-.32.6,2.49,2.49,0,0,0-.13.87v2.58h-.73v-3.94C396.76,346.73,396.75,346.55,396.75,346.34Z"/><path class="cls-15" d="M405.06,348.13v.17a1.21,1.21,0,0,1,0,.18h-4.2a1.89,1.89,0,0,0,.16.71,1.81,1.81,0,0,0,.38.59,2.16,2.16,0,0,0,.59.39,1.72,1.72,0,0,0,.72.15,1.74,1.74,0,0,0,1-.27,2,2,0,0,0,.64-.61l.55.43a2.83,2.83,0,0,1-1,.83,2.93,2.93,0,0,1-1.18.24,2.57,2.57,0,0,1-1-.2,2.36,2.36,0,0,1-.83-.55,2.57,2.57,0,0,1-.54-.85,2.6,2.6,0,0,1-.2-1.06,2.85,2.85,0,0,1,.19-1.06,2.63,2.63,0,0,1,.54-.84,2.55,2.55,0,0,1,.81-.56,2.6,2.6,0,0,1,1-.2,2.66,2.66,0,0,1,1.05.2,2.33,2.33,0,0,1,.75.54,2.2,2.2,0,0,1,.46.8A2.82,2.82,0,0,1,405.06,348.13Zm-.75-.24a1.78,1.78,0,0,0-.46-1.18,1.56,1.56,0,0,0-1.21-.47,1.69,1.69,0,0,0-.68.14,1.75,1.75,0,0,0-.55.36,1.78,1.78,0,0,0-.38.53,1.74,1.74,0,0,0-.17.62Z"/><circle class="cls-14" cx="464.7" cy="185.65" r="21"/><path class="cls-13" d="M345,220.26a5.29,5.29,0,0,1-2.14.38,3.77,3.77,0,0,1-4-4.09,4,4,0,0,1,4.22-4.25,4.4,4.4,0,0,1,1.92.36l-.25.86a3.71,3.71,0,0,0-1.64-.34,3,3,0,0,0-3.15,3.33,2.94,2.94,0,0,0,3.11,3.25,4.25,4.25,0,0,0,1.7-.33Z"/><path class="cls-13" d="M351.35,217.57a2.83,2.83,0,0,1-2.89,3.08,2.76,2.76,0,0,1-2.78-3,2.84,2.84,0,0,1,2.88-3.09A2.75,2.75,0,0,1,351.35,217.57Zm-4.6.06c0,1.27.73,2.23,1.76,2.23s1.76-1,1.76-2.25c0-1-.49-2.24-1.74-2.24S346.75,216.53,346.75,217.63Z"/><path class="cls-13" d="M352.69,216.53c0-.69,0-1.28-.05-1.81h.92l0,1.13h0a1.75,1.75,0,0,1,1.6-1.27,1.28,1.28,0,0,1,.3,0v1a1.79,1.79,0,0,0-.36,0,1.47,1.47,0,0,0-1.41,1.35,2.57,2.57,0,0,0,0,.5v3.09h-1Z"/><path class="cls-13" d="M356.66,216.53c0-.69,0-1.28-.05-1.81h.92l0,1.13h.05a1.75,1.75,0,0,1,1.61-1.27,1.36,1.36,0,0,1,.3,0v1a2,2,0,0,0-.37,0,1.47,1.47,0,0,0-1.41,1.35,3.68,3.68,0,0,0-.05.5v3.09h-1Z"/><path class="cls-13" d="M361.05,217.81a1.85,1.85,0,0,0,2,2,3.8,3.8,0,0,0,1.61-.3l.18.76a4.67,4.67,0,0,1-1.93.36,2.7,2.7,0,0,1-2.86-2.93c0-1.75,1-3.13,2.73-3.13a2.46,2.46,0,0,1,2.39,2.74,4.88,4.88,0,0,1,0,.49Zm3.09-.76a1.49,1.49,0,0,0-1.46-1.71,1.75,1.75,0,0,0-1.62,1.71Z"/><path class="cls-13" d="M366.48,212h1v8.52h-1Z"/><path class="cls-13" d="M372.52,220.52l-.08-.73h0a2.17,2.17,0,0,1-1.77.86,1.66,1.66,0,0,1-1.78-1.67c0-1.4,1.25-2.17,3.49-2.15v-.12a1.2,1.2,0,0,0-1.32-1.35,2.93,2.93,0,0,0-1.51.43l-.24-.69a3.64,3.64,0,0,1,1.91-.52c1.77,0,2.2,1.21,2.2,2.38v2.17a8.4,8.4,0,0,0,.1,1.39Zm-.15-3c-1.16,0-2.46.18-2.46,1.3a.93.93,0,0,0,1,1,1.45,1.45,0,0,0,1.41-1,1.35,1.35,0,0,0,.06-.34Z"/><path class="cls-13" d="M376.31,213.05v1.67h1.52v.8h-1.52v3.13c0,.72.21,1.13.8,1.13a2.19,2.19,0,0,0,.61-.08l0,.8a2.63,2.63,0,0,1-.93.14,1.49,1.49,0,0,1-1.14-.44,2.18,2.18,0,0,1-.41-1.52v-3.16h-.9v-.8h.9v-1.4Z"/><path class="cls-13" d="M379.53,217.81a1.85,1.85,0,0,0,2,2,3.8,3.8,0,0,0,1.61-.3l.18.76a4.67,4.67,0,0,1-1.93.36,2.7,2.7,0,0,1-2.86-2.93c0-1.75,1-3.13,2.73-3.13a2.46,2.46,0,0,1,2.39,2.74,4.88,4.88,0,0,1,0,.49Zm3.09-.76a1.49,1.49,0,0,0-1.46-1.71,1.75,1.75,0,0,0-1.62,1.71Z"/><line class="cls-16" x1="287.29" y1="52.81" x2="334.07" y2="81.73"/><polygon class="cls-8" points="329.72 83.25 329.55 82.39 333.78 81.56 332.64 77.4 333.48 77.17 334.87 82.23 329.72 83.25"/><line class="cls-16" x1="329.22" y1="52.45" x2="346.41" y2="73.13"/><polygon class="cls-8" points="341.8 73.19 341.91 72.32 346.19 72.88 346.43 68.57 347.31 68.62 347.01 73.86 341.8 73.19"/><line class="cls-16" x1="401.1" y1="51.45" x2="380.55" y2="72.03"/><polygon class="cls-8" points="380.07 67.45 380.94 67.48 380.79 71.79 385.1 71.63 385.13 72.51 379.88 72.7 380.07 67.45"/><line class="cls-16" x1="440.77" y1="51.03" x2="391.75" y2="82.26"/><polygon class="cls-8" points="392.28 77.69 393.12 77.91 392.04 82.08 396.28 82.86 396.12 83.72 390.95 82.77 392.28 77.69"/><path class="cls-4" d="M327.54,34.72a3,3,0,0,0,2.82-2h.43a4.24,4.24,0,0,0,2.95-1.19,4.35,4.35,0,0,0,1.32-3.17,5.72,5.72,0,0,0-.89-2.77,5.08,5.08,0,0,0,3.25-4.67"/><path class="cls-4" d="M337.42,20.93a5.09,5.09,0,0,0-3.25-4.66,5.62,5.62,0,0,0,.91-2.76,4.32,4.32,0,0,0-4.3-4.38h-.42a3,3,0,0,0-2.82-2h0a2.7,2.7,0,0,0-2.1.93,3.66,3.66,0,0,0-.82,2.41v20.9c0,2,1.2,3.34,2.93,3.34"/><line class="cls-4" x1="327.53" y1="7.14" x2="327.53" y2="17.31"/><ellipse class="cls-4" cx="327.53" cy="18.16" rx="0.82" ry="0.94"/><ellipse class="cls-4" cx="330.76" cy="13.91" rx="0.82" ry="0.94"/><ellipse class="cls-4" cx="333.66" cy="20.71" rx="0.82" ry="0.94"/><ellipse class="cls-4" cx="330.2" cy="25.48" rx="0.82" ry="0.94"/><ellipse class="cls-4" cx="327.53" cy="30.3" rx="0.82" ry="0.94"/><line class="cls-4" x1="327.53" y1="22.75" x2="327.53" y2="29.83"/><line class="cls-4" x1="334.48" y1="25.6" x2="331.06" y2="25.6"/><path class="cls-4" d="M324.82,22.43h4.34c.88,0,1.6-1.21,1.6-2.71V14.85"/><line class="cls-4" x1="332.84" y1="20.71" x2="330.65" y2="20.71"/><path class="cls-4" d="M320,34.72c1.73,0,2.93-1.38,2.92-3.34V10.48a3.6,3.6,0,0,0-.81-2.41,2.7,2.7,0,0,0-2.1-.93h0a3,3,0,0,0-2.82,2h-.42a4.32,4.32,0,0,0-4.3,4.38,5.62,5.62,0,0,0,.91,2.76,5,5,0,0,0,0,9.33,5.72,5.72,0,0,0-.89,2.77,4.35,4.35,0,0,0,1.32,3.17,4.24,4.24,0,0,0,3,1.19h.43a3,3,0,0,0,2.82,2"/><line class="cls-4" x1="319.98" y1="7.14" x2="319.98" y2="17.31"/><ellipse class="cls-4" cx="319.98" cy="18.16" rx="0.82" ry="0.94"/><ellipse class="cls-4" cx="316.75" cy="13.91" rx="0.82" ry="0.94"/><ellipse class="cls-4" cx="313.85" cy="20.71" rx="0.82" ry="0.94"/><ellipse class="cls-4" cx="317.31" cy="25.48" rx="0.82" ry="0.94"/><ellipse class="cls-4" cx="319.98" cy="30.3" rx="0.82" ry="0.94"/><line class="cls-4" x1="319.98" y1="22.75" x2="319.98" y2="29.83"/><line class="cls-4" x1="313.03" y1="25.6" x2="316.45" y2="25.6"/><path class="cls-4" d="M322.69,22.43h-4.34c-.88,0-1.6-1.21-1.6-2.71V14.85"/><line class="cls-4" x1="314.67" y1="20.71" x2="316.86" y2="20.71"/><path class="cls-2" d="M269.86,12.06c1.7,1.11,5.52,2.45,10.81,2.45s9.79-1.34,11.22-2.68"/><path class="cls-2" d="M269.86,18.63c1.7,1.11,5.52,2.45,10.81,2.45s9.79-1.34,11.22-2.68"/><path class="cls-2" d="M269.86,25.2c1.7,1.11,5.52,2.44,10.81,2.44s9.79-1.33,11.22-2.67"/><path class="cls-6" d="M280.77,8.79c5.66,0,9.57,1.6,10.69,2.59l0,.13,0,.14V31.13c-.49.88-4.71,2.59-10.69,2.59-5.66,0-9.57-1.6-10.69-2.59V11.7l-1-.11,1,.06,0-.13,0-.14c.49-.88,4.71-2.59,10.69-2.59m0-1c-5.79,0-10.74,1.63-11.56,3.1a1,1,0,0,0-.12.64s0,.08,0,.12V31.13a1,1,0,0,0,.32.73c1.29,1.15,5.39,2.86,11.37,2.86,5.79,0,10.74-1.63,11.57-3.1a1,1,0,0,0,.12-.49V11.65a.57.57,0,0,0,0-.13,1,1,0,0,0-.31-.87c-1.29-1.15-5.39-2.86-11.37-2.86Z"/><path class="cls-9" d="M256.34,39.88a12.46,12.46,0,0,1,1.85-.14,3.86,3.86,0,0,1,2.73.84,3.07,3.07,0,0,1,.95,2.41,3.56,3.56,0,0,1-1,2.62,4.15,4.15,0,0,1-3,1,14,14,0,0,1-1.58-.08Zm.87,5.95a5.49,5.49,0,0,0,.88.05A2.59,2.59,0,0,0,261,43a2.4,2.4,0,0,0-2.73-2.59,4.94,4.94,0,0,0-1,.09Z"/><path class="cls-9" d="M265.65,46.52l-.07-.61h0a1.8,1.8,0,0,1-1.48.72,1.38,1.38,0,0,1-1.48-1.39c0-1.17,1-1.81,2.91-1.8v-.1a1,1,0,0,0-1.1-1.12,2.41,2.41,0,0,0-1.26.36l-.2-.58a3,3,0,0,1,1.59-.43c1.48,0,1.84,1,1.84,2v1.81a6.81,6.81,0,0,0,.08,1.16Zm-.13-2.47c-1,0-2,.15-2,1.09a.78.78,0,0,0,.83.84,1.2,1.2,0,0,0,1.17-.81.92.92,0,0,0,0-.28Z"/><path class="cls-9" d="M268.81,40.3v1.38h1.26v.67h-1.26V45c0,.6.17.94.66.94a2,2,0,0,0,.51-.06l0,.66a2.15,2.15,0,0,1-.78.12,1.22,1.22,0,0,1-.95-.37A1.79,1.79,0,0,1,268,45V42.35h-.75v-.67H268V40.53Z"/><path class="cls-9" d="M273.74,46.52l-.07-.61h0a1.8,1.8,0,0,1-1.48.72,1.38,1.38,0,0,1-1.48-1.39c0-1.17,1-1.81,2.91-1.8v-.1a1,1,0,0,0-1.1-1.12,2.41,2.41,0,0,0-1.26.36L271,42a3,3,0,0,1,1.59-.43c1.48,0,1.84,1,1.84,2v1.81a6.81,6.81,0,0,0,.08,1.16Zm-.13-2.47c-1,0-2.05.15-2.05,1.09a.78.78,0,0,0,.83.84,1.2,1.2,0,0,0,1.17-.81.92.92,0,0,0,.05-.28Z"/><path class="cls-9" d="M275.84,46.52c0-.33,0-.82,0-1.25V39.43h.87v3h0a1.8,1.8,0,0,1,1.65-.89,2.17,2.17,0,0,1,2,2.47,2.3,2.3,0,0,1-2.17,2.59,1.72,1.72,0,0,1-1.62-.91h0l0,.8Zm.91-1.94a1.65,1.65,0,0,0,0,.32,1.36,1.36,0,0,0,1.32,1c.92,0,1.47-.75,1.47-1.86s-.5-1.8-1.44-1.8a1.4,1.4,0,0,0-1.34,1.08,1.73,1.73,0,0,0-.05.36Z"/><path class="cls-9" d="M284.25,46.52l-.07-.61h0a1.8,1.8,0,0,1-1.48.72,1.38,1.38,0,0,1-1.48-1.39c0-1.17,1-1.81,2.91-1.8v-.1a1,1,0,0,0-1.1-1.12,2.41,2.41,0,0,0-1.26.36l-.2-.58a3,3,0,0,1,1.59-.43c1.48,0,1.84,1,1.84,2v1.81a6.81,6.81,0,0,0,.08,1.16Zm-.13-2.47c-1,0-2.05.15-2.05,1.09a.78.78,0,0,0,.83.84,1.2,1.2,0,0,0,1.17-.81.92.92,0,0,0,.05-.28Z"/><path class="cls-9" d="M286.27,45.62a2.31,2.31,0,0,0,1.16.35c.64,0,.94-.32.94-.72s-.25-.65-.9-.89c-.87-.31-1.28-.79-1.28-1.37a1.49,1.49,0,0,1,1.67-1.42,2.42,2.42,0,0,1,1.19.3l-.22.64a1.88,1.88,0,0,0-1-.28c-.52,0-.81.3-.81.66s.29.58.92.82c.84.32,1.27.74,1.27,1.46s-.66,1.45-1.81,1.45a2.76,2.76,0,0,1-1.36-.33Z"/><path class="cls-9" d="M290.84,44.26a1.55,1.55,0,0,0,1.66,1.68,3.18,3.18,0,0,0,1.34-.25l.15.63a3.92,3.92,0,0,1-1.61.3A2.25,2.25,0,0,1,290,44.18a2.35,2.35,0,0,1,2.27-2.61,2.05,2.05,0,0,1,2,2.28,3.32,3.32,0,0,1,0,.41Zm2.58-.63a1.25,1.25,0,0,0-1.22-1.43,1.46,1.46,0,0,0-1.35,1.43Z"/><path class="cls-9" d="M295.24,45.62a2.31,2.31,0,0,0,1.16.35c.64,0,.94-.32.94-.72s-.25-.65-.9-.89c-.87-.31-1.28-.79-1.28-1.37a1.49,1.49,0,0,1,1.67-1.42,2.42,2.42,0,0,1,1.19.3l-.22.64a1.88,1.88,0,0,0-1-.28c-.52,0-.81.3-.81.66s.29.58.92.82c.84.32,1.27.74,1.27,1.46s-.66,1.45-1.81,1.45a2.76,2.76,0,0,1-1.36-.33Z"/><path class="cls-9" d="M313.08,44.74l-.7,2.12h-.89l2.28-6.73h1.05l2.3,6.73h-.93l-.72-2.12Zm2.21-.68-.66-1.94c-.15-.44-.25-.84-.35-1.23h0c-.1.4-.21.81-.34,1.22l-.66,2Z"/><path class="cls-9" d="M319,40.13v6.73h-.86V40.13Z"/><path class="cls-9" d="M319.74,47.26,322.52,40h.68l-2.8,7.24Z"/><path class="cls-9" d="M329.61,43.9c-.05-.94-.11-2.07-.1-2.91h0c-.23.79-.51,1.63-.85,2.56l-1.19,3.27h-.66l-1.09-3.21c-.32-1-.59-1.82-.78-2.62h0c0,.84-.07,2-.13,3l-.18,2.89h-.83l.47-6.73h1.11l1.15,3.25c.28.83.51,1.57.68,2.27h0c.17-.68.41-1.42.71-2.27l1.2-3.25h1.11l.42,6.73h-.85Z"/><path class="cls-9" d="M332,40.13h.87v6h2.88v.73H332Z"/><path class="cls-13" d="M250.46,334.61c-6.41,0-10.76-2-12.12-3.29a.82.82,0,0,1-.24-.6V307.46a1.06,1.06,0,0,1,.09-.62c.75-1.45,5.77-3.48,12.25-3.48s10.76,2,12.12,3.29a.84.84,0,0,1,.23.72v23.35a.8.8,0,0,1-.1.41C262,332.58,256.94,334.61,250.46,334.61Z"/><path class="cls-17" d="M250.45,303.73c6.25,0,10.59,2,11.86,3.19a.49.49,0,0,1,.12.4v.25h0v23.15a.47.47,0,0,1-.05.24c-.69,1.34-5.68,3.28-11.92,3.28s-10.59-2-11.86-3.19a.45.45,0,0,1-.12-.33v-23.4a.54.54,0,0,1,.05-.31c.69-1.34,5.68-3.28,11.92-3.28m0-.75c-6.3,0-11.69,1.94-12.59,3.69a1.22,1.22,0,0,0-.12.75.76.76,0,0,0,0,.15v23.15a1.17,1.17,0,0,0,.35.87c1.4,1.37,5.86,3.4,12.38,3.4,6.3,0,11.69-1.95,12.59-3.69a1.24,1.24,0,0,0,.13-.58V307.57a.76.76,0,0,0,0-.15,1.23,1.23,0,0,0-.34-1c-1.4-1.37-5.86-3.4-12.38-3.4Z"/><path class="cls-18" d="M238.58,308.06c1.85,1.31,6,2.9,11.77,2.9s10.65-1.58,12.21-3.18"/><path class="cls-18" d="M238.58,315.87c1.85,1.31,6,2.9,11.77,2.9s10.65-1.59,12.21-3.18"/><path class="cls-18" d="M238.58,323.67c1.85,1.32,6,2.91,11.77,2.91S261,325,262.56,323.4"/><line class="cls-19" x1="370.95" y1="318.98" x2="371.45" y2="318.98"/><line class="cls-20" x1="379.81" y1="318.98" x2="441.45" y2="318.98"/><line class="cls-19" x1="445.63" y1="318.98" x2="446.13" y2="318.98"/><path class="cls-10" d="M520,176.16V112.22c0-6.38-8.37-11.55-18.7-11.55H392.79"/><path class="cls-10" d="M520,189.13V237c0,2.36,0,5.59-4.52,7.8"/><path class="cls-10" d="M331.48,100.67h-109c-6.77,0-12.57,2-15.06,4.89"/><path class="cls-10" d="M334.87,90.47H235.69c-6.16,0-11.45,2.21-13.71,5.35"/><path class="cls-10" d="M529.64,173.55V103.18c0-7-9.2-12.71-20.54-12.71H390"/><path class="cls-10" d="M529.64,186.2v39.46c0,2,0,4.61-4,6.43"/><line class="cls-21" x1="362.55" y1="130.01" x2="362.55" y2="156.94"/><polygon class="cls-22" points="359.28 154.29 359.86 153.74 362.55 156.63 365.24 153.74 365.82 154.29 362.55 157.81 359.28 154.29"/><path class="cls-9" d="M362.18,46.41a4.32,4.32,0,0,1-1.78.32,3.15,3.15,0,0,1-3.33-3.41,3.35,3.35,0,0,1,3.52-3.53,3.61,3.61,0,0,1,1.6.3l-.21.7a3.17,3.17,0,0,0-1.36-.28A2.51,2.51,0,0,0,358,43.29,2.45,2.45,0,0,0,360.58,46a3.48,3.48,0,0,0,1.42-.28Z"/><path class="cls-9" d="M363.15,45.57a3.08,3.08,0,0,0,1.56.44c.89,0,1.41-.47,1.41-1.15s-.36-1-1.27-1.34c-1.1-.39-1.78-1-1.78-1.91a1.93,1.93,0,0,1,2.18-1.82,3.2,3.2,0,0,1,1.49.32l-.24.71a2.71,2.71,0,0,0-1.28-.31c-.92,0-1.27.54-1.27,1,0,.63.41.94,1.34,1.3,1.14.44,1.72,1,1.72,2s-.77,1.94-2.36,1.94a3.48,3.48,0,0,1-1.72-.43Z"/><path class="cls-9" d="M369.68,46.63l-2.2-6.73h.94l1.05,3.31c.29.91.54,1.73.72,2.52h0c.19-.78.47-1.63.77-2.51l1.14-3.32h.93l-2.41,6.73Z"/><line class="cls-16" x1="364.06" y1="52.29" x2="363.84" y2="69.79"/><polygon class="cls-8" points="360.3 66.84 360.95 66.25 363.85 69.45 366.82 66.33 367.46 66.93 363.83 70.73 360.3 66.84"/><path class="cls-9" d="M694.56,277.69a3.35,3.35,0,0,0,1.72.49c1,0,1.55-.52,1.55-1.27s-.4-1.09-1.4-1.47c-1.21-.43-2-1.06-2-2.1a2.14,2.14,0,0,1,2.4-2,3.33,3.33,0,0,1,1.64.37l-.26.78a2.85,2.85,0,0,0-1.41-.36c-1,0-1.4.61-1.4,1.12,0,.69.45,1,1.48,1.43,1.25.48,1.89,1.08,1.89,2.17S698,279,696.21,279a3.78,3.78,0,0,1-1.89-.48Z"/><path class="cls-9" d="M700.08,271.05h1v7.81h-1Z"/><path class="cls-9" d="M705.63,278.86l-.08-.67h0a2,2,0,0,1-1.63.79,1.52,1.52,0,0,1-1.63-1.53c0-1.29,1.15-2,3.2-2v-.11a1.1,1.1,0,0,0-1.21-1.23,2.65,2.65,0,0,0-1.38.39l-.22-.63a3.28,3.28,0,0,1,1.75-.48c1.62,0,2,1.11,2,2.18v2a7.2,7.2,0,0,0,.09,1.28Zm-.14-2.72c-1.06,0-2.26.17-2.26,1.2a.85.85,0,0,0,.91.92,1.32,1.32,0,0,0,1.29-.89,1.13,1.13,0,0,0,.06-.31Z"/><path class="cls-9" d="M711.78,278.66a3.6,3.6,0,0,1-1.53.31,2.53,2.53,0,0,1-2.65-2.72,2.71,2.71,0,0,1,2.86-2.83,3.24,3.24,0,0,1,1.34.28l-.22.75a2.14,2.14,0,0,0-1.12-.26,1.85,1.85,0,0,0-1.88,2,1.82,1.82,0,0,0,1.84,2,2.71,2.71,0,0,0,1.19-.27Z"/><path class="cls-9" d="M713.87,276h0c.13-.19.32-.42.47-.61l1.56-1.84h1.17L715,275.72l2.35,3.14H716.2l-1.84-2.55-.49.55v2h-1v-7.81h1Z"/><line class="cls-7" x1="625.34" y1="208.44" x2="676.26" y2="251.14"/><polygon class="cls-8" points="672.38 251.89 672.34 251.14 676.04 250.95 675.58 247.28 676.33 247.19 676.88 251.66 672.38 251.89"/><line class="cls-7" x1="501.86" y1="323.73" x2="555.06" y2="323.73"/><polygon class="cls-8" points="552.58 326.8 552.07 326.25 554.77 323.74 552.07 321.22 552.58 320.67 555.88 323.74 552.58 326.8"/><line class="cls-23" x1="244.95" y1="265.58" x2="244.95" y2="286.91"/><polygon class="cls-24" points="241.88 284.42 242.43 283.91 244.95 286.62 247.46 283.91 248.01 284.42 244.95 287.72 241.88 284.42"/><line class="cls-23" x1="261.64" y1="262.07" x2="261.64" y2="279.26"/><polygon class="cls-24" points="258.57 276.77 259.12 276.26 261.63 278.97 264.15 276.26 264.7 276.77 261.63 280.07 258.57 276.77"/><line class="cls-23" x1="277.86" y1="259.71" x2="277.86" y2="271.86"/><polygon class="cls-24" points="274.8 269.37 275.35 268.86 277.86 271.57 280.38 268.86 280.93 269.37 277.86 272.67 274.8 269.37"/><line class="cls-23" x1="432.8" y1="286.81" x2="432.8" y2="266.12"/><polygon class="cls-24" points="435.87 268.6 435.32 269.11 432.8 266.4 430.28 269.11 429.73 268.6 432.8 265.3 435.87 268.6"/><line class="cls-23" x1="447.99" y1="279.48" x2="447.99" y2="262.82"/><polygon class="cls-24" points="451.06 265.31 450.51 265.82 447.99 263.11 445.47 265.82 444.92 265.31 447.99 262.01 451.06 265.31"/><line class="cls-25" x1="463.18" y1="272.3" x2="463.18" y2="260.57"/><polygon class="cls-24" points="466.46 263.22 465.87 263.77 463.19 260.88 460.5 263.77 459.91 263.22 463.19 259.7 466.46 263.22"/><path class="cls-9" d="M403.53,43.47h-2.62V45.9h2.92v.73H400V39.9h3.64v.72h-2.77v2.13h2.62Z"/><path class="cls-9" d="M405,40a9.06,9.06,0,0,1,1.67-.14,2.76,2.76,0,0,1,1.95.55,1.66,1.66,0,0,1,.53,1.27,1.77,1.77,0,0,1-1.27,1.72v0a1.68,1.68,0,0,1,1,1.36,10.73,10.73,0,0,0,.52,1.85h-.9A8.73,8.73,0,0,1,408,45c-.2-.93-.56-1.28-1.35-1.31h-.82v2.92H405Zm.87,3.06h.89c.93,0,1.52-.51,1.52-1.28s-.63-1.24-1.55-1.26a3.58,3.58,0,0,0-.86.08Z"/><path class="cls-9" d="M410.34,40a10.08,10.08,0,0,1,1.67-.13,2.77,2.77,0,0,1,1.89.56,1.78,1.78,0,0,1,.59,1.4,2,2,0,0,1-.52,1.44,2.79,2.79,0,0,1-2.06.74,3,3,0,0,1-.7-.06v2.7h-.87Zm.87,3.24a2.92,2.92,0,0,0,.72.07c1.05,0,1.69-.51,1.69-1.44S413,40.53,412,40.53a3.65,3.65,0,0,0-.82.07Z"/><path class="cls-9" d="M441.84,44.51l-.7,2.12h-.9l2.29-6.73h1.05l2.3,6.73H445l-.72-2.12Zm2.21-.68-.66-1.94c-.15-.44-.25-.84-.35-1.23h0c-.1.4-.21.81-.34,1.22L442,43.83Z"/><path class="cls-9" d="M446.87,40a10.08,10.08,0,0,1,1.67-.13,2.77,2.77,0,0,1,1.89.56,1.78,1.78,0,0,1,.59,1.4,2,2,0,0,1-.52,1.44,2.79,2.79,0,0,1-2.06.74,3,3,0,0,1-.7-.06v2.7h-.87Zm.87,3.24a2.92,2.92,0,0,0,.72.07c1.05,0,1.69-.51,1.69-1.44s-.63-1.32-1.59-1.32a3.65,3.65,0,0,0-.82.07Z"/><path class="cls-9" d="M452.19,40a10.08,10.08,0,0,1,1.67-.13,2.77,2.77,0,0,1,1.89.56,1.78,1.78,0,0,1,.59,1.4,2,2,0,0,1-.52,1.44,2.79,2.79,0,0,1-2.06.74,3,3,0,0,1-.7-.06v2.7h-.87Zm.87,3.24a2.92,2.92,0,0,0,.72.07c1.05,0,1.69-.51,1.69-1.44s-.63-1.32-1.59-1.32a3.65,3.65,0,0,0-.82.07Z"/><path class="cls-9" d="M457.39,45.57A3.08,3.08,0,0,0,459,46c.89,0,1.41-.47,1.41-1.15s-.36-1-1.27-1.34c-1.1-.39-1.78-1-1.78-1.91a1.93,1.93,0,0,1,2.18-1.82,3.2,3.2,0,0,1,1.49.32l-.24.71a2.71,2.71,0,0,0-1.28-.31c-.92,0-1.27.54-1.27,1,0,.63.41.94,1.34,1.3,1.14.44,1.72,1,1.72,2s-.77,1.94-2.36,1.94a3.48,3.48,0,0,1-1.72-.43Z"/><line class="cls-7" x1="288.6" y1="185.37" x2="329.58" y2="185.37"/><polygon class="cls-8" points="327.1 188.44 326.58 187.89 329.29 185.37 326.58 182.85 327.1 182.31 330.39 185.37 327.1 188.44"/><path class="cls-4" d="M710.89,263.83h0a1.64,1.64,0,0,1-1.53,1.73H694a.64.64,0,0,0-.41.16,3.56,3.56,0,0,1-2.44,1h-.12a6.55,6.55,0,0,0,1.15-3.72V255a1.65,1.65,0,0,1,1.53-1.74h15.61a1.64,1.64,0,0,1,1.53,1.74Zm-10.48-12v-5.3a1.57,1.57,0,0,1,1.53-1.61h15.61a1.58,1.58,0,0,1,1.54,1.61v7.33a5.67,5.67,0,0,0,1.15,3.43h-.12a3.83,3.83,0,0,1-2.45-.89.59.59,0,0,0-.4-.15h-5.16"/><line class="cls-26" x1="695.86" y1="256.09" x2="707.28" y2="256.09"/><line class="cls-26" x1="695.86" y1="260.75" x2="707.28" y2="260.75"/><line class="cls-26" x1="695.86" y1="263.07" x2="707.28" y2="263.07"/><line class="cls-26" x1="695.86" y1="258.42" x2="707.28" y2="258.42"/><line class="cls-26" x1="704.09" y1="247.17" x2="715.51" y2="247.17"/><line class="cls-26" x1="704.09" y1="251.61" x2="715.51" y2="251.61"/><line class="cls-26" x1="712.6" y1="253.61" x2="715.51" y2="253.61"/><line class="cls-26" x1="704.09" y1="249.4" x2="715.51" y2="249.4"/><path class="cls-13" d="M297,334.27c-6.4,0-10.76-2-12.12-3.29a.82.82,0,0,1-.24-.6V307.13a1.17,1.17,0,0,1,.09-.63c.75-1.45,5.77-3.48,12.26-3.48s10.75,2,12.12,3.29a.86.86,0,0,1,.22.72v23.35a.91.91,0,0,1-.09.41C308.5,332.25,303.47,334.27,297,334.27Z"/><path class="cls-17" d="M297,303.4c6.24,0,10.59,2,11.85,3.18a.46.46,0,0,1,.12.4v.25h0v23.15a.48.48,0,0,1-.06.24c-.69,1.34-5.67,3.28-11.92,3.28s-10.59-1.95-11.86-3.19a.49.49,0,0,1-.12-.33v-23.3l0-.1a.63.63,0,0,1,.05-.31c.69-1.33,5.68-3.27,11.93-3.27m0-.75c-6.3,0-11.7,1.94-12.59,3.68a1.31,1.31,0,0,0-.13.75c0,.05,0,.1,0,.15v23.15a1.21,1.21,0,0,0,.35.87c1.41,1.37,5.86,3.4,12.38,3.4,6.3,0,11.69-1.94,12.59-3.69a1.24,1.24,0,0,0,.14-.58V307.23a.77.77,0,0,0,0-.15,1.23,1.23,0,0,0-.33-1c-1.41-1.36-5.87-3.39-12.38-3.39Z"/><path class="cls-18" d="M285.11,307.72c1.85,1.31,6,2.9,11.77,2.9s10.65-1.58,12.21-3.18"/><path class="cls-18" d="M285.11,315.53c1.85,1.31,6,2.9,11.77,2.9s10.65-1.59,12.21-3.18"/><path class="cls-18" d="M285.11,323.34c1.85,1.31,6,2.9,11.77,2.9s10.65-1.59,12.21-3.18"/><path class="cls-13" d="M343.52,333.66c-6.4,0-10.75-2-12.12-3.29a.85.85,0,0,1-.23-.6V306.51a1,1,0,0,1,.08-.62c.75-1.46,5.78-3.49,12.26-3.49s10.75,2,12.12,3.29a.87.87,0,0,1,.22.73v23.35a1,1,0,0,1-.09.41C355,331.63,350,333.66,343.52,333.66Z"/><path class="cls-17" d="M343.52,302.78c6.25,0,10.59,2,11.86,3.18a.5.5,0,0,1,.11.41v.24h0v23.15a.44.44,0,0,1-.06.23c-.68,1.34-5.67,3.28-11.92,3.28s-10.59-1.95-11.86-3.18a.49.49,0,0,1-.12-.33v-23.4a.47.47,0,0,1,.05-.31c.68-1.34,5.67-3.28,11.92-3.28m0-.75c-6.3,0-11.69,1.94-12.59,3.68a1.35,1.35,0,0,0-.13.76s0,.09,0,.14v23.16a1.24,1.24,0,0,0,.35.87C332.55,332,337,334,343.52,334c6.3,0,11.69-1.94,12.59-3.68a1.3,1.3,0,0,0,.14-.58V306.62c0-.06,0-.11,0-.16a1.24,1.24,0,0,0-.34-1c-1.41-1.36-5.87-3.39-12.38-3.39Z"/><path class="cls-18" d="M331.64,307.11c1.86,1.31,6,2.9,11.77,2.9s10.65-1.59,12.22-3.18"/><path class="cls-18" d="M331.64,314.91c1.86,1.32,6,2.91,11.77,2.91s10.65-1.59,12.22-3.18"/><path class="cls-18" d="M331.64,322.72c1.86,1.31,6,2.9,11.77,2.9s10.65-1.59,12.22-3.18"/><path class="cls-13" d="M470.08,334.49c-6.41,0-10.76-2-12.12-3.29a.86.86,0,0,1-.24-.6V307.34a1.11,1.11,0,0,1,.09-.62c.75-1.46,5.77-3.48,12.26-3.48s10.75,2,12.11,3.28a.86.86,0,0,1,.23.73V330.6a.86.86,0,0,1-.1.41C481.58,332.46,476.56,334.49,470.08,334.49Z"/><path class="cls-17" d="M470.08,303.61c6.24,0,10.58,1.95,11.85,3.18a.51.51,0,0,1,.12.41v.24h0V330.6a.5.5,0,0,1-.06.24c-.69,1.33-5.68,3.27-11.92,3.27s-10.59-1.95-11.86-3.18a.45.45,0,0,1-.12-.33V307.38l0-.09,0-.09a.54.54,0,0,1,0-.31c.69-1.34,5.68-3.28,11.93-3.28m0-.75c-6.31,0-11.7,1.94-12.6,3.68a1.27,1.27,0,0,0-.12.76.76.76,0,0,0,0,.15V330.6a1.24,1.24,0,0,0,.35.87c1.4,1.36,5.86,3.39,12.38,3.39,6.3,0,11.69-1.94,12.59-3.68a1.3,1.3,0,0,0,.14-.58V307.45a.68.68,0,0,0,0-.15,1.22,1.22,0,0,0-.34-1c-1.4-1.37-5.86-3.4-12.37-3.4Z"/><path class="cls-18" d="M458.2,307.94c1.85,1.31,6,2.9,11.77,2.9s10.65-1.59,12.21-3.18"/><path class="cls-18" d="M458.2,315.74c1.85,1.32,6,2.91,11.77,2.91s10.65-1.59,12.21-3.18"/><path class="cls-18" d="M458.2,323.55c1.85,1.31,6,2.9,11.77,2.9s10.65-1.58,12.21-3.18"/><line class="cls-27" x1="358.55" y1="15.61" x2="373.48" y2="15.61"/><path class="cls-4" d="M377.07,13.44V32.69a2,2,0,0,1-1.95,2h-17.8a2,2,0,0,1-1.95-2V11.06a2,2,0,0,1,1.95-2h13.56Z"/><polyline class="cls-4" points="370.56 9.1 370.56 13.57 377.07 13.57"/><line class="cls-27" x1="358.55" y1="12.48" x2="368.22" y2="12.48"/><line class="cls-27" x1="358.55" y1="18.74" x2="368.41" y2="18.74"/><line class="cls-27" x1="358.55" y1="21.87" x2="370.79" y2="21.87"/><line class="cls-27" x1="358.55" y1="25" x2="373.48" y2="25"/><line class="cls-27" x1="358.55" y1="28.13" x2="373.48" y2="28.13"/><line class="cls-27" x1="358.55" y1="31.26" x2="365.92" y2="31.26"/><path class="cls-28" d="M402.58,33.74a37.11,37.11,0,0,0,7.06-5.47c-.46-.62-.94-1.26-1.42-1.93h-.65c-.51,0-1,0-1.5,0A2.24,2.24,0,0,1,404,27.68a2.09,2.09,0,0,1-.67-.12c-1.33,2.17-2.34,4-2.92,5.07A13.75,13.75,0,0,0,402.58,33.74Z"/><path class="cls-28" d="M420,15.76c-.57,1-1.25,2.12-2,3.34,1.21.33,2.26.69,3.12,1A13.21,13.21,0,0,0,420,15.76Z"/><path class="cls-28" d="M415.24,13.4a2.33,2.33,0,0,1,.11.65,2.22,2.22,0,0,1-.74,1.65c.21.34.42.67.64,1,.48.7,1,1.4,1.48,2.07l.07,0c1-1.6,1.87-3.06,2.56-4.26a12.94,12.94,0,0,0-1.95-2.62C416.77,12.31,416,12.81,415.24,13.4Z"/><path class="cls-28" d="M412.67,23.21a2.2,2.2,0,0,1,1,.25c.88-1.22,1.7-2.43,2.45-3.6l0,0a34,34,0,0,0-6.77-.88c-.35.42-.7.85-1,1.3-.52.69-1,1.39-1.5,2.08.65.93,1.33,1.9,2,2.86l1.67,0A2.22,2.22,0,0,1,412.67,23.21Z"/><path class="cls-28" d="M411,26.88a2.26,2.26,0,0,1-.37-.59l-1,0,.83,1.12Z"/><path class="cls-28" d="M404,23.21a2.15,2.15,0,0,1,.67.12c.22-.34.45-.67.68-1l-.53-.78a21.87,21.87,0,0,1-1.41-2.45c-4,.25-7.41.69-9.23,1,0,.39-.05.78-.05,1.17s0,.79.05,1.18a37.82,37.82,0,0,0,7.74,2.27A2.21,2.21,0,0,1,404,23.21Z"/><path class="cls-28" d="M407.82,18.93c-1.06,0-2.12.05-3.14.1a21,21,0,0,0,1.11,1.87l.28.41c.41-.59.84-1.18,1.28-1.76C407.51,19.34,407.66,19.13,407.82,18.93Z"/><path class="cls-28" d="M406.21,25.16q.59,0,1.17,0l-1.31-1.86-.42.61A2.22,2.22,0,0,1,406.21,25.16Z"/><path class="cls-28" d="M402.37,26.94a2.13,2.13,0,0,1-.55-1.1,37.73,37.73,0,0,1-7.44-2.11A13.44,13.44,0,0,0,399.46,32C400.07,30.85,401.07,29.06,402.37,26.94Z"/><path class="cls-28" d="M402.87,18A55.54,55.54,0,0,1,400,10.08a13.44,13.44,0,0,0-5.68,8.78C396.18,18.6,399.28,18.21,402.87,18Z"/><path class="cls-28" d="M404.11,17.9c1.45-.08,3-.13,4.48-.13h.19a35.31,35.31,0,0,1,2.45-2.55,2.23,2.23,0,0,1-.34-1.18,2.2,2.2,0,0,1,.6-1.51,47.67,47.67,0,0,1-2.12-4.7,12.47,12.47,0,0,0-1.73-.12,13.48,13.48,0,0,0-6.59,1.72A55.29,55.29,0,0,0,404.11,17.9Z"/><path class="cls-28" d="M411.23,30.39l-.89-1.18a37.56,37.56,0,0,1-6.33,5,13.2,13.2,0,0,0,3.63.5,13.51,13.51,0,0,0,5.86-1.33Z"/><path class="cls-28" d="M414.81,26a2.23,2.23,0,0,1-2.14,1.64,2.26,2.26,0,0,1-.74-.14c-.25.29-.51.57-.77.84,1.34,1.79,2.55,3.37,3.38,4.44a13.5,13.5,0,0,0,5.92-7.37C419,25.64,417,25.86,414.81,26Z"/><path class="cls-28" d="M410.3,17.82a33.72,33.72,0,0,1,4.74.59c-.27-.37-.52-.73-.75-1.07s-.48-.73-.71-1.11a1.75,1.75,0,0,1-.46.05,2.25,2.25,0,0,1-1-.26C411.49,16.58,410.89,17.18,410.3,17.82Z"/><path class="cls-28" d="M412.47,11.93a2,2,0,0,1,.65-.11,2.23,2.23,0,0,1,1.5.59c.69-.52,1.34-1,1.92-1.33a13.38,13.38,0,0,0-5.84-3C411.12,9.08,411.72,10.44,412.47,11.93Z"/><path class="cls-28" d="M421.14,21.38a33,33,0,0,0-3.25-1.09c1,1.33,2.07,2.54,3,3.58A13.65,13.65,0,0,0,421.14,21.38Z"/><path class="cls-28" d="M419.77,24.37c-.94-1.09-1.95-2.32-2.91-3.54-.72,1.11-1.5,2.25-2.33,3.4a2.23,2.23,0,0,1,.29.65C416.7,24.73,418.4,24.54,419.77,24.37Z"/><path class="cls-28" d="M453.66,18.59H449.5a1.64,1.64,0,0,0-1.64,1.64V24.4A1.64,1.64,0,0,0,449.5,26h4.16a1.65,1.65,0,0,0,1.64-1.64V20.23A1.65,1.65,0,0,0,453.66,18.59Z"/><path class="cls-28" d="M444.6,18.59h-4.17a1.65,1.65,0,0,0-1.64,1.64V24.4A1.65,1.65,0,0,0,440.43,26h4.17a1.65,1.65,0,0,0,1.64-1.64V20.23A1.65,1.65,0,0,0,444.6,18.59Z"/><path class="cls-28" d="M462.81,18.59h-4.17A1.65,1.65,0,0,0,457,20.23V24.4A1.65,1.65,0,0,0,458.64,26h4.17a1.65,1.65,0,0,0,1.64-1.64V20.23A1.65,1.65,0,0,0,462.81,18.59Z"/><path class="cls-28" d="M453.7,9.72h-4.16a1.64,1.64,0,0,0-1.64,1.64v4.16a1.63,1.63,0,0,0,1.64,1.64h4.16a1.63,1.63,0,0,0,1.64-1.64V11.36A1.64,1.64,0,0,0,453.7,9.72Z"/><path class="cls-28" d="M444.6,9.72h-4.17a1.65,1.65,0,0,0-1.64,1.64v4.16a1.64,1.64,0,0,0,1.64,1.64h4.17a1.64,1.64,0,0,0,1.64-1.64V11.36A1.65,1.65,0,0,0,444.6,9.72Z"/><path class="cls-28" d="M462.81,9.72h-4.17A1.65,1.65,0,0,0,457,11.36v4.16a1.64,1.64,0,0,0,1.64,1.64h4.17a1.64,1.64,0,0,0,1.64-1.64V11.36A1.65,1.65,0,0,0,462.81,9.72Z"/><path class="cls-28" d="M453.66,27.28H449.5a1.64,1.64,0,0,0-1.64,1.64v4.16a1.63,1.63,0,0,0,1.64,1.64h4.16a1.64,1.64,0,0,0,1.64-1.64V28.92A1.65,1.65,0,0,0,453.66,27.28Z"/><path class="cls-28" d="M444.6,27.28h-4.17a1.65,1.65,0,0,0-1.64,1.64v4.16a1.64,1.64,0,0,0,1.64,1.64h4.17a1.64,1.64,0,0,0,1.64-1.64V28.92A1.65,1.65,0,0,0,444.6,27.28Z"/><path class="cls-28" d="M462.81,27.28h-4.17A1.65,1.65,0,0,0,457,28.92v4.16a1.64,1.64,0,0,0,1.64,1.64h4.17a1.64,1.64,0,0,0,1.64-1.64V28.92A1.65,1.65,0,0,0,462.81,27.28Z"/><circle class="cls-10" cx="362.53" cy="102.13" r="21"/><path class="cls-9" d="M688.16,82.71a3.65,3.65,0,0,0,1.87.53c1.06,0,1.69-.56,1.69-1.38s-.43-1.18-1.52-1.6c-1.32-.47-2.14-1.16-2.14-2.29a2.33,2.33,0,0,1,2.61-2.2,3.6,3.6,0,0,1,1.79.4l-.29.85a3.11,3.11,0,0,0-1.53-.39c-1.1,0-1.52.66-1.52,1.21,0,.76.49,1.13,1.6,1.56,1.37.53,2.07,1.19,2.07,2.38s-.93,2.33-2.83,2.33a4.18,4.18,0,0,1-2.07-.52Z"/><path class="cls-9" d="M694.18,80.08c0-.75,0-1.35,0-1.9h1l0,1h0a2.28,2.28,0,0,1,2.06-1.13c1.41,0,2.46,1.19,2.46,3,0,2.09-1.27,3.12-2.64,3.12a2,2,0,0,1-1.78-.91h0v3.15h-1Zm1,1.54a2.68,2.68,0,0,0,0,.43,1.62,1.62,0,0,0,1.58,1.24c1.12,0,1.77-.91,1.77-2.24,0-1.17-.61-2.16-1.73-2.16a1.67,1.67,0,0,0-1.59,1.31,1.49,1.49,0,0,0-.08.43Z"/><path class="cls-9" d="M701,75.47h1V84h-1Z"/><path class="cls-9" d="M708.7,82.4c0,.6,0,1.13,0,1.59h-.94l-.06-.95h0a2.19,2.19,0,0,1-1.92,1.08c-.92,0-2-.51-2-2.55V78.18h1.06v3.21c0,1.11.33,1.85,1.29,1.85a1.52,1.52,0,0,0,1.39-1,1.33,1.33,0,0,0,.1-.54V78.18h1.06Z"/><path class="cls-9" d="M710.45,79.75c0-.6,0-1.09-.05-1.57h.94l.06,1h0a2.14,2.14,0,0,1,1.92-1.09c.81,0,2,.48,2,2.47V84h-1V80.64c0-.94-.35-1.72-1.35-1.72A1.51,1.51,0,0,0,711.58,80a1.55,1.55,0,0,0-.07.5V84h-1.06Z"/><path class="cls-9" d="M718.16,80.84h0c.14-.2.35-.45.52-.66l1.7-2h1.27l-2.24,2.39L722,84H720.7l-2-2.79-.54.6V84h-1V75.47h1Z"/><circle class="cls-29" cx="361.48" cy="185.65" r="21"/><path class="cls-30" d="M244.6,216.13h-3.14v2.92H245v.87h-4.54v-8.08h4.36v.87h-3.32v2.56h3.14Z"/><path class="cls-30" d="M246.78,214.12l.82,1.24c.22.33.4.63.59.95h0c.19-.35.38-.65.57-1l.82-1.23h1.14l-2,2.8,2,3h-1.2l-.85-1.3c-.23-.34-.42-.66-.63-1h0c-.19.35-.4.66-.61,1l-.84,1.3H245.5l2.07-3-2-2.84Z"/><path class="cls-30" d="M253.27,212.45v1.67h1.51v.8h-1.51v3.13c0,.72.2,1.13.79,1.13a2.68,2.68,0,0,0,.61-.07l.05.79a2.73,2.73,0,0,1-.94.14,1.47,1.47,0,0,1-1.14-.44,2.15,2.15,0,0,1-.4-1.51v-3.17h-.9v-.8h.9v-1.39Z"/><path class="cls-30" d="M256,215.93c0-.68,0-1.27-.05-1.81h.92l0,1.14h.05a1.74,1.74,0,0,1,1.6-1.27,1.32,1.32,0,0,1,.3,0v1a1.23,1.23,0,0,0-.36,0,1.47,1.47,0,0,0-1.41,1.36,2.38,2.38,0,0,0-.05.49v3.09h-1Z"/><path class="cls-30" d="M263.05,219.92l-.09-.73h0a2.16,2.16,0,0,1-1.78.86,1.65,1.65,0,0,1-1.77-1.66c0-1.41,1.24-2.17,3.49-2.16v-.12a1.2,1.2,0,0,0-1.32-1.34,2.81,2.81,0,0,0-1.51.43l-.24-.7a3.6,3.6,0,0,1,1.9-.51c1.78,0,2.21,1.21,2.21,2.37v2.17a7.38,7.38,0,0,0,.1,1.39Zm-.16-3c-1.15,0-2.46.18-2.46,1.31a.93.93,0,0,0,1,1,1.45,1.45,0,0,0,1.4-1,.92.92,0,0,0,.06-.33Z"/><path class="cls-30" d="M269.75,219.71a3.9,3.9,0,0,1-1.66.33,2.76,2.76,0,0,1-2.89-3,2.94,2.94,0,0,1,3.11-3.08,3.45,3.45,0,0,1,1.47.3l-.24.81a2.51,2.51,0,0,0-1.23-.27,2.19,2.19,0,0,0,0,4.36,2.86,2.86,0,0,0,1.29-.29Z"/><path class="cls-30" d="M272.42,212.45v1.67h1.51v.8h-1.51v3.13c0,.72.2,1.13.79,1.13a2.6,2.6,0,0,0,.61-.07l.05.79a2.69,2.69,0,0,1-.94.14,1.43,1.43,0,0,1-1.13-.44,2.15,2.15,0,0,1-.41-1.51v-3.17h-.9v-.8h.9v-1.39Z"/><path class="cls-31" d="M470.45,190.54a1.11,1.11,0,0,0,1.13-1.12V189a2.84,2.84,0,0,0-.87-2.06,2.18,2.18,0,0,1-.64-1.54v-2.71a4.89,4.89,0,0,0-3.78-4.74H464a4.9,4.9,0,0,0-3.78,4.74v2.71a2.11,2.11,0,0,1-.64,1.54,2.88,2.88,0,0,0-.87,2.06v.46a1.11,1.11,0,0,0,1.14,1.12h9.06"/><path class="cls-32" d="M456.84,179.84a6.91,6.91,0,0,0-2.27,3.53,7.87,7.87,0,0,0,1.26,6"/><path class="cls-32" d="M474.46,189.31a7,7,0,0,0,1.37-4,7.92,7.92,0,0,0-2.65-5.5"/><path class="cls-32" d="M452.3,181.6a6.11,6.11,0,0,0-.62,1.41,6.61,6.61,0,0,0,0,3.45"/><path class="cls-32" d="M478.58,186.44a6,6,0,0,0,.17-1.4,6.6,6.6,0,0,0-1-3.44"/><path class="cls-31" d="M466,177.91c0-.79-.39-1.43-.86-1.43s-.86.64-.86,1.43"/><line class="cls-32" x1="462.51" y1="181.6" x2="462.51" y2="184.58"/><path class="cls-32" d="M463.46,192a1.73,1.73,0,0,0,3.41,0"/><path class="cls-15" d="M569,212.45a15.93,15.93,0,0,1,2.22-.16,4.6,4.6,0,0,1,3.27,1,3.73,3.73,0,0,1,1.14,2.9,4.32,4.32,0,0,1-1.16,3.15,5,5,0,0,1-3.57,1.16,16.77,16.77,0,0,1-1.9-.1Zm1,7.15a6.45,6.45,0,0,0,1.06.06,3.11,3.11,0,0,0,3.44-3.43c0-1.91-1.07-3.12-3.27-3.12a6,6,0,0,0-1.23.11Z"/><path class="cls-15" d="M578.13,213a.62.62,0,0,1-.67.65.63.63,0,0,1-.64-.65.65.65,0,0,1,.66-.66A.63.63,0,0,1,578.13,213ZM577,220.43v-5.81h1v5.81Z"/><path class="cls-15" d="M579.62,219.35a2.79,2.79,0,0,0,1.39.42c.77,0,1.13-.38,1.13-.86s-.3-.78-1.08-1.07c-1-.37-1.54-1-1.54-1.65a1.8,1.8,0,0,1,2-1.7,2.87,2.87,0,0,1,1.42.36l-.26.77a2.31,2.31,0,0,0-1.19-.34c-.62,0-1,.36-1,.8s.35.69,1.1,1c1,.38,1.53.89,1.53,1.75,0,1-.79,1.74-2.17,1.74a3.27,3.27,0,0,1-1.63-.4Z"/><path class="cls-15" d="M584.52,216.52c0-.74,0-1.34,0-1.9h.95l0,1h0a2.27,2.27,0,0,1,2.06-1.13c1.4,0,2.46,1.19,2.46,2.95,0,2.09-1.27,3.12-2.64,3.12a2.05,2.05,0,0,1-1.79-.91h0v3.15h-1Zm1,1.55a2,2,0,0,0,.05.43,1.63,1.63,0,0,0,1.58,1.23c1.12,0,1.76-.91,1.76-2.24,0-1.16-.61-2.16-1.72-2.16a1.69,1.69,0,0,0-1.6,1.31,2,2,0,0,0-.07.43Z"/><path class="cls-15" d="M594.56,220.43l-.09-.73h0a2.18,2.18,0,0,1-1.78.86,1.65,1.65,0,0,1-1.77-1.67c0-1.4,1.25-2.17,3.49-2.16v-.12a1.2,1.2,0,0,0-1.32-1.34,2.93,2.93,0,0,0-1.51.43l-.24-.69a3.6,3.6,0,0,1,1.9-.52c1.78,0,2.21,1.21,2.21,2.38V219a8.4,8.4,0,0,0,.1,1.39Zm-.16-3c-1.15,0-2.46.18-2.46,1.3a.94.94,0,0,0,1,1,1.44,1.44,0,0,0,1.4-1,1,1,0,0,0,.06-.34Z"/><path class="cls-15" d="M598.35,213v1.66h1.51v.81h-1.51v3.13c0,.72.2,1.13.79,1.13a2.08,2.08,0,0,0,.61-.08l0,.79a2.42,2.42,0,0,1-.93.15,1.45,1.45,0,0,1-1.14-.45,2.13,2.13,0,0,1-.41-1.51v-3.16h-.9v-.81h.9v-1.39Z"/><path class="cls-15" d="M605.12,220.21a3.81,3.81,0,0,1-1.67.34,2.76,2.76,0,0,1-2.89-3,3,3,0,0,1,3.12-3.09,3.6,3.6,0,0,1,1.46.3l-.24.82a2.48,2.48,0,0,0-1.22-.28,2,2,0,0,0-2,2.2,2,2,0,0,0,2,2.17,3,3,0,0,0,1.3-.29Z"/><path class="cls-15" d="M606.36,211.91h1v3.63h0a1.93,1.93,0,0,1,.75-.75,2.16,2.16,0,0,1,1.08-.3c.78,0,2,.48,2,2.48v3.46h-1.06v-3.34c0-.93-.35-1.72-1.34-1.72a1.52,1.52,0,0,0-1.42,1,1.31,1.31,0,0,0-.07.51v3.5h-1Z"/><ellipse class="cls-11" cx="375.74" cy="97.96" rx="1.49" ry="1.47"/><ellipse class="cls-11" cx="355.9" cy="93.31" rx="1.49" ry="1.47"/><ellipse class="cls-11" cx="369.94" cy="93.31" rx="1.49" ry="1.47"/><ellipse class="cls-11" cx="362.92" cy="91.26" rx="1.49" ry="1.47"/><rect class="cls-12" x="357.33" y="110.05" width="11.17" height="2.3" transform="translate(725.83 222.4) rotate(-180)"/><ellipse class="cls-11" cx="350.17" cy="97.71" rx="1.49" ry="1.47"/><path class="cls-11" d="M358.28,106.85l-5.22-6.12"/><path class="cls-11" d="M361.13,105.84l-3.8-9.35"/><path class="cls-11" d="M373.32,100.73l-5.22,6.12"/><path class="cls-11" d="M369,96.49l-3.8,9.35"/><path class="cls-11" d="M363.33,95.72l0,10"/><path class="cls-15" d="M139.59,221.5a5,5,0,0,1-2.13.39,3.78,3.78,0,0,1-4-4.09,4,4,0,0,1,4.23-4.25,4.35,4.35,0,0,1,1.91.36l-.25.85a3.82,3.82,0,0,0-1.63-.33,3,3,0,0,0-3.15,3.33,2.94,2.94,0,0,0,3.1,3.25,4.27,4.27,0,0,0,1.71-.33Z"/><path class="cls-15" d="M146,218.82a2.84,2.84,0,0,1-2.89,3.08,2.76,2.76,0,0,1-2.78-3,2.83,2.83,0,0,1,2.87-3.08A2.75,2.75,0,0,1,146,218.82Zm-4.61.06c0,1.27.73,2.23,1.77,2.23s1.76-1,1.76-2.26c0-1-.49-2.23-1.74-2.23S141.38,217.77,141.38,218.88Z"/><path class="cls-15" d="M147.32,213.25h1.06v8.52h-1.06Z"/><path class="cls-15" d="M150.16,213.25h1.05v8.52h-1.05Z"/><path class="cls-15" d="M153.57,219.06a1.87,1.87,0,0,0,2,2,3.75,3.75,0,0,0,1.6-.3l.18.76a4.63,4.63,0,0,1-1.93.36,2.69,2.69,0,0,1-2.85-2.93c0-1.75,1-3.13,2.72-3.13a2.46,2.46,0,0,1,2.4,2.73,4.36,4.36,0,0,1,0,.5Zm3.1-.76a1.5,1.5,0,0,0-1.46-1.71,1.74,1.74,0,0,0-1.62,1.71Z"/><path class="cls-15" d="M163.14,221.55a3.81,3.81,0,0,1-1.67.34,2.76,2.76,0,0,1-2.89-3,3,3,0,0,1,3.12-3.08,3.6,3.6,0,0,1,1.46.3l-.24.82a2.37,2.37,0,0,0-1.22-.28,2,2,0,0,0-2,2.2,2,2,0,0,0,2,2.17,3,3,0,0,0,1.3-.29Z"/><path class="cls-15" d="M165.8,214.3V216h1.51v.81H165.8v3.13c0,.72.21,1.12.79,1.12a2.29,2.29,0,0,0,.62-.07l0,.79a2.39,2.39,0,0,1-.93.15,1.46,1.46,0,0,1-1.14-.45,2.13,2.13,0,0,1-.41-1.51v-3.16h-.9V216h.9v-1.39Z"/><path class="cls-33" d="M267.26,195.41,265.79,200"/><polygon class="cls-34" points="265.03 196.79 267.17 195.69 268.26 197.83 268.7 196.46 267.61 194.32 265.47 195.42 265.03 196.79"/><path class="cls-33" d="M258.12,195.51c-.49,1.51-1,3-1.46,4.54"/><polygon class="cls-34" points="255.9 196.89 258.03 195.79 259.12 197.93 259.57 196.56 258.47 194.43 256.34 195.52 255.9 196.89"/><polygon class="cls-35" points="272.98 189.97 270.9 188.87 268.86 190.05 269.21 187.62 267.51 185.94 269.81 185.55 270.8 183.33 271.87 185.51 274.18 185.82 272.55 187.56 272.98 189.97"/><circle class="cls-36" cx="243.64" cy="187.36" r="3.21"/><polygon class="cls-35" points="262.35 190.01 260.27 188.91 258.23 190.09 258.57 187.66 256.88 185.98 259.17 185.59 260.16 183.37 261.24 185.55 263.55 185.86 261.91 187.6 262.35 190.01"/><polygon class="cls-35" points="250.99 190.29 254.18 190.29 252.58 187.53 250.99 184.77 249.39 187.53 247.8 190.29 250.99 190.29"/><polygon class="cls-35" points="374.04 190.44 371.96 189.34 369.93 190.51 370.27 188.09 368.58 186.42 370.87 186.03 371.86 183.81 372.93 185.99 375.23 186.3 373.6 188.03 374.04 190.44"/><polygon class="cls-35" points="363.43 190.47 361.36 189.38 359.32 190.55 359.67 188.13 357.98 186.46 360.27 186.06 361.25 183.85 362.32 186.03 364.63 186.34 363 188.07 363.43 190.47"/><line class="cls-37" x1="361.22" y1="179.47" x2="361.22" y2="181.25"/><line class="cls-37" x1="357.46" y1="181.7" x2="358.94" y2="182.67"/><line class="cls-37" x1="363.56" y1="182.57" x2="365.01" y2="181.54"/><line class="cls-37" x1="371.84" y1="179.38" x2="371.84" y2="181.15"/><line class="cls-37" x1="368.08" y1="181.6" x2="369.56" y2="182.58"/><line class="cls-37" x1="374.19" y1="182.47" x2="375.63" y2="181.44"/><polygon class="cls-35" points="351.89 190.61 349.81 189.51 347.78 190.69 348.13 188.27 346.43 186.6 348.72 186.2 349.71 183.99 350.78 186.16 353.08 186.47 351.45 188.21 351.89 190.61"/><path class="cls-33" d="M369.5,174.78,367,170.69"/><polygon class="cls-34" points="369.89 172.19 369.34 174.52 367.01 173.97 367.76 175.19 370.1 175.75 370.65 173.41 369.89 172.19"/><path class="cls-33" d="M359.57,175.52l-2.52-4.09"/><polygon class="cls-34" points="359.97 172.93 359.42 175.27 357.08 174.71 357.84 175.94 360.17 176.49 360.73 174.16 359.97 172.93"/></svg>