<?xml version="1.0" encoding="UTF-8"?><svg xmlns="http://www.w3.org/2000/svg" viewBox="0 0 1200 369"><defs><style>.cls-1,.cls-2,.cls-3,.cls-4,.cls-5,.cls-6{stroke:#e6e6e6;}.cls-1,.cls-3,.cls-4,.cls-5,.cls-6{fill:none;}.cls-1,.cls-4,.cls-6{stroke-linecap:round;}.cls-1,.cls-6{stroke-linejoin:round;}.cls-7{letter-spacing:0em;}.cls-8{letter-spacing:-.02em;}.cls-9,.cls-2,.cls-10{fill:#e6e6e6;}.cls-11{fill:#ccc;}.cls-2,.cls-3,.cls-4,.cls-5{stroke-miterlimit:10;}.cls-2,.cls-4,.cls-5{stroke-width:2px;}.cls-10{font-family:Verdana, Verdana;font-size:25px;}.cls-3{stroke-width:2.5px;}.cls-12{letter-spacing:-.1em;}.cls-6{stroke-width:3px;}</style></defs><g id="After"><g id="Lines"><line class="cls-1" x1="535.5" y1="157.5" x2="487.5" y2="157.5"/><line class="cls-1" x1="698.5" y1="156.5" x2="660.5" y2="156.5"/><line class="cls-1" x1="858.5" y1="155.5" x2="820.5" y2="155.5"/><line class="cls-1" x1="374.5" y1="157.5" x2="336.5" y2="157.5"/></g><path class="cls-11" d="m979.06,10.12c5.61,0,10.17,4.56,10.17,10.17v325.79c0,5.61-4.56,10.17-10.17,10.17H215.39c-5.61,0-10.17-4.56-10.17-10.17V20.29c0-5.61,4.56-10.17,10.17-10.17h763.66m0-2H215.39c-6.72,0-12.17,5.45-12.17,12.17v325.79c0,6.72,5.45,12.17,12.17,12.17h763.66c6.72,0,12.17-5.45,12.17-12.17V20.29c0-6.72-5.45-12.17-12.17-12.17h0Z"/><path class="cls-11" d="m1172.14,10.12c6.36,0,11.54,5.17,11.54,11.54v323.06c0,6.36-5.17,11.54-11.54,11.54h-145.38c-6.36,0-11.54-5.17-11.54-11.54V21.66c0-6.36,5.17-11.54,11.54-11.54h145.38m0-2h-145.38c-7.48,0-13.54,6.06-13.54,13.54v323.06c0,7.48,6.06,13.54,13.54,13.54h145.38c7.48,0,13.54-6.06,13.54-13.54V21.66c0-7.48-6.06-13.54-13.54-13.54h0Z"/><path class="cls-11" d="m170.45,10.12c5.95,0,10.79,4.84,10.79,10.79v324.55c0,5.95-4.84,10.79-10.79,10.79H23.58c-5.95,0-10.79-4.84-10.79-10.79V20.91c0-5.95,4.84-10.79,10.79-10.79h146.88m0-2H23.58c-7.06,0-12.79,5.72-12.79,12.79v324.55c0,7.06,5.72,12.79,12.79,12.79h146.88c7.06,0,12.79-5.72,12.79-12.79V20.91c0-7.06-5.72-12.79-12.79-12.79h0Z"/><g id="ai"><path class="cls-5" d="m1110.54,327.46c3.22,0,5.89-1.98,7.09-5.2h1.07c2.78,0,5.42-1.11,7.44-3.12,2.14-2.13,3.32-5.07,3.32-8.27,0-2.59-1.15-5.45-2.24-7.26,4.87-2,8.17-6.84,8.18-12.19"/><path class="cls-5" d="m1135.39,291.43c0-5.32-3.3-10.16-8.17-12.18,1.11-1.8,2.29-4.65,2.29-7.19,0-3.2-1.18-6.15-3.34-8.3-2.01-2-4.73-3.15-7.49-3.16h-1.05c-1.19-3.22-3.86-5.19-7.1-5.2h-.02c-2.13,0-3.96.84-5.29,2.43-1.34,1.59-2.04,3.77-2.05,6.31v54.59c0,5.14,3.02,8.73,7.35,8.74"/><line class="cls-5" x1="1110.51" y1="255.39" x2="1110.51" y2="281.96"/><ellipse class="cls-5" cx="1110.51" cy="284.2" rx="2.07" ry="2.46"/><ellipse class="cls-5" cx="1118.63" cy="273.09" rx="2.07" ry="2.46"/><ellipse class="cls-5" cx="1125.92" cy="290.84" rx="2.07" ry="2.46"/><ellipse class="cls-5" cx="1117.21" cy="303.31" rx="2.07" ry="2.46"/><ellipse class="cls-5" cx="1110.51" cy="315.9" rx="2.07" ry="2.46"/><line class="cls-5" x1="1110.51" y1="296.17" x2="1110.51" y2="314.67"/><line class="cls-5" x1="1127.99" y1="303.61" x2="1119.4" y2="303.61"/><path class="cls-5" d="m1103.7,295.35h10.91c2.22,0,4.03-3.17,4.03-7.08v-12.72"/><line class="cls-5" x1="1123.86" y1="290.84" x2="1118.36" y2="290.84"/><path class="cls-5" d="m1089.67,327.46c4.34-.01,7.36-3.6,7.35-8.74v-54.59c0-2.54-.71-4.72-2.05-6.31-1.34-1.59-3.17-2.43-5.29-2.43h-.02c-3.24,0-5.91,1.98-7.1,5.2h-1.05c-2.75,0-5.48,1.15-7.49,3.16-2.16,2.15-3.34,5.1-3.34,8.3,0,2.55,1.18,5.39,2.29,7.19-4.87,2.02-8.18,6.87-8.17,12.18,0,5.34,3.31,10.19,8.18,12.19-1.09,1.8-2.25,4.67-2.24,7.26,0,3.2,1.18,6.14,3.32,8.27,2.01,2.01,4.66,3.12,7.44,3.12h1.07c1.2,3.22,3.86,5.2,7.09,5.2"/><line class="cls-5" x1="1089.68" y1="255.39" x2="1089.68" y2="281.96"/><ellipse class="cls-5" cx="1089.68" cy="284.2" rx="2.07" ry="2.46"/><ellipse class="cls-5" cx="1081.56" cy="273.09" rx="2.07" ry="2.46"/><ellipse class="cls-5" cx="1074.27" cy="290.84" rx="2.07" ry="2.46"/><ellipse class="cls-5" cx="1082.98" cy="303.31" rx="2.07" ry="2.46"/><ellipse class="cls-5" cx="1089.68" cy="315.9" rx="2.07" ry="2.46"/><line class="cls-5" x1="1089.68" y1="296.17" x2="1089.68" y2="314.67"/><line class="cls-5" x1="1072.2" y1="303.61" x2="1080.8" y2="303.61"/><path class="cls-5" d="m1096.5,295.35h-10.91c-2.22,0-4.03-3.17-4.03-7.08v-12.72"/><line class="cls-5" x1="1076.34" y1="290.84" x2="1081.84" y2="290.84"/></g><g id="db"><path class="cls-9" d="m1099.03,144.76c15.68,0,26.55,4.24,29.73,6.92.12.1.18.26.16.43l-.04.28.04.28v.07s.02.04.02.04v50.34c0,.08-.02.17-.07.24-1.46,2.46-12.99,7.04-29.83,7.04-15.67,0-26.55-4.24-29.73-6.92-.11-.09-.17-.22-.17-.36v-50.37s.02-.08.02-.08l.04-.29-.04-.28c-.01-.08-.01-.19.06-.31,1.46-2.46,12.99-7.04,29.83-7.04m0-2c-15.79,0-29.3,4.23-31.55,8.02-.3.51-.4,1.09-.31,1.64-.01.11-.03.21-.03.32v50.39c0,.73.32,1.42.88,1.89,3.53,2.97,14.7,7.39,31.02,7.39s29.3-4.23,31.55-8.02c.23-.38.35-.82.35-1.26v-50.39c0-.11-.02-.22-.03-.33.13-.83-.17-1.69-.84-2.26-3.53-2.97-14.69-7.39-31.02-7.39h0Z"/><path class="cls-5" d="m1069.27,153.81c4.65,2.86,15.05,6.32,29.5,6.32s26.69-3.46,30.6-6.92"/><path class="cls-5" d="m1069.27,170.8c4.65,2.86,15.05,6.32,29.5,6.32s26.69-3.46,30.6-6.92"/><path class="cls-5" d="m1069.27,187.79c4.65,2.86,15.05,6.32,29.5,6.32s26.69-3.46,30.6-6.92"/></g><g id="monitor"><circle class="cls-5" cx="1085.92" cy="59.94" r="4.1"/><path class="cls-5" d="m1084.83,69.03c.2,2.15.39,4.3.59,6.45-1.75-.19-5.37-.83-8.79-3.52-1.04-.82-3.29-2.63-4.69-5.86,0,0-1.13-2.61-1.17-6.12-.01-.82.12-2.31.55-4.18,0,0,0,0,0,0,.32-1.44,1.16-4.22,3.56-6.7,3.01-3.11,6.63-3.82,8.21-4.1.63-.11,2.92-.49,5.86,0,2.3.38,4.09,1.15,5.28,1.76-1.37,1.62-2.74,3.24-4.1,4.86-.9-.39-2.35-.86-4.1-.76-4.01.23-9.21,3.43-9.38,8.79-.15,4.53,3.36,8.71,8.21,9.38Z"/><path class="cls-5" d="m1089.52,68.44c.2,2.15.39,4.3.59,6.45,1.55-.43,4.07-1.37,6.45-3.52.82-.74,2.4-2.2,3.52-4.69,1.13-2.51,1.2-4.77,1.15-5.99-2.14.04-4.29.09-6.43.13-.05.65-.2,1.51-.55,2.47-.44,1.16-1,1.95-1.2,2.22-.64.85-1.27,1.37-1.76,1.76-.67.54-1.29.92-1.76,1.17Z"/><path class="cls-5" d="m1093.15,54.48c.56.73,1.06,2.24,1.06,2.24l6.45-.59c-.15-.88-.47-2.14-1.17-3.52-.69-1.34-1.5-2.31-2.12-2.94l-4.21,4.81Z"/><line class="cls-5" x1="1106.52" y1="59.65" x2="1118.54" y2="59.65"/><polyline class="cls-5" points="1112.38 56.72 1112.38 46.75 1118.24 46.75"/><polyline class="cls-5" points="1112.27 63.34 1112.27 73.31 1118.13 73.31"/><rect class="cls-5" x="1124.11" y="56.13" width="7.03" height="7.03"/><rect class="cls-5" x="1124.11" y="43.23" width="7.03" height="7.03"/><rect class="cls-5" x="1124.11" y="69.61" width="7.03" height="7.03"/><line class="cls-5" x1="1070.17" y1="83.68" x2="1139.64" y2="83.68"/><rect class="cls-5" x="1061.68" y="34.15" width="78.55" height="59.21" rx="3.91" ry="3.91"/></g><g id="sensors"><path class="cls-4" d="m69.36,166.73c3.85-5.24,9.16-9.28,15.3-11.49"/><path class="cls-4" d="m64.04,192.32c-.35-1.96-.53-3.99-.53-6.05,0-4.96,1.04-9.67,2.91-13.91"/><path class="cls-4" d="m92.58,219.69c-6.38-.9-12.17-3.69-16.83-7.8"/><path class="cls-4" d="m117.21,212.23c-4.9,4.19-11.01,6.94-17.71,7.61"/><path class="cls-4" d="m126.06,172.19c1.92,4.29,2.98,9.06,2.98,14.08s-.2,4.28-.57,6.32"/><path class="cls-4" d="m107.7,155.16c5.94,2.09,11.11,5.9,14.95,10.84"/><ellipse class="cls-5" cx="96.28" cy="152.94" rx="5.53" ry="5.69"/><ellipse class="cls-5" cx="67.07" cy="204.15" rx="5.53" ry="5.69"/><ellipse class="cls-5" cx="124.71" cy="203.34" rx="5.53" ry="5.69"/><line class="cls-5" x1="96.28" y1="158.63" x2="96.28" y2="171.64"/><ellipse class="cls-5" cx="95.89" cy="185.86" rx="13.82" ry="14.22"/><line class="cls-5" x1="107.33" y1="192.77" x2="119.18" y2="200.09"/><line class="cls-5" x1="84.44" y1="192.77" x2="71.8" y2="200.9"/><ellipse class="cls-2" cx="95.95" cy="185.95" rx="3.08" ry="3.17"/></g><g id="APIS"><path class="cls-5" d="m105.8,283.78c1.66-1.66,3.32-3.32,4.97-4.97v-12.08"/><path class="cls-5" d="m85.55,283.78c-1.66-1.66-3.32-3.32-4.97-4.97h-12.08"/><path class="cls-5" d="m106.15,304.39c1.66,1.66,3.32,3.32,4.97,4.97,4.03,0,8.05,0,12.08,0"/><circle class="cls-9" cx="64.41" cy="278.99" r="2.66"/><circle class="cls-9" cx="69.17" cy="263.07" r="3.8"/><circle class="cls-9" cx="126.79" cy="267.41" r="3.8"/><circle class="cls-9" cx="122.53" cy="324.24" r="3.8"/><circle class="cls-9" cx="64.98" cy="320.69" r="3.8"/><circle class="cls-9" cx="110.77" cy="263.14" r="2.66"/><circle class="cls-9" cx="126.79" cy="309.32" r="2.66"/><circle class="cls-9" cx="80.15" cy="325.66" r="2.66"/><path class="cls-5" d="m85.19,304.74c-1.66,1.66-3.32,3.32-4.97,4.97v12.08"/><polyline class="cls-5" points="81.29 294.44 65.3 294.44 65.3 315.75"/><polyline class="cls-5" points="110.46 293.72 126.45 293.82 126.59 272.51"/><polyline class="cls-5" points="95.79 279.82 95.89 263.83 74.58 263.7"/><polyline class="cls-5" points="95.85 308.55 95.75 324.54 117.06 324.68"/><path class="cls-9" d="m97.64,291.22h-1.5v2.27h1.5c.39,0,.69-.09.9-.28.22-.19.32-.47.32-.85,0-.33-.1-.61-.29-.82s-.51-.32-.94-.32Z"/><polygon class="cls-9" points="86.92 294.79 89.27 294.79 88.1 291.52 86.92 294.79"/><path class="cls-9" d="m95.5,279.16c-8.24,0-14.92,6.68-14.92,14.92s6.68,14.92,14.92,14.92,14.92-6.68,14.92-14.92-6.68-14.92-14.92-14.92Zm-3.59,18.52s-.1.07-.17.07h-1.18c-.11,0-.2-.03-.25-.08-.05-.05-.09-.1-.1-.15l-.49-1.27h-3.21l-.49,1.27s-.05.1-.1.15c-.05.05-.14.08-.25.08h-1.18c-.07,0-.12-.02-.17-.07s-.07-.1-.07-.17c0-.04,0-.07.01-.1l2.71-7.31c.02-.08.07-.16.14-.22.07-.06.16-.09.28-.09h1.45c.12,0,.22.03.28.09.07.06.11.13.14.22l2.71,7.31s.01.06.01.1c0,.06-.02.12-.07.17Zm8.45-3.89c-.25.38-.61.65-1.06.84-.45.18-.98.27-1.6.27h-1.52v2.57c0,.08-.03.15-.08.2-.05.05-.12.08-.2.08h-1.3c-.08,0-.15-.03-.2-.08-.05-.05-.08-.12-.08-.2v-7.39c0-.08.03-.15.08-.2s.12-.08.2-.08h3.1c.61,0,1.15.1,1.6.28.45.19.8.48,1.06.86.25.38.38.86.38,1.43s-.13,1.05-.38,1.43Zm4.76,3.68c0,.08-.03.15-.08.2-.05.05-.12.08-.2.08h-1.28c-.08,0-.15-.03-.2-.08-.05-.05-.08-.12-.08-.2v-7.39c0-.08.03-.15.08-.2s.12-.08.2-.08h1.28c.08,0,.15.03.2.08.05.05.08.12.08.2v7.39Z"/></g><g id="www"><line class="cls-5" x1="96" y1="63.95" x2="96.13" y2="34.15"/><line class="cls-3" x1="126.77" y1="74.35" x2="133.5" y2="74.35"/><ellipse class="cls-5" cx="95.89" cy="73.44" rx="37.86" ry="38.27"/><path class="cls-5" d="m75.04,63.58c2.43-16.36,10.78-28.41,20.7-28.41s18.02,11.71,20.59,27.71"/><path class="cls-5" d="m116.43,84.27c-2.61,15.87-10.82,27.45-20.55,27.45s-18.29-12.43-21.04-27.91"/><path class="cls-3" d="m116.33,62.88c.03.19.06.38.09.58"/><line class="cls-3" x1="58.02" y1="74.35" x2="64.75" y2="74.35"/><path class="cls-9" d="m123.33,63.47h-55.61c-2.17,0-3.92,1.73-3.92,3.86v13.1c0,2.13,1.76,3.86,3.92,3.86h55.61c2.17,0,3.92-1.73,3.92-3.86v-13.1c0-2.13-1.76-3.86-3.92-3.86Zm-36.36,5.97s0,.04-.02.06l-1.75,9.7c-.02.13-.08.24-.18.33-.1.09-.23.14-.39.14h-1.25c-.16,0-.29-.04-.38-.13s-.15-.17-.18-.27l-1.65-4.69-1.63,4.69c-.03.09-.09.18-.18.27-.09.09-.22.13-.39.13h-1.23c-.16,0-.29-.05-.39-.14-.1-.09-.16-.2-.18-.33l-1.75-9.7s-.02-.04-.02-.06v-.05c0-.08.03-.15.09-.22.06-.07.14-.1.23-.1h1.61c.27,0,.42.11.45.32l1.15,6.4,1.25-3.98c.03-.08.08-.17.15-.26s.19-.14.35-.14h.97c.16,0,.28.05.35.14.07.09.12.18.14.26l1.26,3.96,1.14-6.39c.03-.21.18-.32.46-.32h1.61c.09,0,.17.03.23.1.06.07.09.14.09.22v.05Zm14.97,0s0,.04-.02.06l-1.75,9.7c-.02.13-.08.24-.18.33-.1.09-.23.14-.39.14h-1.25c-.16,0-.29-.04-.38-.13s-.15-.17-.18-.27l-1.65-4.69-1.63,4.69c-.03.09-.09.18-.18.27-.09.09-.22.13-.39.13h-1.23c-.16,0-.29-.05-.39-.14-.1-.09-.16-.2-.18-.33l-1.75-9.7s-.02-.04-.02-.06v-.05c0-.08.03-.15.09-.22.06-.07.14-.1.23-.1h1.61c.27,0,.42.11.45.32l1.15,6.4,1.25-3.98c.03-.08.08-.17.15-.26s.19-.14.35-.14h.97c.16,0,.28.05.35.14.07.09.12.18.14.26l1.26,3.96,1.14-6.39c.03-.21.18-.32.46-.32h1.61c.09,0,.17.03.23.1.06.07.09.14.09.22v.05Zm14.97,0s0,.04-.02.06l-1.75,9.7c-.02.13-.08.24-.18.33-.1.09-.23.14-.39.14h-1.25c-.16,0-.29-.04-.38-.13s-.15-.17-.18-.27l-1.65-4.69-1.63,4.69c-.03.09-.09.18-.18.27-.09.09-.22.13-.39.13h-1.23c-.16,0-.29-.05-.39-.14-.1-.09-.16-.2-.18-.33l-1.75-9.7s-.02-.04-.02-.06v-.05c0-.08.03-.15.09-.22.06-.07.14-.1.23-.1h1.61c.27,0,.42.11.45.32l1.15,6.4,1.25-3.98c.03-.08.08-.17.15-.26s.19-.14.35-.14h.97c.16,0,.28.05.35.14.07.09.12.18.14.26l1.26,3.96,1.14-6.39c.03-.21.18-.32.46-.32h1.61c.09,0,.17.03.23.1.06.07.09.14.09.22v.05Z"/><line class="cls-3" x1="95.79" y1="112.44" x2="95.92" y2="82.64"/></g><path class="cls-6" d="m304.65,163.72c2.48,4.47,8.12,6.08,12.59,3.59,4.47-2.48,6.08-8.12,3.59-12.59s-8.12-6.08-12.59-3.59c-1.51.84-2.76,2.08-3.59,3.59m0,8.99c-.74-1.33-1.16-2.86-1.16-4.5s.42-3.17,1.16-4.5m0,8.99l-39.35,21.86m39.35-30.85l-39.35-21.86m0,0c2.48-4.47.87-10.11-3.6-12.59-4.47-2.48-10.11-.87-12.59,3.6-2.48,4.47-.87,10.11,3.6,12.59,4.47,2.48,10.11.87,12.59-3.6h0Zm0,52.72c-2.4-4.52-8-6.23-12.52-3.83-4.52,2.4-6.23,8-3.83,12.52.05.1.11.21.17.31,2.57,4.42,8.23,5.92,12.65,3.36,4.3-2.5,5.86-7.95,3.53-12.35Z"/><path class="cls-6" d="m420.44,174.16l-3.34,11.68-3.34-11.68c-1.75-6.13-6.55-10.92-12.68-12.68l-11.68-3.34,11.68-3.34c6.13-1.75,10.92-6.55,12.68-12.68l3.34-11.68,3.34,11.68c1.75,6.13,6.55,10.92,12.68,12.68l11.68,3.34-11.68,3.34c-6.13,1.75-10.92,6.55-12.68,12.68h0Zm34.65-29.49l-1.06,4.25-1.06-4.25c-1.24-4.96-5.11-8.83-10.07-10.08l-4.25-1.06,4.25-1.06c4.96-1.24,8.83-5.12,10.07-10.08l1.06-4.25,1.06,4.25c1.24,4.96,5.11,8.84,10.08,10.08l4.25,1.06-4.25,1.06c-4.96,1.24-8.84,5.11-10.08,10.08Zm-5.6,48.62l-1.62,4.85-1.62-4.85c-.92-2.76-3.08-4.92-5.84-5.84l-4.85-1.62,4.85-1.62c2.76-.92,4.92-3.08,5.84-5.84l1.62-4.85,1.62,4.85c.92,2.76,3.08,4.92,5.84,5.84l4.85,1.62-4.85,1.62c-2.76.92-4.92,3.08-5.84,5.84Z"/><path class="cls-6" d="m749.95,177.43l11.41,16.72,11.41-16.72m-22.83,0l15.22-22.28-15.22-22.28m0,44.57l-11.41,16.72-26.63-39,26.63-39,11.41,16.72m0,0l11.41-16.72,11.41,16.72m0,0l11.41-16.72,26.63,39-26.63,39-11.41-16.72m0-44.57l15.22,22.28-15.22,22.28"/><path class="cls-6" d="m593.78,155.14l10.15-9.91m-20.31,19.81l10.15-9.91m-10.15-9.91l10.15,9.91m10.15,9.91l-10.15-9.91m18.2,33.02h-41.89c-5.61,0-10.15-4.44-10.15-9.91v-46.23c0-5.47,4.55-9.91,10.15-9.91h41.89c1.34,0,2.64.52,3.59,1.45l28.77,28.07c1.98,1.93,1.98,5.07,0,7l-28.77,28.07c-.95.93-2.25,1.45-3.59,1.45Z"/><path class="cls-6" d="m887.12,150.72c-.84-1.51-2.08-2.76-3.59-3.59-4.47-2.48-10.1-.87-12.59,3.59s-.87,10.1,3.59,12.59c4.47,2.48,10.1.87,12.59-3.59m0-8.99c.74,1.33,1.16,2.86,1.16,4.5s-.42,3.16-1.16,4.5m39.35,21.86l-39.35-21.86m39.35-30.85l-39.35,21.86m39.35-21.86c2.48,4.47,8.12,6.08,12.59,3.6,4.47-2.48,6.08-8.12,3.6-12.59-2.48-4.47-8.12-6.08-12.59-3.6-4.47,2.48-6.08,8.12-3.6,12.59h0Zm3.53,65.06c4.42,2.57,10.09,1.06,12.65-3.36.06-.1.12-.2.17-.31,2.4-4.52.68-10.12-3.83-12.52-4.52-2.4-10.12-.68-12.52,3.83-2.33,4.39-.78,9.85,3.53,12.35Z"/></g><g id="Before"><g id="Lines-2"><text class="cls-10" transform="translate(241.34 253.31)"><tspan x="0" y="0">Collect</tspan></text><text class="cls-10" transform="translate(367.15 253.31)"><tspan class="cls-12" x="0" y="0">T</tspan><tspan class="cls-8" x="12.96" y="0">r</tspan><tspan x="23.19" y="0">ansform</tspan></text><text class="cls-10" transform="translate(525.08 253.31)"><tspan x="0" y="0">Deduplicate</tspan></text><text class="cls-10" transform="translate(696.15 253.31)"><tspan x="0" y="0">Materiali</tspan><tspan class="cls-7" x="107.09" y="0">z</tspan><tspan x="120.08" y="0">e</tspan></text><text class="cls-10" transform="translate(857.17 253.31)"><tspan x="0" y="0">Dispatch</tspan></text></g></g></svg>