<?xml version="1.0" encoding="UTF-8"?><svg id="Before" xmlns="http://www.w3.org/2000/svg" viewBox="0 0 1200 369"><defs><style>.cls-1,.cls-2,.cls-3,.cls-4,.cls-5,.cls-6,.cls-7,.cls-8,.cls-9{stroke:#e6e6e6;}.cls-1,.cls-4,.cls-6,.cls-7,.cls-8,.cls-9{fill:none;}.cls-1,.cls-7{stroke-linejoin:round;}.cls-1,.cls-7,.cls-8{stroke-linecap:round;}.cls-10,.cls-2,.cls-5,.cls-11{fill:#e6e6e6;}.cls-12{fill:#ccc;}.cls-13{fill:#3c3a3e;}.cls-2,.cls-3,.cls-7,.cls-8,.cls-9{stroke-width:2px;}.cls-2,.cls-4,.cls-5,.cls-8,.cls-9{stroke-miterlimit:10;}.cls-3{fill:#ececec;}.cls-3,.cls-5,.cls-6,.cls-11{fill-rule:evenodd;}.cls-3,.cls-6{stroke-linecap:square;stroke-linejoin:bevel;}.cls-4{stroke-width:2.5px;}.cls-6{stroke-width:2px;}</style></defs><path class="cls-12" d="m979.83,11.73c5.61,0,10.17,4.56,10.17,10.17v325.79c0,5.61-4.56,10.17-10.17,10.17H216.17c-5.61,0-10.17-4.56-10.17-10.17V21.9c0-5.61,4.56-10.17,10.17-10.17h763.66m0-2H216.17c-6.72,0-12.17,5.45-12.17,12.17v325.79c0,6.72,5.45,12.17,12.17,12.17h763.66c6.72,0,12.17-5.45,12.17-12.17V21.9c0-6.72-5.45-12.17-12.17-12.17h0Z"/><path class="cls-12" d="m1172.91,11.73c6.36,0,11.54,5.17,11.54,11.54v323.06c0,6.36-5.17,11.54-11.54,11.54h-145.38c-6.36,0-11.54-5.17-11.54-11.54V23.27c0-6.36,5.17-11.54,11.54-11.54h145.38m0-2h-145.38c-7.48,0-13.54,6.06-13.54,13.54v323.06c0,7.48,6.06,13.54,13.54,13.54h145.38c7.48,0,13.54-6.06,13.54-13.54V23.27c0-7.48-6.06-13.54-13.54-13.54h0Z"/><path class="cls-12" d="m171.23,11.73c5.95,0,10.79,4.84,10.79,10.79v324.55c0,5.95-4.84,10.79-10.79,10.79H24.35c-5.95,0-10.79-4.84-10.79-10.79V22.52c0-5.95,4.84-10.79,10.79-10.79h146.88m0-2H24.35c-7.06,0-12.79,5.73-12.79,12.79v324.55c0,7.06,5.72,12.79,12.79,12.79h146.88c7.06,0,12.79-5.72,12.79-12.79V22.52c0-7.06-5.72-12.79-12.79-12.79h0Z"/><g id="ai"><path class="cls-9" d="m1111.32,329.06c3.22,0,5.89-1.98,7.09-5.2h1.07c2.78,0,5.42-1.11,7.44-3.12,2.14-2.13,3.32-5.07,3.32-8.27,0-2.59-1.15-5.45-2.24-7.26,4.87-2,8.17-6.84,8.18-12.19"/><path class="cls-9" d="m1136.17,293.03c0-5.32-3.3-10.16-8.17-12.18,1.11-1.8,2.29-4.65,2.29-7.19,0-3.2-1.18-6.15-3.34-8.3-2.01-2-4.73-3.15-7.49-3.16h-1.05c-1.19-3.22-3.86-5.19-7.1-5.2h-.02c-2.13,0-3.96.84-5.29,2.43-1.34,1.59-2.04,3.77-2.05,6.31v54.59c0,5.14,3.02,8.73,7.35,8.74"/><line class="cls-9" x1="1111.29" y1="257" x2="1111.29" y2="283.57"/><ellipse class="cls-9" cx="1111.29" cy="285.81" rx="2.07" ry="2.46"/><ellipse class="cls-9" cx="1119.41" cy="274.69" rx="2.07" ry="2.46"/><ellipse class="cls-9" cx="1126.7" cy="292.45" rx="2.07" ry="2.46"/><ellipse class="cls-9" cx="1117.99" cy="304.92" rx="2.07" ry="2.46"/><ellipse class="cls-9" cx="1111.29" cy="317.51" rx="2.07" ry="2.46"/><line class="cls-9" x1="1111.29" y1="297.77" x2="1111.29" y2="316.27"/><line class="cls-9" x1="1128.77" y1="305.22" x2="1120.17" y2="305.22"/><path class="cls-9" d="m1104.47,296.95h10.91c2.22,0,4.03-3.17,4.03-7.08v-12.72"/><line class="cls-9" x1="1124.63" y1="292.45" x2="1119.13" y2="292.45"/><path class="cls-9" d="m1090.44,329.06c4.34-.01,7.36-3.6,7.35-8.74v-54.59c0-2.54-.71-4.72-2.05-6.31-1.34-1.59-3.17-2.43-5.29-2.43h-.02c-3.24,0-5.91,1.98-7.1,5.2h-1.05c-2.75,0-5.48,1.15-7.49,3.16-2.16,2.15-3.34,5.1-3.34,8.3,0,2.55,1.18,5.39,2.29,7.19-4.87,2.02-8.18,6.87-8.17,12.18,0,5.34,3.31,10.19,8.18,12.19-1.09,1.8-2.25,4.67-2.24,7.26,0,3.2,1.18,6.14,3.32,8.27,2.01,2.01,4.66,3.12,7.44,3.12h1.07c1.2,3.22,3.86,5.2,7.09,5.2"/><line class="cls-9" x1="1090.46" y1="257" x2="1090.46" y2="283.57"/><ellipse class="cls-9" cx="1090.46" cy="285.81" rx="2.07" ry="2.46"/><ellipse class="cls-9" cx="1082.34" cy="274.69" rx="2.07" ry="2.46"/><ellipse class="cls-9" cx="1075.04" cy="292.45" rx="2.07" ry="2.46"/><ellipse class="cls-9" cx="1083.76" cy="304.92" rx="2.07" ry="2.46"/><ellipse class="cls-9" cx="1090.46" cy="317.51" rx="2.07" ry="2.46"/><line class="cls-9" x1="1090.46" y1="297.77" x2="1090.46" y2="316.27"/><line class="cls-9" x1="1072.98" y1="305.22" x2="1081.57" y2="305.22"/><path class="cls-9" d="m1097.27,296.95h-10.91c-2.22,0-4.03-3.17-4.03-7.08v-12.72"/><line class="cls-9" x1="1077.11" y1="292.45" x2="1082.61" y2="292.45"/></g><g id="db"><path class="cls-10" d="m1099.8,146.37c15.68,0,26.55,4.24,29.73,6.92.12.1.18.26.16.43l-.04.28.04.29v.07s.02.04.02.04v50.34c0,.08-.02.17-.07.24-1.46,2.46-12.99,7.04-29.83,7.04-15.67,0-26.55-4.24-29.73-6.92-.11-.09-.17-.22-.17-.36v-50.37s.02-.09.02-.09l.04-.28-.04-.28c-.01-.08-.01-.19.06-.31,1.46-2.46,12.99-7.04,29.83-7.04m0-2c-15.79,0-29.3,4.23-31.55,8.02-.3.51-.4,1.09-.31,1.64-.01.11-.03.21-.03.32v50.39c0,.73.32,1.42.88,1.89,3.53,2.97,14.7,7.39,31.02,7.39s29.3-4.23,31.55-8.02c.23-.38.35-.82.35-1.26v-50.39c0-.11-.02-.22-.03-.33.13-.83-.17-1.69-.84-2.26-3.53-2.97-14.69-7.39-31.02-7.39h0Z"/><path class="cls-9" d="m1070.04,155.42c4.65,2.86,15.05,6.32,29.5,6.32s26.69-3.46,30.6-6.92"/><path class="cls-9" d="m1070.04,172.41c4.65,2.86,15.05,6.32,29.5,6.32s26.69-3.46,30.6-6.92"/><path class="cls-9" d="m1070.04,189.4c4.65,2.86,15.05,6.32,29.5,6.32s26.69-3.46,30.6-6.92"/></g><g id="monitor"><circle class="cls-9" cx="1086.7" cy="61.55" r="4.1"/><path class="cls-9" d="m1085.6,70.63c.2,2.15.39,4.3.59,6.45-1.75-.19-5.37-.83-8.79-3.52-1.04-.82-3.29-2.63-4.69-5.86,0,0-1.13-2.61-1.17-6.12-.01-.82.12-2.31.55-4.18,0,0,0,0,0,0,.32-1.44,1.16-4.22,3.56-6.7,3.01-3.11,6.63-3.82,8.21-4.1.63-.11,2.92-.49,5.86,0,2.3.38,4.09,1.15,5.28,1.76-1.37,1.62-2.74,3.24-4.1,4.86-.9-.39-2.35-.86-4.1-.76-4.01.23-9.21,3.43-9.38,8.79-.15,4.53,3.36,8.71,8.21,9.38Z"/><path class="cls-9" d="m1090.29,70.05c.2,2.15.39,4.3.59,6.45,1.55-.43,4.07-1.37,6.45-3.52.82-.74,2.4-2.2,3.52-4.69,1.13-2.51,1.2-4.77,1.15-5.99-2.14.04-4.29.09-6.43.13-.05.65-.2,1.51-.55,2.47-.44,1.16-1,1.95-1.2,2.22-.64.85-1.27,1.37-1.76,1.76-.67.54-1.29.92-1.76,1.17Z"/><path class="cls-9" d="m1093.93,56.08c.56.73,1.06,2.24,1.06,2.24l6.45-.59c-.15-.88-.47-2.14-1.17-3.52-.69-1.34-1.5-2.31-2.12-2.94l-4.21,4.81Z"/><line class="cls-9" x1="1107.29" y1="61.26" x2="1119.31" y2="61.26"/><polyline class="cls-9" points="1113.16 58.32 1113.16 48.36 1119.02 48.36"/><polyline class="cls-9" points="1113.04 64.95 1113.04 74.91 1118.9 74.91"/><rect class="cls-9" x="1124.88" y="57.74" width="7.03" height="7.03"/><rect class="cls-9" x="1124.88" y="44.84" width="7.03" height="7.03"/><rect class="cls-9" x="1124.88" y="71.22" width="7.03" height="7.03"/><line class="cls-9" x1="1070.95" y1="85.29" x2="1140.41" y2="85.29"/><rect class="cls-9" x="1062.45" y="35.76" width="78.55" height="59.21" rx="3.91" ry="3.91"/></g><g id="sensors"><path class="cls-8" d="m70.13,168.33c3.85-5.24,9.16-9.28,15.3-11.49"/><path class="cls-8" d="m64.81,193.93c-.35-1.96-.53-3.99-.53-6.05,0-4.96,1.04-9.67,2.91-13.91"/><path class="cls-8" d="m93.35,221.29c-6.38-.9-12.17-3.69-16.83-7.8"/><path class="cls-8" d="m117.98,213.83c-4.9,4.19-11.01,6.94-17.71,7.61"/><path class="cls-8" d="m126.84,173.79c1.92,4.29,2.98,9.06,2.98,14.08s-.2,4.28-.57,6.32"/><path class="cls-8" d="m108.47,156.77c5.94,2.09,11.11,5.9,14.95,10.84"/><ellipse class="cls-9" cx="97.05" cy="154.55" rx="5.53" ry="5.69"/><ellipse class="cls-9" cx="67.84" cy="205.76" rx="5.53" ry="5.69"/><ellipse class="cls-9" cx="125.48" cy="204.94" rx="5.53" ry="5.69"/><line class="cls-9" x1="97.05" y1="160.24" x2="97.05" y2="173.24"/><ellipse class="cls-9" cx="96.66" cy="187.47" rx="13.82" ry="14.22"/><line class="cls-9" x1="108.11" y1="194.38" x2="119.95" y2="201.69"/><line class="cls-9" x1="85.21" y1="194.38" x2="72.58" y2="202.51"/><ellipse class="cls-2" cx="96.72" cy="187.56" rx="3.08" ry="3.17"/></g><g id="APIS"><path class="cls-9" d="m106.57,285.39c1.66-1.66,3.32-3.32,4.97-4.97v-12.08"/><path class="cls-9" d="m86.32,285.39c-1.66-1.66-3.32-3.32-4.97-4.97h-12.08"/><path class="cls-9" d="m106.93,305.99c1.66,1.66,3.32,3.32,4.97,4.97,4.03,0,8.05,0,12.08,0"/><circle class="cls-10" cx="65.19" cy="280.59" r="2.66"/><circle class="cls-10" cx="69.95" cy="264.68" r="3.8"/><circle class="cls-10" cx="127.57" cy="269.01" r="3.8"/><circle class="cls-10" cx="123.3" cy="325.85" r="3.8"/><circle class="cls-10" cx="65.75" cy="322.3" r="3.8"/><circle class="cls-10" cx="111.54" cy="264.75" r="2.66"/><circle class="cls-10" cx="127.57" cy="310.93" r="2.66"/><circle class="cls-10" cx="80.92" cy="327.27" r="2.66"/><path class="cls-9" d="m85.97,306.35c-1.66,1.66-3.32,3.32-4.97,4.97v12.08"/><polyline class="cls-9" points="82.06 296.05 66.07 296.05 66.07 317.36"/><polyline class="cls-9" points="111.24 295.33 127.22 295.43 127.36 274.12"/><polyline class="cls-9" points="96.56 281.43 96.66 265.44 75.35 265.3"/><polyline class="cls-9" points="96.62 310.16 96.52 326.15 117.83 326.28"/><path class="cls-10" d="m98.42,292.83h-1.5v2.27h1.5c.39,0,.69-.09.9-.28.22-.19.32-.47.32-.85,0-.33-.1-.61-.29-.82s-.51-.32-.94-.32Z"/><polygon class="cls-10" points="87.7 296.4 90.05 296.4 88.88 293.13 87.7 296.4"/><path class="cls-10" d="m96.27,280.77c-8.24,0-14.92,6.68-14.92,14.92s6.68,14.92,14.92,14.92,14.92-6.68,14.92-14.92-6.68-14.92-14.92-14.92Zm-3.59,18.52s-.1.07-.17.07h-1.18c-.11,0-.2-.03-.25-.08-.05-.05-.09-.1-.1-.15l-.49-1.27h-3.21l-.49,1.27s-.05.1-.1.15c-.05.05-.14.08-.25.08h-1.18c-.07,0-.12-.02-.17-.07s-.07-.1-.07-.17c0-.04,0-.07.01-.1l2.71-7.31c.02-.08.07-.16.14-.22.07-.06.16-.09.28-.09h1.45c.12,0,.22.03.28.09.07.06.11.13.14.22l2.71,7.31s.01.06.01.1c0,.06-.02.12-.07.17Zm8.45-3.89c-.25.38-.61.65-1.06.84-.45.18-.98.27-1.6.27h-1.52v2.57c0,.08-.03.15-.08.2-.05.05-.12.08-.2.08h-1.3c-.08,0-.15-.03-.2-.08-.05-.05-.08-.12-.08-.2v-7.39c0-.08.03-.15.08-.2s.12-.08.2-.08h3.1c.61,0,1.15.1,1.6.28.45.19.8.48,1.06.86.25.38.38.86.38,1.43s-.13,1.05-.38,1.43Zm4.76,3.68c0,.08-.03.15-.08.2-.05.05-.12.08-.2.08h-1.28c-.08,0-.15-.03-.2-.08-.05-.05-.08-.12-.08-.2v-7.39c0-.08.03-.15.08-.2s.12-.08.2-.08h1.28c.08,0,.15.03.2.08.05.05.08.12.08.2v7.39Z"/></g><g id="www"><line class="cls-9" x1="96.77" y1="65.55" x2="96.9" y2="35.76"/><line class="cls-4" x1="127.54" y1="75.96" x2="134.27" y2="75.96"/><ellipse class="cls-9" cx="96.66" cy="75.05" rx="37.86" ry="38.27"/><path class="cls-9" d="m75.82,65.19c2.43-16.36,10.78-28.41,20.7-28.41s18.02,11.71,20.59,27.71"/><path class="cls-9" d="m117.21,85.87c-2.61,15.87-10.82,27.45-20.55,27.45s-18.29-12.43-21.04-27.91"/><path class="cls-4" d="m117.1,64.49c.03.19.06.38.09.58"/><line class="cls-4" x1="58.8" y1="75.96" x2="65.53" y2="75.96"/><path class="cls-10" d="m124.1,65.08h-55.61c-2.17,0-3.92,1.73-3.92,3.86v13.1c0,2.13,1.76,3.86,3.92,3.86h55.61c2.17,0,3.92-1.73,3.92-3.86v-13.1c0-2.13-1.76-3.86-3.92-3.86Zm-36.36,5.97s0,.04-.02.06l-1.75,9.7c-.02.13-.08.24-.18.33-.1.09-.23.14-.39.14h-1.25c-.16,0-.29-.04-.38-.13s-.15-.17-.18-.27l-1.65-4.69-1.63,4.69c-.03.09-.09.18-.18.27-.09.09-.22.13-.39.13h-1.23c-.16,0-.29-.05-.39-.14-.1-.09-.16-.2-.18-.33l-1.75-9.7s-.02-.04-.02-.06v-.05c0-.08.03-.15.09-.22.06-.07.14-.1.23-.1h1.61c.27,0,.42.11.45.32l1.15,6.4,1.25-3.98c.03-.08.08-.17.15-.26s.19-.14.35-.14h.97c.16,0,.28.05.35.14.07.09.12.18.14.26l1.26,3.96,1.14-6.39c.03-.21.18-.32.46-.32h1.61c.09,0,.17.03.23.1.06.07.09.14.09.22v.05Zm14.97,0s0,.04-.02.06l-1.75,9.7c-.02.13-.08.24-.18.33-.1.09-.23.14-.39.14h-1.25c-.16,0-.29-.04-.38-.13s-.15-.17-.18-.27l-1.65-4.69-1.63,4.69c-.03.09-.09.18-.18.27-.09.09-.22.13-.39.13h-1.23c-.16,0-.29-.05-.39-.14-.1-.09-.16-.2-.18-.33l-1.75-9.7s-.02-.04-.02-.06v-.05c0-.08.03-.15.09-.22.06-.07.14-.1.23-.1h1.61c.27,0,.42.11.45.32l1.15,6.4,1.25-3.98c.03-.08.08-.17.15-.26s.19-.14.35-.14h.97c.16,0,.28.05.35.14.07.09.12.18.14.26l1.26,3.96,1.14-6.39c.03-.21.18-.32.46-.32h1.61c.09,0,.17.03.23.1.06.07.09.14.09.22v.05Zm14.97,0s0,.04-.02.06l-1.75,9.7c-.02.13-.08.24-.18.33-.1.09-.23.14-.39.14h-1.25c-.16,0-.29-.04-.38-.13s-.15-.17-.18-.27l-1.65-4.69-1.63,4.69c-.03.09-.09.18-.18.27-.09.09-.22.13-.39.13h-1.23c-.16,0-.29-.05-.39-.14-.1-.09-.16-.2-.18-.33l-1.75-9.7s-.02-.04-.02-.06v-.05c0-.08.03-.15.09-.22.06-.07.14-.1.23-.1h1.61c.27,0,.42.11.45.32l1.15,6.4,1.25-3.98c.03-.08.08-.17.15-.26s.19-.14.35-.14h.97c.16,0,.28.05.35.14.07.09.12.18.14.26l1.26,3.96,1.14-6.39c.03-.21.18-.32.46-.32h1.61c.09,0,.17.03.23.1.06.07.09.14.09.22v.05Z"/><line class="cls-4" x1="96.56" y1="114.04" x2="96.69" y2="84.25"/></g><g id="db-group"><g id="db-2"><path class="cls-10" d="m269.44,306.22c5.1,0,8.53,1.51,9.72,2.42v.03s0,21.75,0,21.75c-.79.74-4.43,2.33-9.73,2.33s-8.54-1.51-9.73-2.43v-21.65h0s.01-.14.01-.14c.82-.75,4.45-2.32,9.71-2.32m0-2c-5.8,0-10.77,1.85-11.6,3.51-.11.22-.15.48-.12.72,0,.05-.01.09-.01.14v22.09c0,.32.12.62.32.83,1.3,1.3,5.4,3.24,11.4,3.24s10.77-1.85,11.6-3.51c.08-.17.13-.36.13-.55v-22.09s0-.1-.01-.14c.05-.36-.06-.74-.31-.99-1.3-1.3-5.4-3.24-11.4-3.24h0Z"/><path class="cls-9" d="m258.5,309.06c1.71,1.25,5.53,2.77,10.84,2.77s9.81-1.51,11.25-3.03"/><path class="cls-9" d="m258.5,316.51c1.71,1.25,5.53,2.77,10.84,2.77s9.81-1.51,11.25-3.03"/><path class="cls-9" d="m258.5,323.95c1.71,1.25,5.53,2.77,10.84,2.77s9.81-1.51,11.25-3.03"/></g><g id="db-3"><path class="cls-10" d="m313.27,306.22c5.1,0,8.53,1.51,9.72,2.42v.03s0,21.75,0,21.75c-.79.74-4.43,2.33-9.73,2.33s-8.54-1.51-9.73-2.43v-21.65h0s.01-.14.01-.14c.82-.75,4.45-2.32,9.71-2.32m0-2c-5.8,0-10.77,1.85-11.6,3.51-.11.22-.15.48-.12.72,0,.05-.01.09-.01.14v22.09c0,.32.12.62.32.83,1.3,1.3,5.4,3.24,11.4,3.24s10.77-1.85,11.6-3.51c.08-.17.13-.36.13-.55v-22.09s0-.1-.01-.14c.05-.36-.06-.74-.31-.99-1.3-1.3-5.4-3.24-11.4-3.24h0Z"/><path class="cls-9" d="m302.33,309.06c1.71,1.25,5.53,2.77,10.84,2.77s9.81-1.51,11.25-3.03"/><path class="cls-9" d="m302.33,316.51c1.71,1.25,5.53,2.77,10.84,2.77s9.81-1.51,11.25-3.03"/><path class="cls-9" d="m302.33,323.95c1.71,1.25,5.53,2.77,10.84,2.77s9.81-1.51,11.25-3.03"/></g><g id="db-4"><path class="cls-10" d="m292.03,270.4c5.1,0,8.53,1.51,9.72,2.42v.03s0,21.75,0,21.75c-.79.74-4.43,2.33-9.73,2.33s-8.54-1.51-9.73-2.43v-21.65h0s.01-.14.01-.14c.82-.75,4.45-2.32,9.71-2.32m0-2c-5.8,0-10.77,1.85-11.6,3.51-.11.22-.15.48-.12.72,0,.05-.01.09-.01.14v22.09c0,.32.12.62.32.83,1.3,1.3,5.4,3.24,11.4,3.24s10.77-1.85,11.6-3.51c.08-.17.13-.36.13-.55v-22.09s0-.1-.01-.14c.05-.36-.06-.74-.31-.99-1.3-1.3-5.4-3.24-11.4-3.24h0Z"/><path class="cls-9" d="m281.09,273.25c1.71,1.25,5.53,2.77,10.84,2.77s9.81-1.51,11.25-3.03"/><path class="cls-9" d="m281.09,280.7c1.71,1.25,5.53,2.77,10.84,2.77s9.81-1.51,11.25-3.03"/><path class="cls-9" d="m281.09,288.14c1.71,1.25,5.53,2.77,10.84,2.77s9.81-1.51,11.25-3.03"/></g><line class="cls-8" x1="307.93" y1="289.18" x2="314.33" y2="299.85"/><line class="cls-8" x1="284.7" y1="320.75" x2="298.57" y2="320.75"/><line class="cls-8" x1="270.24" y1="300.56" x2="276.64" y2="289.89"/></g><g id="Kafka"><path id="path3139" class="cls-10" d="m356.68,218.42h0c-.49-.48-1.16-.77-1.91-.77s-1.42.29-1.9.77h-.01c-.48.47-.79,1.14-.79,1.87s.3,1.39.79,1.86h.01c.48.49,1.15.78,1.9.78s1.43-.29,1.91-.76h0c.49-.48.78-1.14.78-1.88s-.3-1.39-.78-1.87c0,0,0,0,0,0Zm-1.91,36.12h0c.75,0,1.43-.3,1.91-.77h0c.49-.48.78-1.14.78-1.87s-.3-1.39-.78-1.87h0c-.49-.48-1.16-.77-1.91-.77s-1.42.29-1.9.77h-.01c-.48.48-.79,1.13-.79,1.87s.3,1.39.79,1.86h.01c.48.48,1.15.78,1.9.78h0Zm14.7-7.99h0c.67-.17,1.27-.59,1.64-1.23l.05-.09h0c.33-.6.39-1.3.21-1.91-.18-.66-.61-1.24-1.26-1.61l-.04-.03c-.63-.34-1.35-.41-2.01-.24-.67.16-1.27.6-1.64,1.23-.37.62-.45,1.34-.27,2,.18.65.61,1.24,1.26,1.61h0c.64.36,1.37.43,2.05.26h0Zm-11.93-13.15h0c-.71-.69-1.69-1.12-2.77-1.12s-2.05.43-2.76,1.12c-.7.69-1.14,1.64-1.14,2.7s.43,2.01,1.14,2.71c.71.69,1.68,1.12,2.76,1.12s2.06-.43,2.77-1.12c.71-.7,1.14-1.65,1.14-2.71s-.43-2.01-1.14-2.7h0Zm-1.56-4.5h0c1.57.25,2.98.99,4.06,2.05h0c.17.17.34.35.49.53l2.69-1.52c-.36-1.07-.38-2.19-.09-3.24.38-1.4,1.32-2.66,2.71-3.45l.05-.03c1.38-.76,2.95-.92,4.37-.55,1.43.38,2.73,1.29,3.54,2.65h0c.8,1.36.96,2.92.58,4.32-.38,1.4-1.32,2.67-2.71,3.45l-.37.21h-.04c-1.29.6-2.71.69-4.01.36-1.07-.28-2.05-.86-2.82-1.69l-2.69,1.52c.31.8.48,1.66.48,2.57s-.17,1.78-.48,2.58l2.69,1.52c.77-.84,1.75-1.41,2.82-1.69,1.44-.38,3.03-.22,4.42.57l.09.04h0c1.34.8,2.24,2.03,2.62,3.42.38,1.39.22,2.95-.58,4.31l-.05.09h0c-.81,1.3-2.08,2.19-3.48,2.56-1.44.37-3.03.21-4.42-.57h0c-1.4-.8-2.33-2.06-2.71-3.46-.29-1.04-.27-2.16.09-3.23l-2.69-1.52c-.15.18-.32.36-.49.53h0c-1.08,1.07-2.49,1.8-4.06,2.05v3.04c1.12.23,2.12.78,2.91,1.54h0c1.05,1.03,1.7,2.46,1.7,4.03s-.65,2.98-1.7,4.01v.02h0c-1.06,1.03-2.51,1.67-4.12,1.67s-3.05-.64-4.11-1.67h0v-.02c-1.05-1.03-1.71-2.45-1.71-4.01s.65-2.99,1.71-4.02h0s0,0,0,0c.78-.77,1.79-1.31,2.9-1.54v-3.04c-1.57-.24-2.98-.98-4.05-2.04h-.01c-1.34-1.33-2.19-3.14-2.19-5.16s.84-3.83,2.19-5.15h.01c1.08-1.06,2.48-1.8,4.05-2.05v-3.03c-1.11-.24-2.12-.78-2.9-1.55h0c-1.05-1.04-1.71-2.46-1.71-4.03s.65-2.99,1.71-4.02h0c1.06-1.04,2.51-1.67,4.11-1.67s3.06.64,4.12,1.67h0s0,0,0,0c1.05,1.03,1.7,2.46,1.7,4.02s-.65,2.99-1.7,4.02h0c-.78.77-1.79,1.32-2.91,1.56,0,0,0,3.03,0,3.03Zm15.13-2.02l-.02-.03c-.37-.61-.96-1.02-1.62-1.2-.68-.18-1.41-.1-2.05.26h0c-.65.36-1.08.95-1.26,1.6-.18.65-.1,1.38.27,2v.02c.39.62.98,1.04,1.64,1.21.67.18,1.41.11,2.05-.26l.03-.02c.63-.37,1.05-.95,1.22-1.58.18-.66.11-1.38-.26-2h0"/><path id="path3141" class="cls-10" d="m383.06,227.76h3.01v8.97l4.33-4.69h3.6l-5.23,5.43,5.25,6.89h-3.44l-4.52-6.15v6.15h-3.01v-16.6"/><path id="path3143" class="cls-10" d="m397.49,238.26c0,1.53,1.12,3.75,3.83,3.75,1.67,0,2.78-.85,3.35-1.97.3-.54.44-1.12.48-1.73.02-.58-.09-1.19-.35-1.73-.53-1.16-1.7-2.17-3.51-2.17-2.43,0-3.81,1.93-3.81,3.83,0,0,0,.02,0,.02Zm10.64,6.11h-3.01v-1.77c-.8,1.43-2.48,2.15-4.24,2.15-4.04,0-6.4-3.08-6.4-6.55,0-3.88,2.87-6.53,6.4-6.53,2.29,0,3.69,1.19,4.24,2.18v-1.8h3.01v12.32"/><path id="path3145" class="cls-10" d="m411.54,234.32h-1.56v-2.27h1.56v-.69c0-3.66,2.85-3.88,5-3.9v2.26c-.76,0-2,0-2,1.73v.6h2v2.27h-2v10.05h-3.01v-10.05"/><path id="path3147" class="cls-10" d="m418.58,227.76h3v8.97l4.33-4.69h3.6l-5.23,5.43,5.25,6.89h-3.44l-4.52-6.15v6.15h-3v-16.6"/><path id="path3149" class="cls-10" d="m433.02,238.26c0,1.53,1.12,3.75,3.83,3.75,1.67,0,2.77-.85,3.35-1.97.3-.54.44-1.12.48-1.73.02-.58-.09-1.19-.35-1.73-.53-1.16-1.7-2.17-3.51-2.17-2.43,0-3.81,1.93-3.81,3.83,0,0,0,.02,0,.02Zm10.64,6.11h-3.01v-1.77c-.8,1.43-2.48,2.15-4.24,2.15-4.04,0-6.4-3.08-6.4-6.55,0-3.88,2.87-6.53,6.4-6.53,2.29,0,3.69,1.19,4.24,2.18v-1.8h3.01v12.32"/></g><g id="Spark"><path class="cls-11" d="m746.68,190.77c-.08-.17-.11-.25-.16-.33-1.13-2.15-2.25-4.3-3.4-6.44-.11-.22-.1-.34.06-.53,1.8-2.1,3.57-4.21,5.37-6.3.06-.07.12-.15.14-.28-.52.14-1.04.27-1.57.41-2.17.57-4.35,1.15-6.5,1.73-.2.05-.29,0-.39-.17-1.23-2.06-2.47-4.12-3.71-6.15-.06-.11-.13-.21-.27-.3-.1.55-.2,1.09-.3,1.64-.35,1.94-.69,3.86-1.03,5.8-.04.21-.09.42-.11.63-.02.2-.12.27-.3.33-2.56.8-5.11,1.61-7.66,2.42-.11.04-.22.08-.34.19,2.09.83,4.18,1.66,6.3,2.5-.08.06-.13.11-.18.15-1.31.84-2.61,1.69-3.92,2.54-.16.1-.28.12-.46.04-1.56-.7-3.13-1.39-4.7-2.09-.7-.31-1.33-.73-1.82-1.33-1.11-1.36-.89-2.9.59-3.86.48-.31,1.04-.54,1.58-.72,2.5-.82,5.02-1.6,7.52-2.39.21-.07.31-.16.35-.39.34-1.94.68-3.89,1.03-5.8.19-1.04.29-2.1.79-3.05.19-.37.42-.72.7-1.03,1-1.11,2.39-1.15,3.45-.1.36.36.66.77.93,1.21,1.16,1.9,2.3,3.8,3.45,5.72.13.23.26.27.5.21,2.8-.75,5.6-1.49,8.42-2.23.58-.15,1.16-.21,1.76-.1,1.29.24,1.86,1.22,1.42,2.48-.2.57-.54,1.05-.93,1.5-1.96,2.3-3.92,4.61-5.86,6.91-.16.19-.16.32-.05.53,1.17,2.21,2.33,4.41,3.51,6.65.28.53.49,1.08.5,1.69.01,1.38-1,2.51-2.37,2.72-.77.11-1.48-.05-2.21-.27-1.76-.54-3.51-1.08-5.28-1.61-.16-.05-.23-.11-.26-.29-.2-1.24-.42-2.48-.64-3.71,0-.03,0-.07.01-.15,2.01.55,4,1.1,6.07,1.67"/><path class="cls-11" d="m743.2,208.91c-1.58,0-3.16-.01-4.76,0-.21,0-.33-.06-.44-.24-1.87-2.86-3.77-5.72-5.63-8.56-.06-.09-.12-.18-.23-.33-.4,3.08-.8,6.09-1.2,9.11h-4.15c.05-.4.09-.8.14-1.18.4-3.11.81-6.18,1.22-9.29.39-2.96.77-5.92,1.17-8.88.01-.09.07-.2.14-.25,1.43-.93,2.86-1.85,4.3-2.78.02-.01.05-.01.12-.04-.43,3.31-.86,6.59-1.29,9.87.02.01.03.02.05.04,2.25-2.49,4.5-4.99,6.79-7.52.07.38.12.71.18,1.04.16.94.32,1.88.49,2.82.04.19-.02.3-.14.44-1.45,1.52-2.9,3.05-4.35,4.59-.06.07-.12.14-.2.22.05.07.09.15.13.21,2.5,3.51,4.99,7.02,7.49,10.53.05.06.11.11.17.17v.06"/><path class="cls-11" d="m694.15,199.63c-.06-.32-.11-.8-.25-1.24-.7-2.14-2.89-3.31-5.17-2.79-2.5.58-4.3,2.55-4.53,5.11-.19,1.89.82,3.71,2.71,4.38,1.52.55,2.99.32,4.35-.5,1.8-1.08,2.78-2.68,2.9-4.96h-.02Zm-10.97,7.98c-.12.92-.24,1.79-.35,2.66-.15,1.16-.3,2.31-.45,3.48-.02.13-.06.2-.2.19-1.14,0-2.28,0-3.42,0-.03,0-.05-.01-.11-.03.07-.55.14-1.09.21-1.64.25-1.92.5-3.83.76-5.75.29-2.19.52-4.38.9-6.56.66-3.86,3.95-7.17,7.78-8.01,2.23-.48,4.35-.26,6.3,1,1.94,1.25,3.05,3.08,3.31,5.34.36,3.22-.83,5.89-3.11,8.13-1.5,1.45-3.31,2.38-5.37,2.69-2.14.32-4.15-.03-5.95-1.29-.07-.05-.14-.09-.25-.16"/><path class="cls-11" d="m681.26,189.32c-1.28.95-2.51,1.87-3.74,2.79-.2-.31-.38-.63-.59-.92-.54-.75-1.2-1.31-2.17-1.38-.81-.06-1.5.21-2.05.8-.49.53-.55,1.29-.1,1.89.5.66,1.06,1.29,1.62,1.9.94,1.02,1.92,1.99,2.84,3.02.84.93,1.52,1.97,1.73,3.25.25,1.51-.05,2.93-.77,4.27-1.32,2.45-3.4,3.89-6.15,4.32-1.21.2-2.42.16-3.6-.19-1.57-.46-2.66-1.49-3.37-2.93-.25-.51-.44-1.06-.66-1.61,1.37-.73,2.71-1.45,4.06-2.17.05.11.08.21.12.3.23.46.42.95.71,1.38.85,1.26,2.22,1.65,3.6,1.02.36-.16.7-.39,1-.65.89-.8,1.06-1.9.4-2.9-.38-.57-.86-1.09-1.32-1.6-1.11-1.23-2.26-2.42-3.34-3.69-.75-.86-1.25-1.87-1.42-3.02-.18-1.27.08-2.46.73-3.51,1.63-2.64,4-4,7.14-3.92,1.79.06,3.22.9,4.32,2.3.33.41.64.84.97,1.29"/><path class="cls-11" d="m711.56,203.4c-.21,1.59-.41,3.11-.61,4.61-.01.08-.07.18-.14.21-3.11,1.43-7.17,1.23-9.69-1.65-1.36-1.55-1.94-3.4-1.85-5.43.2-4.73,4.12-8.88,8.82-9.46,2.74-.34,5.14.4,6.99,2.54,1.27,1.45,1.85,3.19,1.76,5.11-.06,1.27-.26,2.52-.41,3.77-.22,1.78-.47,3.57-.7,5.34,0,.06-.02.13-.04.21h-3.69c.05-.41.09-.81.15-1.21.27-2.06.56-4.12.8-6.18.15-1.28.05-2.56-.53-3.74-.62-1.26-1.67-1.93-3.05-2.08-2.85-.3-5.57,1.68-6.15,4.47-.4,1.85.23,3.63,1.71,4.61,1.44.95,2.96.96,4.53.34.8-.31,1.47-.81,2.11-1.48"/><path class="cls-11" d="m727.23,192.17c-.17,1.28-.34,2.55-.5,3.83-.78,0-1.55,0-2.32,0-.62,0-1.19.41-1.38.99-.07.23-.1.47-.13.71-.39,2.96-.77,5.89-1.16,8.82-.1.74-.19,1.49-.29,2.24h-3.86c.07-.57.14-1.11.21-1.66.25-1.91.5-3.83.75-5.72.22-1.65.42-3.31.67-4.96.35-2.21,2.54-4.18,4.76-4.27,1.06-.05,2.13,0,3.22,0"/><path class="cls-13" d="m747.84,208.91v-1.63h0l-.64,1.63h-.2l-.64-1.63h-.01v1.63h-.32v-1.95h.5l.58,1.48.57-1.48h.49v1.95h-.32Zm-2.83-1.69v1.69h-.32v-1.69h-.61v-.26h1.54v.26h-.61"/><path class="cls-10" d="m686.4,186.59h.95l-.23-1.45-.73,1.45Zm1.11.93h-1.59l-.5.99h-1.13l2.48-4.64h1.09l.84,4.64h-1.04l-.15-.99"/><path class="cls-10" d="m693.19,184.82h-.57l-.19,1.07h.57c.34,0,.61-.22.61-.65,0-.28-.17-.42-.42-.42h0Zm-1.37-.93h1.49c.78,0,1.32.46,1.32,1.26,0,1-.71,1.68-1.72,1.68h-.64l-.3,1.7h-.97l.82-4.64"/><path class="cls-10" d="m697.92,186.59h.95l-.23-1.45-.73,1.45Zm1.1.93h-1.59l-.5.99h-1.13l2.48-4.64h1.09l.84,4.64h-1.04l-.15-.99"/><path class="cls-10" d="m705.18,188.36c-.33.15-.69.24-1.05.24-1.23,0-2-.92-2-2.07,0-1.47,1.24-2.71,2.71-2.71.37,0,.7.09.98.24l-.14,1.11c-.2-.23-.53-.38-.94-.38-.84,0-1.6.76-1.6,1.65,0,.67.42,1.2,1.09,1.2.41,0,.8-.16,1.07-.37l-.13,1.1"/><path class="cls-10" d="m711.27,186.65h-2.02l-.33,1.87h-.97l.82-4.64h.97l-.33,1.83h2.02l.33-1.83h.97l-.82,4.64h-.97l.33-1.87"/><path class="cls-10" d="m714.75,188.51l.82-4.64h2.57l-.16.93h-1.6l-.16.9h1.47l-.16.93h-1.47l-.16.93h1.6l-.16.93h-2.57"/></g><g id="Flink"><polygon class="cls-10" points="303.3 181.56 303.3 181.56 303.3 181.56 303.3 181.56"/><path class="cls-10" d="m305.9,193.31c-.29.46-.35,1.33.31,1.84,1.08.82,2.03.12,2.66.53.2.13.33.02.41-.2.18-.5.26-1.02.2-1.55-.03-.25-.08-.51-.18-.75-.39-.92-1.59-1.3-2.47-.8-.11.06-.22.14-.32.22-.11.09-.21.19-.32.29.05.06.09.11.14.16.11.11.15.24.11.39-.1.46-.01.9.35,1.14.35.23,1.44.54,2.09-.33.31.58.09,1.07.05,1.1,0,0-.3-.29-1.08-.25-.43.02-1.01-.09-1.38-.34-.44-.3-.53-.85-.55-1.38,0-.02,0-.03,0-.08Zm2.09-.06c0,.32-.26.58-.58.58s-.58-.26-.58-.58.26-.58.58-.58.58.26.58.58Z"/><path class="cls-10" d="m301,188.83s0-.07,0-.1c-.01-.02-.03-.05-.04-.07.03.05.05.11.04.17Z"/><path class="cls-10" d="m302.23,184.88s-.02,0-.04,0c0,.01-.01.03-.02.04.01-.01.04-.03.05-.04Z"/><path class="cls-10" d="m312.79,209.7c.03-.19.06-.36.09-.54.07-.39.15-.79.18-1.2.09-1.46-.36-2.73-1.36-3.79l.03-.16c.05-.22.11-.5.14-.77.08-.67-.13-1.27-.66-1.84-.02-.02-.03-.04-.04-.05-.13-.38-.4-.69-.82-.9-.24-.12-.5-.21-.76-.27.32-.13.64-.29.96-.49.04-.02.05-.03.05-.03,1.06-.16,1.9-.98,2.08-2.03,0-.02,0-.05.01-.07,0-.04.01-.09.02-.11.42-.65.49-1.38.22-2.16-.09-.25-.2-.51-.29-.73-.08-.18-.15-.35-.22-.52-.07-.2-.16-.42-.18-.61-.05-.55-.13-1.28-.33-2.01-.42-1.51-1.15-2.69-2.23-3.62-.99-.84-2.04-1.21-3.46-1.42.19.3-.06.44.07.78.06.14.07.27.07.39,2.44.83,4.28,3.05,4.59,5.71,0,.08.02.16.02.24.02.22.04.45.11.67.08.26.2.5.32.73.05.1.09.19.14.29.04.09.08.18.12.26.09.18.18.39.26.59.07.18.14.58.05.83,0,0-.46-.58-.92-.63-.44-.04-.55.27-.55.27,0,0,.89.31,1.14.99-.03.36-.16.66-.39.89-.28.29-.57.38-.87.42-.34.05-.59-.11-.59-.11,0,0-.19,1.04-2.33,1.04h-.13c-.63,0-1.24.17-1.91.55-.89.73-2.88.66-2.88.66-.56-.09-1.08-.24-1.59-.44-.94-.37-1.76-.91-2.4-1.7-.34-.43-.6-.9-.78-1.41-.02-.05-.04-.09-.05-.14,0,.5.1.98.31,1.43.44.9,1.17,1.5,2.08,1.88.79.34,1.62.45,2.47.41l.18.2c.09.1.18.13.24.14.35.08.71.12,1.12.12.16,0,1.11-.22,2.09.27.09.04.21.1.35.1.07,0,.14-.01.21-.04l.11-.04c.23-.09.68-.27.68-.27,2.79-.61,3.19,1.49,3.19,1.49-.07-.03-.16-.06-.25-.06-.11,0-.21.04-.31.11l-.32.24.48.3c.1.06.19.12.27.17.11.07.15.18.15.34-.01.43-.51.87-.99.87-.05,0-.11,0-.16-.02-.19-.04-.3-.11-.36-.22-.06-.09-.18-.19-.33-.19h-.13c-.15.01-.31.02-.46.05h-.04c-.21.06-.41.1-.6.1-.07,0-.13,0-.2-.02-.09-.02-.18-.04-.27-.06l-.42-.1-.07.25c-.11.37-.28.71-.53,1.03-.54.69-1.26,1.17-2.21,1.48-.7.23-1.46.35-2.25.35-.42,0-.86-.03-1.31-.1-1.7-.24-2.89-1.16-3.52-2.74-.11-.26-.18-.55-.25-.83-.04-.16-.08-.3-.12-.45-.22-.76-.51-1.44-.87-2.07-.66-1.16-1.49-1.98-2.52-2.52-.83-.43-1.73-.66-2.69-.66-.4,0-.81.04-1.23.11-.17.03-.35.05-.52.11-.91.35-1.02.51-1.02.51l.44.03c.07,0,.23.02.39.05.18.02.36.05.43.05.31.01.6.03.88.06,1.2.12,2.29.49,3.25,1.09,1.28.81,2.07,1.82,2.4,3.07.21.77.5,1.54.87,2.28.22.44.5.96.92,1.4.58.63,1.33,1.05,2.35,1.34.27.08.54.16.77.23.03,0,.05.02.08.1.13.33.16.65.09.98-.1.51-.35.99-.75,1.46-.32.37-.74.66-1.15.93-.22.15-.44.31-.63.48-.24.21-.37.48-.35.78.01.24.03.65.44.65.09,0,.19-.02.35-.07.07-.02.14-.05.2-.08l.36-.16c.2-.09.4-.17.6-.26.4-.17.79-.25,1.17-.25.2,0,.39.02.58.07.55.13,1.05.43,1.16.86,0,0,.38,1.66-2.37,1.64-.22,0-.45-.05-.69-.11l-.13-.03c-.26-.06-.5-.09-.72-.09-.21,0-.4.04-.59.07h-.09c-.55.11-1.14.16-1.91.16-.34,0-16.38-.01-16.38-.01-1.45,0-2.82-.2-4.08-.53-5.24-1.37-8.97-4.31-11.41-8.78-.88-1.63-1.49-3.39-1.8-5.26.02.03,1.75,2.65,1.75,2.65,0,0-1.91-3.46-1.99-5.52-.03-.72.04-1.47.13-2.2.06.19.11.37.18.55.89,2.54,2.25,4.92,4.14,7.28.05.06.08.12.1.18.29.9.69,1.75,1.18,2.55-1.11-.23-2.69-1.78-2.69-1.78l.21.4c1.24,2.38,4.14,3.83,4.71,4.04,1.67,1.48,3.69,2.56,6.02,3.19.13.04.26.07.4.1l1.14.27-.73-.7c-.08-.08-.17-.11-.23-.13-1.65-.59-3.15-1.42-4.48-2.46-1.73-1.36-2.98-3.03-3.7-4.96-.09-.23-.08-.35-.04-.46.04-.11.07-.21.09-.32.02-.07.03-.13.05-.18.39-1.26.97-2.24,1.78-3.01.76-.71,1.73-1.24,2.97-1.6,1.18-.35,2.42-.51,3.63-.66l.52-.07c.68-.09,1.37-.19,2.03-.3l.35-.05c-.45.58-.84,1.2-1.16,1.85-.08.03-2.53.58-2.82.64-3.88.83-4.14,3.29-4.14,3.29,0,0,1.68-2.22,5.71-2.34h.14c.16,0,.32,0,.49.01-1.12,5.84,1.05,7.87,1.03,7.8-.49-1.87-.61-3.57-.38-5.19.31-2.11,1.24-3.93,2.77-5.41,1.04-1.01,2.35-1.85,4-2.58,1.44-.64,2.95-1.03,4.37-1.37l.27-.06c1.04-.25,2.1-.51,3.13-.81,1.6-.47,2.98-1.24,4.13-2.29.17-.16.37-.34.54-.56.81-1.05,1.72-1.84,2.78-2.43.15.67.53,1.3,1.15,1.68-.66-1.13-.99-2.27-.68-3.33.3-.95.79-1.42,1.31-2.34.62-1.2.69-2.9.7-2.9.11-.12.19-.23.31-.35.14-.14.28-.29.42-.43.42-.43.73-.98.86-1.63.13-.68-.17-1.04-.17-1.04.11-.42.27-.82.3-1.24.06-.78-.18-1.49-.29-1.49-.05,0-1,1.08-1.51,1.28-.12-.74-.31-1.49-.61-2.42-.22-.7-.28-1.28-.19-1.82.07-.4.55-.96.55-.96l.23-.27-.31-.16c-.05-.03-.45-.12-.59-.12-.39,0-.71.14-.95.41-.05-.32-.05-.64-.02-.97.05-.56.28-1.08.46-1.47.06-.12.13-.28.18-.44.06-.21.03-.4-.08-.55-.11-.15-.29-.23-.5-.23-.18,0-.35.03-.49.09-.64.24-1.14.65-1.49,1.22-.12-.13-.22-.28-.29-.46-.09-.23-.2-.45-.3-.65-.09-.17-.21-.25-.35-.25-.1,0-.18.04-.24.1-.18-.49-.49-.91-.9-1.23-.03-.02-.05-.04-.09-.06l-.56-.34s.11.72.11.72c-1.43-.93-3-1.6-4.69-2-.13-.03-.27-.06-.41-.09-.41-.08-1.59-.54-1.8-.61-.05-.02.04.34.04.34-.17,0-1.14-.2-1.17-.2l-.08.29s-1.29-.59-1.55-.59c0,0-.26.48-.3.48-1.17.07-2.3.25-3.34.5-1.83.46-3.37,1.14-4.68,2.08-1.15.83-1.98,1.75-2.58,2.78-.3.52-.75,1.34-.83,1.87.33-.12,1.03-.14,1.15-.14.59,0,1.47.34,2.11.81.69.5,1.18,1.13,1.45,1.86.39,1.05.21,2.03-.53,2.91-.23-.78-.55-1.36-.98-1.84-.3-.34-.66-.59-1.06-.75-.06-.03-.13-.04-.19-.05h-.1s.51,1.14.57,1.62c.13,1.04,0,2.49-1.01,2.78-.3.08-.59.21-.89.31-.54.19-1.09.38-1.64.58-1.53.57-2.9,1.21-4.17,1.96.39-.59.03-1.21-.08-1.33-.04.62-1.98,2.7-2.35,3.02-1.37,1.16-2.41,2.24-3.27,3.38-.66.89-1.25,1.82-1.74,2.78-.05-.51-.06-1.02-.04-1.54,0-.23-1.28,1.96-1.06,4.17,0,0,0,.03-.02.1-.41,1.3-.68,2.6-.79,3.86-.41,4.61.74,8.87,3.41,12.56,2.85,3.93,6.71,6.57,11.48,7.68,1.27.29,2.67.57,4.68.57h8.41l11.48-.02s1.35,0,2.12-.42c.65-.36,1.03-.71,1.3-1.33.41-.96.06-2.19-.82-2.83-.52-.38-1.14-.57-1.9-.57-.07,0-.14,0-.21,0-.07,0-.15,0-.22.01.59-.6.99-1.3,1.19-2.1.09-.36.12-.73.09-1.11v-.02s.18,0,.18,0c.4-.02.81-.04,1.21-.07-.13.17-.23.37-.31.59-.2.62-.28,1.14-.26,1.63.04.86.36,1.66.97,2.39.47.56,1.04,1.01,1.75,1.37-.07.3-.05.61.05.91.08.23.23.41.45.54.24.13.5.22.78.22.1,0,.2.02.31,0,.43.96,1.49.83,1.49.83.87-.2,1.17-1.02,1.08-1.69-.01-.08-.03-.16-.04-.24l.05-.02c.23-.06.47-.12.71-.2,1.61-.56,2.64-1.66,3.08-3.26.2-.72.05-1.34-.42-1.84Zm-11.99-25.29c-2.46,6.84-8.2,7.77-8.78,7.77,0,0-1.87.14-2.7-.06.03.12.43.58,1.37.71-.36.08-.74.15-1.1.2-.98.14-2.13.33-3.28.68-.05.01-.1.02-.16.02h-.03c-1.07-.07-2.14-.15-3.2-.23-.65-.05-1.24-.07-1.82-.07-.69,0-1.33.03-1.95.1-1.41.15-2.81.49-4.15,1.01-3.86,1.65-5.92,3.85-5.92,3.85,0,0,3.95-2.66,6.05-3.2,4.58-1.17,7.49-.2,8.01-.07-.32.19-.63.39-.93.61-.24.18-.51.31-.82.43-.23.09-.47.17-.73.25-1.06.33-2.17.53-3.25.72,0,0-.44.08-.64.11-1.05.19-2.16.39-3.26.63-1.09.24-2.03.59-2.89,1.08-1.57.89-2.5,2.24-2.77,4-.46-.87-.79-1.71-.82-2.58-.18-4.52,2.98-6.2,3.91-6.81.94-.62,2.06-1.14,3.5-1.62,1.99-.67,4.05-1.11,5.99-1.48.73-.14,1.47-.28,2.2-.42l.18-.03c.86-.16,1.73-.33,2.59-.49,1.51-.29,2.72-.68,3.81-1.21,1.72-.85,3.02-1.75,4.1-2.84.86-.03,1.64-.11,2.38-.25,1.97-.37,3.84-1.12,5.57-2.22-.13.5-.3.96-.46,1.41Zm1.89-6.29c.24-.12.51-.19.78-.27,0,0,.16-.05.23-.07-.01.07-.03.14-.05.21-.41,1.24-1.11,2.35-2.11,3.29-.64.6-1.42,1.1-2.54,1.61-.94.43-1.96.78-3.16,1.09.34-.1.69-.22,1.03-.36,1.76-.73,3.37-1.84,4.92-3.38.02-.02.04-.05.06-.07l.48-.66-.77.22c-.09.03-.15.07-.2.1-1.31.91-2.51,1.64-3.66,2.24-.72.37-1.64.79-2.56,1.02-.02,0-.11,0-.11.01h0c0-.35.17-.69.43-1.01.19-.24.55-.54.81-.74.8-.61,1.67-1.1,2.41-1.48-.27.35-.55.62-.93.81,0,0,.44.47,1.02.26.66-.24.96-.46,1.39-.82.24-.2.48-.4.71-.61.28-.24.62-.54.95-.81.24-.19.56-.43.89-.59Zm-3.17-7.15c.22-.84.48-1.44.83-1.94.16-.23.33-.4.51-.52,0,.02-.04.09-.04.09-.51,1.24-.76,2.56-.76,4.03,0,.22-.03.43-.05.63-.14,1.16-.79,2.11-1.19,2.53.1-1.84.32-3.38.7-4.81Zm-22.9,10.19c.44-.42.81-.77,1.09-1.09.47-.55.96-1.85.97-1.88,1.97,1.73-.74,4.34-1.65,5.19-.01.01,1.86.43,3.35-1.34,5.17-6.14-.6-10.58-2.6-11.06-.14-.03-.84-.25-1.24-.14,3.58-5.2,9.25-3.9,9.25-3.9,0,0-.44-.84-1.85-.86-.05,0-.09,0-.14,0-.07,0-.15,0-.22,0,.04-.01.08-.03.12-.04.6-.18,1.95-.76,3.83-.04.36.14,1.11.58,1.11.58l-.1-.36-.07-.16-.02-.05c-.03-.08-.05-.14-.08-.2s-.06-.12-.1-.18c.05.02.11.04.16.07.35.17.7.21,1,.23.47.03.88.07,1.25.13.54.08.94.36,1.2.83.08.14.17.28.23.39.29.51.91.56.91.56l-.19-.45-.19-.64c.09.07.2.15.27.26.34.53,1.14.59,1.14.59l-.14-.84c.05.03,2.69,1,2.83,2.06,0,.06,0,.82,0,.82,0,0,.53-.52.57-1.23.12.1,1.45,1.02,1.16,2.27-.24.81-.27,1.7-.28,2.86,0,.28,0,.55,0,.82v.12c0,.53-.02,1.13-.02,1.72-.02,1.63-.38,2.22-.38,2.22l.09-.03c.09-.03.17-.06.24-.1.34-.17.64-.43.93-.78.57-.69.93-1.46,1.23-2.2.21-.53.44-1.09.68-1.65.87,2.14-1.17,3.97-1.17,3.97,0,0,1.58-.85,2.01-1.7,0,0,.38,1.05-1.32,1.79-.8.36-1.63.7-2.45,1l-.48.18c-.2.07-.4.18-.61.31-.11.07-.21.15-.32.25.13-.54.35-1,.6-1.43.4-.68.58-1.54.68-1.99l.09-.39s-.5.62-.84.81c.01-.07.03-.14.05-.2.4-1.17.31-2.1.31-2.1,0,0-.61.44-.63.46.21-1.33-.04-2.06-.04-2.06,0,0-.48,1.39-.88,1.67-.19-.48-.51-.93-.68-1.1-.54-.53-.86-1.86-.86-1.86,0,0-.55.34-.56.36.04-.1.06-.46-.1-1.17,0,0-.53.55-.54.6,0,0-.4-1.26-.5-1.26-.03,0-.19.54-.23.64,0-.06-.42-1.08-.42-.84,0,.2-.23.65-.61.46-1.47-.74-3.06-1.26-4.73-1.39-4.13-.32-5.13.81-5.33,1.07,0,0,1.92-.49,4.44-.11,1.63.24,3.2.76,4.65,1.55,1.03.56,1.87,1.19,2.55,1.9-.17.85-5.34.58-5.34.58,0,0,1.3,1.15,4.99.57.44-.07.79.11,1.11.35.12.1.18.26.15.35-.02.07-.15.08-.23.08-.04,0-.09,0-.14-.01-.11-.02-.17-.02-.21-.02-.18,0,3.93,2.93.36,7.94-.74,1.04-2.93,2.25-4.09,2.65,3.74-4.35.2-7.33-.73-8-.81-.6-1.79-1.05-3.07-1.43-.15-.05-.31-.09-.47-.13l-1.17-.32.67.73s.05.06.11.09c.04.02.08.03.12.05.82.32,1.49.68,2.05,1.09.94.7,5.44,3.64.22,8.84-.18.18-.66.44-.74.47,1.4-2.37.22-4.19.22-4.19,0,0-.65,2.37-1.02,3.03-.45.78-1.04,1.42-1.66,1.64.98-1.91,0-2.99,0-2.99.97,4.32-9.9,5.34-12.46,7.26-.06-.26-.12-.61-.12-.89-.05-4.81,3.12-7.83,5.02-9.64Zm-7.52,1.42c-.17.68-.31,1.33-.43,2.68-.01.18-.05.91-.05.91,0,0,.9-3.94,5.04-4.38-.84,1.26-1.52,2.59-2.03,3.95-.46,1.22-.75,2.4-.87,3.59-.09.88-.1,1.73,0,2.55-.05.04-.1.07-.15.1-.92-.52-1.21-2.05-1.14-3.26.06-.98.67-3.23.57-3.04-.59,1.23-1.62,2.97-1.68,4.63-.04,1.17.31,2.3,1,3.33-.1-.02-.22-.06-.37-.14h-.02s-.05-.06-.05-.06c-.07-.07-.15-.14-.2-.21-3.81-5.09.12-10.16.39-10.65Zm-2.52,4.01c-.05.37-.09.73-.12,1.09-.1,1.2-.05,2.27.14,3.26.17.86.45,1.52.87,2.08.29.38.61.67.98.87-.43.51-.81,1.06-1.11,1.64-.16-.22-.27-.42-.35-.63l-.3-.81s-1.24,2.15-.51,4.73c0,0-6.11-8.03.39-12.22Zm-.55,13.28s.04.08.04.13c.03.59.06,1.08.1,1.58,0,0,0,0,0,0-1.86-2.27-3.04-4.85-3.51-7.7.43,2.04,2.25,4.75,3.37,5.99Zm44.84,13.65c-.64.35-1.59.44-2.41.44-.2,0-.43-.01-.66-.04-.04,0-.09,0-.13,0-.18,0-.39,0-.5.13-.15.2-.24.67.76.66.05,0,.56-.07.77.3.17.3.06.8-.07.94-.5.55-1.39-.27-1.39-.27-.19,0-.68.15-1.19-.36-.51-.52.1-1.63-.11-1.72-.2-.08-.25-.1-.44-.2-1.09-.56-2.54-1.82-1.84-3.55.57,1.43,2.62,2.15,3.59,2.31,2.75.45,4.73-.31,4.77-.33.04.58-.71,1.44-1.16,1.69Zm.92-5.46c-.05.49-.15.96-.27,1.49-.15.68-.57,1.13-1.23,1.33-.28.08-.59.12-.98.12-.65,0-1.31-.09-2.01-.26-.7-.17-1.16-.35-1.53-.6-.46-.3-.73-.66-.84-1.12-.08-.34-.04-.68,0-.95,0-.01,0-.03,0-.03,0,0,.01,0,.04-.01,1.28-.51,2.17-1.3,2.71-2.41.03-.07.06-.08.11-.08.16-.02.3-.03.43-.03.37,0,.69.07.96.22.19.1.39.15.59.15s.4-.05.61-.15c.15-.07.29-.16.41-.25.08-.06.15-.12.22-.18.62.8.88,1.72.78,2.76Z"/><path class="cls-10" d="m303.79,190.06c.57-.36.63-.93.63-.93.21-.9-.65-2.37-.93-3.13-.22-.62-.43-1.67-.26-2.31.69.21,1.54.84,2.04,1.38.54.59.98,1.44.91,2.23-.03.32-.18.73-.41,1.13-.1.18-.05.55.28.55.25,0,.36-.04.55-.29.65-.87.75-1.66-.12-2.82-.62-.83-1.29-1.42-2.12-2.04-.23-.17-.65-.37-.94-.43-.32-.07-.51.09-.62.4-.04.11-.06.23-.08.35-.18,1.04.05,1.98.56,2.92.68,1.24.67,1.79.06,3.1,0,0,.13.09.45-.11Z"/></g><g id="dag"><path id="path3506" class="cls-3" d="m531.23,102.33l2.49,14.32"/><path id="path3504" class="cls-3" d="m520.57,89.13l-12.09-6.84"/><path id="path3514" class="cls-3" d="m524.32,97.67l-17.08,9.4"/><path id="path3510" class="cls-3" d="m504.85,115.53l21.27,7.71"/><path id="path3252" class="cls-6" d="m541.69,133.26c-3.05,3.03-7.98,3.02-11.02-.03s-3.02-7.98.03-11.02c0,0,0,0,.01-.01,3.05-3.03,7.98-3.02,11.02.03s3.02,7.98-.03,11.02c0,0,0,0-.01.01Z"/><path id="path3262" class="cls-6" d="m502.73,118.56c-3.05,3.03-7.98,3.02-11.02-.03-3.03-3.05-3.02-7.98.03-11.02,0,0,0,0,.01-.01,3.05-3.03,7.98-3.02,11.02.03s3.02,7.98-.03,11.02c0,0,0,0-.01.01Z"/><path id="path3169" class="cls-6" d="m507.38,85.01c-3.05,3.03-7.98,3.02-11.02-.03s-3.02-7.98.03-11.02c0,0,0,0,.01-.01,3.05-3.03,7.98-3.02,11.02.03s3.02,7.98-.03,11.02c0,0,0,0-.01.01Z"/><path id="path4549" class="cls-5" d="m518.38,89.71l3.72.44-2.55-2.75c.16.94-.32,1.87-1.17,2.31Z"/><path id="path3242" class="cls-6" d="m536.09,99.95c-3.05,3.03-7.98,3.02-11.02-.03s-3.02-7.98.03-11.02c0,0,0,0,.01-.01,3.05-3.03,7.98-3.02,11.02.03s3.02,7.98-.03,11.02c0,0,0,0-.01.01Z"/><path id="path3490" class="cls-5" d="m532.18,115.28l1.72,3.33.85-3.65c-.69.65-1.73.78-2.57.32Z"/><path id="path3494" class="cls-5" d="m524.03,123.93l3.75.13-2.77-2.52c.23.92-.16,1.89-.97,2.4Z"/><path id="path3496" class="cls-5" d="m507.83,105.27l-2.55,2.75,3.72-.45c-.85-.43-1.32-1.36-1.18-2.31Z"/><path id="path3500" class="cls-5" d="m497.79,100.59l.91,3.64,1.67-3.36c-.82.48-1.86.36-2.57-.28Z"/><path id="path3502" class="cls-3" d="m500.45,87.35l-1.24,13.53"/><path id="path3508" class="cls-3" d="m505.53,86.66l23.45,32.81"/><path id="path3492" class="cls-5" d="m526.76,118.94l3.22,1.93-1.2-3.55c-.24.92-1.06,1.57-2.02,1.62Z"/></g><g id="terminal"><rect class="cls-7" x="268.21" y="64.58" width="48.62" height="46.89"/><polyline class="cls-7" points="284.16 82.13 276.97 92.36 284.16 102.02"/><polyline class="cls-7" points="300.9 82.13 308.1 92.36 300.9 102.02"/><line class="cls-7" x1="297.25" y1="83.61" x2="288.78" y2="100.54"/><line class="cls-7" x1="268.21" y1="71.77" x2="316.83" y2="71.77"/></g><g id="Lines"><line class="cls-1" x1="335.34" y1="170.71" x2="367.5" y2="151.5"/><line class="cls-1" x1="408.5" y1="176.5" x2="408.5" y2="207.5"/><line class="cls-1" x1="614.5" y1="176.5" x2="614.5" y2="207.5"/><line class="cls-1" x1="817.5" y1="176.5" x2="817.5" y2="207.5"/><line class="cls-1" x1="600.5" y1="267.5" x2="576.5" y2="297.5"/><line class="cls-1" x1="796.95" y1="265.83" x2="772.95" y2="295.83"/><line class="cls-1" x1="745.5" y1="238.5" x2="686.5" y2="238.5"/><line class="cls-1" x1="531.5" y1="238.5" x2="472.5" y2="238.5"/><line class="cls-1" x1="546.78" y1="166.83" x2="578.94" y2="147.62"/><line class="cls-1" x1="756.47" y1="162.92" x2="788.63" y2="143.71"/><line class="cls-1" x1="665.6" y1="297.55" x2="641.6" y2="267.55"/><line class="cls-1" x1="851.6" y1="295.55" x2="827.6" y2="265.55"/><line class="cls-1" x1="383.05" y1="265.52" x2="359.05" y2="295.52"/><line class="cls-1" x1="448.15" y1="295.57" x2="424.15" y2="265.57"/><line class="cls-1" x1="443.52" y1="149.94" x2="475.68" y2="169.15"/><line class="cls-1" x1="655.52" y1="148.94" x2="687.68" y2="168.15"/><line class="cls-1" x1="849.52" y1="145.94" x2="881.68" y2="165.15"/><line class="cls-1" x1="759.52" y1="109.94" x2="791.68" y2="129.15"/><line class="cls-1" x1="553.52" y1="107.94" x2="585.68" y2="127.15"/><line class="cls-1" x1="649.52" y1="127.15" x2="681.68" y2="107.94"/><line class="cls-1" x1="843.52" y1="123.15" x2="875.68" y2="103.94"/><line class="cls-1" x1="439.52" y1="125.15" x2="471.68" y2="105.94"/><line class="cls-1" x1="341.52" y1="112.94" x2="373.68" y2="132.15"/><line class="cls-1" x1="613.69" y1="95.23" x2="613.72" y2="114.3"/><line class="cls-1" x1="816.42" y1="95.45" x2="816.45" y2="114.51"/><line class="cls-1" x1="407.08" y1="94.58" x2="407.11" y2="113.64"/></g><g id="Kafka-2"><path id="path3139-2" class="cls-10" d="m572.56,218.42h0c-.49-.48-1.16-.77-1.91-.77s-1.42.29-1.9.77h-.01c-.48.47-.79,1.14-.79,1.87s.3,1.39.79,1.86h.01c.48.49,1.15.78,1.9.78s1.43-.29,1.91-.76h0c.49-.48.78-1.14.78-1.88s-.3-1.39-.78-1.87c0,0,0,0,0,0Zm-1.91,36.12h0c.75,0,1.43-.3,1.91-.77h0c.49-.48.78-1.14.78-1.87s-.3-1.39-.78-1.87h0c-.49-.48-1.16-.77-1.91-.77s-1.42.29-1.9.77h-.01c-.48.48-.79,1.13-.79,1.87s.3,1.39.79,1.86h.01c.48.48,1.15.78,1.9.78h0Zm14.7-7.99h0c.67-.17,1.27-.59,1.64-1.23l.05-.09h0c.33-.6.39-1.3.21-1.91-.18-.66-.61-1.24-1.26-1.61l-.04-.03c-.63-.34-1.35-.41-2.01-.24-.67.16-1.27.6-1.64,1.23-.37.62-.45,1.34-.27,2,.18.65.61,1.24,1.26,1.61h0c.64.36,1.37.43,2.05.26h0Zm-11.93-13.15h0c-.71-.69-1.69-1.12-2.77-1.12s-2.05.43-2.76,1.12c-.7.69-1.14,1.64-1.14,2.7s.43,2.01,1.14,2.71c.71.69,1.68,1.12,2.76,1.12s2.06-.43,2.77-1.12c.71-.7,1.14-1.65,1.14-2.71s-.43-2.01-1.14-2.7h0Zm-1.56-4.5h0c1.57.25,2.98.99,4.06,2.05h0c.17.17.34.35.49.53l2.69-1.52c-.36-1.07-.38-2.19-.09-3.24.38-1.4,1.32-2.66,2.71-3.45l.05-.03c1.38-.76,2.95-.92,4.37-.55,1.43.38,2.73,1.29,3.54,2.65h0c.8,1.36.96,2.92.58,4.32-.38,1.4-1.32,2.67-2.71,3.45l-.37.21h-.04c-1.29.6-2.71.69-4.01.36-1.07-.28-2.05-.86-2.82-1.69l-2.69,1.52c.31.8.48,1.66.48,2.57s-.17,1.78-.48,2.58l2.69,1.52c.77-.84,1.75-1.41,2.82-1.69,1.44-.38,3.03-.22,4.42.57l.09.04h0c1.34.8,2.24,2.03,2.62,3.42.38,1.39.22,2.95-.58,4.31l-.05.09h0c-.81,1.3-2.08,2.19-3.48,2.56-1.44.37-3.03.21-4.42-.57h0c-1.4-.8-2.33-2.06-2.71-3.46-.29-1.04-.27-2.16.09-3.23l-2.69-1.52c-.15.18-.32.36-.49.53h0c-1.08,1.07-2.49,1.8-4.06,2.05v3.04c1.12.23,2.12.78,2.91,1.54h0c1.05,1.03,1.7,2.46,1.7,4.03s-.65,2.98-1.7,4.01v.02h0c-1.06,1.03-2.51,1.67-4.12,1.67s-3.05-.64-4.11-1.67h0v-.02c-1.05-1.03-1.71-2.45-1.71-4.01s.65-2.99,1.71-4.02h0s0,0,0,0c.78-.77,1.79-1.31,2.9-1.54v-3.04c-1.57-.24-2.98-.98-4.05-2.04h-.01c-1.34-1.33-2.19-3.14-2.19-5.16s.84-3.83,2.19-5.15h.01c1.08-1.06,2.48-1.8,4.05-2.05v-3.03c-1.11-.24-2.12-.78-2.9-1.55h0c-1.05-1.04-1.71-2.46-1.71-4.03s.65-2.99,1.71-4.02h0c1.06-1.04,2.51-1.67,4.11-1.67s3.06.64,4.12,1.67h0s0,0,0,0c1.05,1.03,1.7,2.46,1.7,4.02s-.65,2.99-1.7,4.02h0c-.78.77-1.79,1.32-2.91,1.56,0,0,0,3.03,0,3.03Zm15.13-2.02l-.02-.03c-.37-.61-.96-1.02-1.62-1.2-.68-.18-1.41-.1-2.05.26h0c-.65.36-1.08.95-1.26,1.6-.18.65-.1,1.38.27,2v.02c.39.62.98,1.04,1.64,1.21.67.18,1.41.11,2.05-.26l.03-.02c.63-.37,1.05-.95,1.22-1.58.18-.66.11-1.38-.26-2h0"/><path id="path3141-2" class="cls-10" d="m598.93,227.76h3.01v8.97l4.33-4.69h3.6l-5.23,5.43,5.25,6.89h-3.44l-4.52-6.15v6.15h-3.01v-16.6"/><path id="path3143-2" class="cls-10" d="m613.37,238.26c0,1.53,1.12,3.75,3.83,3.75,1.67,0,2.78-.85,3.35-1.97.3-.54.44-1.12.48-1.73.02-.58-.09-1.19-.35-1.73-.53-1.16-1.7-2.17-3.51-2.17-2.43,0-3.81,1.93-3.81,3.83,0,0,0,.02,0,.02Zm10.64,6.11h-3.01v-1.77c-.8,1.43-2.48,2.15-4.24,2.15-4.04,0-6.4-3.08-6.4-6.55,0-3.88,2.87-6.53,6.4-6.53,2.29,0,3.69,1.19,4.24,2.18v-1.8h3.01v12.32"/><path id="path3145-2" class="cls-10" d="m627.41,234.32h-1.56v-2.27h1.56v-.69c0-3.66,2.85-3.88,5-3.9v2.26c-.76,0-2,0-2,1.73v.6h2v2.27h-2v10.05h-3.01v-10.05"/><path id="path3147-2" class="cls-10" d="m634.46,227.76h3v8.97l4.33-4.69h3.6l-5.23,5.43,5.25,6.89h-3.44l-4.52-6.15v6.15h-3v-16.6"/><path id="path3149-2" class="cls-10" d="m648.89,238.26c0,1.53,1.12,3.75,3.83,3.75,1.67,0,2.77-.85,3.35-1.97.3-.54.44-1.12.48-1.73.02-.58-.09-1.19-.35-1.73-.53-1.16-1.7-2.17-3.51-2.17-2.43,0-3.81,1.93-3.81,3.83,0,0,0,.02,0,.02Zm10.64,6.11h-3.01v-1.77c-.8,1.43-2.48,2.15-4.24,2.15-4.04,0-6.4-3.08-6.4-6.55,0-3.88,2.87-6.53,6.4-6.53,2.29,0,3.69,1.19,4.24,2.18v-1.8h3.01v12.32"/></g><g id="Kafka-3"><path id="path3139-3" class="cls-10" d="m776.57,216.96h0c-.49-.48-1.16-.77-1.91-.77s-1.42.29-1.9.77h-.01c-.48.47-.79,1.14-.79,1.87s.3,1.39.79,1.86h.01c.48.49,1.15.78,1.9.78s1.43-.29,1.91-.76h0c.49-.48.78-1.14.78-1.88s-.3-1.39-.78-1.87c0,0,0,0,0,0Zm-1.91,36.12h0c.75,0,1.43-.3,1.91-.77h0c.49-.48.78-1.14.78-1.87s-.3-1.39-.78-1.87h0c-.49-.48-1.16-.77-1.91-.77s-1.42.29-1.9.77h-.01c-.48.48-.79,1.13-.79,1.87s.3,1.39.79,1.86h.01c.48.48,1.15.78,1.9.78h0Zm14.7-7.99h0c.67-.17,1.27-.59,1.64-1.23l.05-.09h0c.33-.6.39-1.3.21-1.91-.18-.66-.61-1.24-1.26-1.61l-.04-.03c-.63-.34-1.35-.41-2.01-.24-.67.16-1.27.6-1.64,1.23-.37.62-.45,1.34-.27,2,.18.65.61,1.24,1.26,1.61h0c.64.36,1.37.43,2.05.26h0Zm-11.93-13.15h0c-.71-.69-1.69-1.12-2.77-1.12s-2.05.43-2.76,1.12c-.7.69-1.14,1.64-1.14,2.7s.43,2.01,1.14,2.71c.71.69,1.68,1.12,2.76,1.12s2.06-.43,2.77-1.12c.71-.7,1.14-1.65,1.14-2.71s-.43-2.01-1.14-2.7h0Zm-1.56-4.5h0c1.57.25,2.98.99,4.06,2.05h0c.17.17.34.35.49.53l2.69-1.52c-.36-1.07-.38-2.19-.09-3.24.38-1.4,1.32-2.66,2.71-3.45l.05-.03c1.38-.76,2.95-.92,4.37-.55,1.43.38,2.73,1.29,3.54,2.65h0c.8,1.36.96,2.92.58,4.32-.38,1.4-1.32,2.67-2.71,3.45l-.37.21h-.04c-1.29.6-2.71.69-4.01.36-1.07-.28-2.05-.86-2.82-1.69l-2.69,1.52c.31.8.48,1.66.48,2.57s-.17,1.78-.48,2.58l2.69,1.52c.77-.84,1.75-1.41,2.82-1.69,1.44-.38,3.03-.22,4.42.57l.09.04h0c1.34.8,2.24,2.03,2.62,3.42.38,1.39.22,2.95-.58,4.31l-.05.09h0c-.81,1.3-2.08,2.19-3.48,2.56-1.44.37-3.03.21-4.42-.57h0c-1.4-.8-2.33-2.06-2.71-3.46-.29-1.04-.27-2.16.09-3.23l-2.69-1.52c-.15.18-.32.36-.49.53h0c-1.08,1.07-2.49,1.8-4.06,2.05v3.04c1.12.23,2.12.78,2.91,1.54h0c1.05,1.03,1.7,2.46,1.7,4.03s-.65,2.98-1.7,4.01v.02h0c-1.06,1.03-2.51,1.67-4.12,1.67s-3.05-.64-4.11-1.67h0v-.02c-1.05-1.03-1.71-2.45-1.71-4.01s.65-2.99,1.71-4.02h0s0,0,0,0c.78-.77,1.79-1.31,2.9-1.54v-3.04c-1.57-.24-2.98-.98-4.05-2.04h-.01c-1.34-1.33-2.19-3.14-2.19-5.16s.84-3.83,2.19-5.15h.01c1.08-1.06,2.48-1.8,4.05-2.05v-3.03c-1.11-.24-2.12-.78-2.9-1.55h0c-1.05-1.04-1.71-2.46-1.71-4.03s.65-2.99,1.71-4.02h0c1.06-1.04,2.51-1.67,4.11-1.67s3.06.64,4.12,1.67h0s0,0,0,0c1.05,1.03,1.7,2.46,1.7,4.02s-.65,2.99-1.7,4.02h0c-.78.77-1.79,1.32-2.91,1.56,0,0,0,3.03,0,3.03Zm15.13-2.02l-.02-.03c-.37-.61-.96-1.02-1.62-1.2-.68-.18-1.41-.1-2.05.26h0c-.65.36-1.08.95-1.26,1.6-.18.65-.1,1.38.27,2v.02c.39.62.98,1.04,1.64,1.21.67.18,1.41.11,2.05-.26l.03-.02c.63-.37,1.05-.95,1.22-1.58.18-.66.11-1.38-.26-2h0"/><path id="path3141-3" class="cls-10" d="m802.95,226.3h3.01v8.97l4.33-4.69h3.6l-5.23,5.43,5.25,6.89h-3.44l-4.52-6.15v6.15h-3.01v-16.6"/><path id="path3143-3" class="cls-10" d="m817.38,236.79c0,1.53,1.12,3.75,3.83,3.75,1.67,0,2.78-.85,3.35-1.97.3-.54.44-1.12.48-1.73.02-.58-.09-1.19-.35-1.73-.53-1.16-1.7-2.17-3.51-2.17-2.43,0-3.81,1.93-3.81,3.83,0,0,0,.02,0,.02Zm10.64,6.11h-3.01v-1.77c-.8,1.43-2.48,2.15-4.24,2.15-4.04,0-6.4-3.08-6.4-6.55,0-3.88,2.87-6.53,6.4-6.53,2.29,0,3.69,1.19,4.24,2.18v-1.8h3.01v12.32"/><path id="path3145-3" class="cls-10" d="m831.43,232.85h-1.56v-2.27h1.56v-.69c0-3.66,2.85-3.88,5-3.9v2.26c-.76,0-2,0-2,1.73v.6h2v2.27h-2v10.05h-3.01v-10.05"/><path id="path3147-3" class="cls-10" d="m838.48,226.3h3v8.97l4.33-4.69h3.6l-5.23,5.43,5.25,6.89h-3.44l-4.52-6.15v6.15h-3v-16.6"/><path id="path3149-3" class="cls-10" d="m852.91,236.79c0,1.53,1.12,3.75,3.83,3.75,1.67,0,2.77-.85,3.35-1.97.3-.54.44-1.12.48-1.73.02-.58-.09-1.19-.35-1.73-.53-1.16-1.7-2.17-3.51-2.17-2.43,0-3.81,1.93-3.81,3.83,0,0,0,.02,0,.02Zm10.64,6.11h-3.01v-1.77c-.8,1.43-2.48,2.15-4.24,2.15-4.04,0-6.4-3.08-6.4-6.55,0-3.88,2.87-6.53,6.4-6.53,2.29,0,3.69,1.19,4.24,2.18v-1.8h3.01v12.32"/></g><g id="Flink-2"><polygon class="cls-10" points="517.3 181.56 517.3 181.56 517.3 181.56 517.3 181.56"/><path class="cls-10" d="m519.9,193.31c-.29.46-.35,1.33.31,1.84,1.08.82,2.03.12,2.66.53.2.13.33.02.41-.2.18-.5.26-1.02.2-1.55-.03-.25-.08-.51-.18-.75-.39-.92-1.59-1.3-2.47-.8-.11.06-.22.14-.32.22-.11.09-.21.19-.32.29.05.06.09.11.14.16.11.11.15.24.11.39-.1.46-.01.9.35,1.14.35.23,1.44.54,2.09-.33.31.58.09,1.07.05,1.1,0,0-.3-.29-1.08-.25-.43.02-1.01-.09-1.38-.34-.44-.3-.53-.85-.55-1.38,0-.02,0-.03,0-.08Zm2.09-.06c0,.32-.26.58-.58.58s-.58-.26-.58-.58.26-.58.58-.58.58.26.58.58Z"/><path class="cls-10" d="m515,188.83s0-.07,0-.1c-.01-.02-.03-.05-.04-.07.03.05.05.11.04.17Z"/><path class="cls-10" d="m516.24,184.88s-.02,0-.04,0c0,.01-.01.03-.02.04.01-.01.04-.03.05-.04Z"/><path class="cls-10" d="m526.79,209.7c.03-.19.06-.36.09-.54.07-.39.15-.79.18-1.2.09-1.46-.36-2.73-1.36-3.79l.03-.16c.05-.22.11-.5.14-.77.08-.67-.13-1.27-.66-1.84-.02-.02-.03-.04-.04-.05-.13-.38-.4-.69-.82-.9-.24-.12-.5-.21-.76-.27.32-.13.64-.29.96-.49.04-.02.05-.03.05-.03,1.06-.16,1.9-.98,2.08-2.03,0-.02,0-.05.01-.07,0-.04.01-.09.02-.11.42-.65.49-1.38.22-2.16-.09-.25-.2-.51-.29-.73-.08-.18-.15-.35-.22-.52-.07-.2-.16-.42-.18-.61-.05-.55-.13-1.28-.33-2.01-.42-1.51-1.15-2.69-2.23-3.62-.99-.84-2.04-1.21-3.46-1.42.19.3-.06.44.07.78.06.14.07.27.07.39,2.44.83,4.28,3.05,4.59,5.71,0,.08.02.16.02.24.02.22.04.45.11.67.08.26.2.5.32.73.05.1.09.19.14.29.04.09.08.18.12.26.09.18.18.39.26.59.07.18.14.58.05.83,0,0-.46-.58-.92-.63-.44-.04-.55.27-.55.27,0,0,.89.31,1.14.99-.03.36-.16.66-.39.89-.28.29-.57.38-.87.42-.34.05-.59-.11-.59-.11,0,0-.19,1.04-2.33,1.04h-.13c-.63,0-1.24.17-1.91.55-.89.73-2.88.66-2.88.66-.56-.09-1.08-.24-1.59-.44-.94-.37-1.76-.91-2.4-1.7-.34-.43-.6-.9-.78-1.41-.02-.05-.04-.09-.05-.14,0,.5.1.98.31,1.43.44.9,1.17,1.5,2.08,1.88.79.34,1.62.45,2.47.41l.18.2c.09.1.18.13.24.14.35.08.71.12,1.12.12.16,0,1.11-.22,2.09.27.09.04.21.1.35.1.07,0,.14-.01.21-.04l.11-.04c.23-.09.68-.27.68-.27,2.79-.61,3.19,1.49,3.19,1.49-.07-.03-.16-.06-.25-.06-.11,0-.21.04-.31.11l-.32.24.48.3c.1.06.19.12.27.17.11.07.15.18.15.34-.01.43-.51.87-.99.87-.05,0-.11,0-.16-.02-.19-.04-.3-.11-.36-.22-.06-.09-.18-.19-.33-.19h-.13c-.15.01-.31.02-.46.05h-.04c-.21.06-.41.1-.6.1-.07,0-.13,0-.2-.02-.09-.02-.18-.04-.27-.06l-.42-.1-.07.25c-.11.37-.28.71-.53,1.03-.54.69-1.26,1.17-2.21,1.48-.7.23-1.46.35-2.25.35-.42,0-.86-.03-1.31-.1-1.7-.24-2.89-1.16-3.52-2.74-.11-.26-.18-.55-.25-.83-.04-.16-.08-.3-.12-.45-.22-.76-.51-1.44-.87-2.07-.66-1.16-1.49-1.98-2.52-2.52-.83-.43-1.73-.66-2.69-.66-.4,0-.81.04-1.23.11-.17.03-.35.05-.52.11-.91.35-1.02.51-1.02.51l.44.03c.07,0,.23.02.39.05.18.02.36.05.43.05.31.01.6.03.88.06,1.2.12,2.29.49,3.25,1.09,1.28.81,2.07,1.82,2.4,3.07.21.77.5,1.54.87,2.28.22.44.5.96.92,1.4.58.63,1.33,1.05,2.35,1.34.27.08.54.16.77.23.03,0,.05.02.08.1.13.33.16.65.09.98-.1.51-.35.99-.75,1.46-.32.37-.74.66-1.15.93-.22.15-.44.31-.63.48-.24.21-.37.48-.35.78.01.24.03.65.44.65.09,0,.19-.02.35-.07.07-.02.14-.05.2-.08l.36-.16c.2-.09.4-.17.6-.26.4-.17.79-.25,1.17-.25.2,0,.39.02.58.07.55.13,1.05.43,1.16.86,0,0,.38,1.66-2.37,1.64-.22,0-.45-.05-.69-.11l-.13-.03c-.26-.06-.5-.09-.72-.09-.21,0-.4.04-.59.07h-.09c-.55.11-1.14.16-1.91.16-.34,0-16.38-.01-16.38-.01-1.45,0-2.82-.2-4.08-.53-5.24-1.37-8.97-4.31-11.41-8.78-.88-1.63-1.49-3.39-1.8-5.26.02.03,1.75,2.65,1.75,2.65,0,0-1.91-3.46-1.99-5.52-.03-.72.04-1.47.13-2.2.06.19.11.37.18.55.89,2.54,2.25,4.92,4.14,7.28.05.06.08.12.1.18.29.9.69,1.75,1.18,2.55-1.11-.23-2.69-1.78-2.69-1.78l.21.4c1.24,2.38,4.14,3.83,4.71,4.04,1.67,1.48,3.69,2.56,6.02,3.19.13.04.26.07.4.1l1.14.27-.73-.7c-.08-.08-.17-.11-.23-.13-1.65-.59-3.15-1.42-4.48-2.46-1.73-1.36-2.98-3.03-3.7-4.96-.09-.23-.08-.35-.04-.46.04-.11.07-.21.09-.32.02-.07.03-.13.05-.18.39-1.26.97-2.24,1.78-3.01.76-.71,1.73-1.24,2.97-1.6,1.18-.35,2.42-.51,3.63-.66l.52-.07c.68-.09,1.37-.19,2.03-.3l.35-.05c-.45.58-.84,1.2-1.16,1.85-.08.03-2.53.58-2.82.64-3.88.83-4.14,3.29-4.14,3.29,0,0,1.68-2.22,5.71-2.34h.14c.16,0,.32,0,.49.01-1.12,5.84,1.05,7.87,1.03,7.8-.49-1.87-.61-3.57-.38-5.19.31-2.11,1.24-3.93,2.77-5.41,1.04-1.01,2.35-1.85,4-2.58,1.44-.64,2.95-1.03,4.37-1.37l.27-.06c1.04-.25,2.1-.51,3.13-.81,1.6-.47,2.98-1.24,4.13-2.29.17-.16.37-.34.54-.56.81-1.05,1.72-1.84,2.78-2.43.15.67.53,1.3,1.15,1.68-.66-1.13-.99-2.27-.68-3.33.3-.95.79-1.42,1.31-2.34.62-1.2.69-2.9.7-2.9.11-.12.19-.23.31-.35.14-.14.28-.29.42-.43.42-.43.73-.98.86-1.63.13-.68-.17-1.04-.17-1.04.11-.42.27-.82.3-1.24.06-.78-.18-1.49-.29-1.49-.05,0-1,1.08-1.51,1.28-.12-.74-.31-1.49-.61-2.42-.22-.7-.28-1.28-.19-1.82.07-.4.55-.96.55-.96l.23-.27-.31-.16c-.05-.03-.45-.12-.59-.12-.39,0-.71.14-.95.41-.05-.32-.05-.64-.02-.97.05-.56.28-1.08.46-1.47.06-.12.13-.28.18-.44.06-.21.03-.4-.08-.55-.11-.15-.29-.23-.5-.23-.18,0-.35.03-.49.09-.64.24-1.14.65-1.49,1.22-.12-.13-.22-.28-.29-.46-.09-.23-.2-.45-.3-.65-.09-.17-.21-.25-.35-.25-.1,0-.18.04-.24.1-.18-.49-.49-.91-.9-1.23-.03-.02-.05-.04-.09-.06l-.56-.34s.11.72.11.72c-1.43-.93-3-1.6-4.69-2-.13-.03-.27-.06-.41-.09-.41-.08-1.59-.54-1.8-.61-.05-.02.04.34.04.34-.17,0-1.14-.2-1.17-.2l-.08.29s-1.29-.59-1.55-.59c0,0-.26.48-.3.48-1.17.07-2.3.25-3.34.5-1.83.46-3.37,1.14-4.68,2.08-1.15.83-1.98,1.75-2.58,2.78-.3.52-.75,1.34-.83,1.87.33-.12,1.03-.14,1.15-.14.59,0,1.47.34,2.11.81.69.5,1.18,1.13,1.45,1.86.39,1.05.21,2.03-.53,2.91-.23-.78-.55-1.36-.98-1.84-.3-.34-.66-.59-1.06-.75-.06-.03-.13-.04-.19-.05h-.1s.51,1.14.57,1.62c.13,1.04,0,2.49-1.01,2.78-.3.08-.59.21-.89.31-.54.19-1.09.38-1.64.58-1.53.57-2.9,1.21-4.17,1.96.39-.59.03-1.21-.08-1.33-.04.62-1.98,2.7-2.35,3.02-1.37,1.16-2.41,2.24-3.27,3.38-.66.89-1.25,1.82-1.74,2.78-.05-.51-.06-1.02-.04-1.54,0-.23-1.28,1.96-1.06,4.17,0,0,0,.03-.02.1-.41,1.3-.68,2.6-.79,3.86-.41,4.61.74,8.87,3.41,12.56,2.85,3.93,6.71,6.57,11.48,7.68,1.27.29,2.67.57,4.68.57h8.41l11.48-.02s1.35,0,2.12-.42c.65-.36,1.03-.71,1.3-1.33.41-.96.06-2.19-.82-2.83-.52-.38-1.14-.57-1.9-.57-.07,0-.14,0-.21,0-.07,0-.15,0-.22.01.59-.6.99-1.3,1.19-2.1.09-.36.12-.73.09-1.11v-.02s.18,0,.18,0c.4-.02.81-.04,1.21-.07-.13.17-.23.37-.31.59-.2.62-.28,1.14-.26,1.63.04.86.36,1.66.97,2.39.47.56,1.04,1.01,1.75,1.37-.07.3-.05.61.05.91.08.23.23.41.45.54.24.13.5.22.78.22.1,0,.2.02.31,0,.43.96,1.49.83,1.49.83.87-.2,1.17-1.02,1.08-1.69-.01-.08-.03-.16-.04-.24l.05-.02c.23-.06.47-.12.71-.2,1.61-.56,2.64-1.66,3.08-3.26.2-.72.05-1.34-.42-1.84Zm-11.99-25.29c-2.46,6.84-8.2,7.77-8.78,7.77,0,0-1.87.14-2.7-.06.03.12.43.58,1.37.71-.36.08-.74.15-1.1.2-.98.14-2.13.33-3.28.68-.05.01-.1.02-.16.02h-.03c-1.07-.07-2.14-.15-3.2-.23-.65-.05-1.24-.07-1.82-.07-.69,0-1.33.03-1.95.1-1.41.15-2.81.49-4.15,1.01-3.86,1.65-5.92,3.85-5.92,3.85,0,0,3.95-2.66,6.05-3.2,4.58-1.17,7.49-.2,8.01-.07-.32.19-.63.39-.93.61-.24.18-.51.31-.82.43-.23.09-.47.17-.73.25-1.06.33-2.17.53-3.25.72,0,0-.44.08-.64.11-1.05.19-2.16.39-3.26.63-1.09.24-2.03.59-2.89,1.08-1.57.89-2.5,2.24-2.77,4-.46-.87-.79-1.71-.82-2.58-.18-4.52,2.98-6.2,3.91-6.81.94-.62,2.06-1.14,3.5-1.62,1.99-.67,4.05-1.11,5.99-1.48.73-.14,1.47-.28,2.2-.42l.18-.03c.86-.16,1.73-.33,2.59-.49,1.51-.29,2.72-.68,3.81-1.21,1.72-.85,3.02-1.75,4.1-2.84.86-.03,1.64-.11,2.38-.25,1.97-.37,3.84-1.12,5.57-2.22-.13.5-.3.96-.46,1.41Zm1.89-6.29c.24-.12.51-.19.78-.27,0,0,.16-.05.23-.07-.01.07-.03.14-.05.21-.41,1.24-1.11,2.35-2.11,3.29-.64.6-1.42,1.1-2.54,1.61-.94.43-1.96.78-3.16,1.09.34-.1.69-.22,1.03-.36,1.76-.73,3.37-1.84,4.92-3.38.02-.02.04-.05.06-.07l.48-.66-.77.22c-.09.03-.15.07-.2.1-1.31.91-2.51,1.64-3.66,2.24-.72.37-1.64.79-2.56,1.02-.02,0-.11,0-.11.01h0c0-.35.17-.69.43-1.01.19-.24.55-.54.81-.74.8-.61,1.67-1.1,2.41-1.48-.27.35-.55.62-.93.81,0,0,.44.47,1.02.26.66-.24.96-.46,1.39-.82.24-.2.48-.4.71-.61.28-.24.62-.54.95-.81.24-.19.56-.43.89-.59Zm-3.17-7.15c.22-.84.48-1.44.83-1.94.16-.23.33-.4.51-.52,0,.02-.04.09-.04.09-.51,1.24-.76,2.56-.76,4.03,0,.22-.03.43-.05.63-.14,1.16-.79,2.11-1.19,2.53.1-1.84.32-3.38.7-4.81Zm-22.9,10.19c.44-.42.81-.77,1.09-1.09.47-.55.96-1.85.97-1.88,1.97,1.73-.74,4.34-1.65,5.19-.01.01,1.86.43,3.35-1.34,5.17-6.14-.6-10.58-2.6-11.06-.14-.03-.84-.25-1.24-.14,3.58-5.2,9.25-3.9,9.25-3.9,0,0-.44-.84-1.85-.86-.05,0-.09,0-.14,0-.07,0-.15,0-.22,0,.04-.01.08-.03.12-.04.6-.18,1.95-.76,3.83-.04.36.14,1.11.58,1.11.58l-.1-.36-.07-.16-.02-.05c-.03-.08-.05-.14-.08-.2s-.06-.12-.1-.18c.05.02.11.04.16.07.35.17.7.21,1,.23.47.03.88.07,1.25.13.54.08.94.36,1.2.83.08.14.17.28.23.39.29.51.91.56.91.56l-.19-.45-.19-.64c.09.07.2.15.27.26.34.53,1.14.59,1.14.59l-.14-.84c.05.03,2.69,1,2.83,2.06,0,.06,0,.82,0,.82,0,0,.53-.52.57-1.23.12.1,1.45,1.02,1.16,2.27-.24.81-.27,1.7-.28,2.86,0,.28,0,.55,0,.82v.12c0,.53-.02,1.13-.02,1.72-.02,1.63-.38,2.22-.38,2.22l.09-.03c.09-.03.17-.06.24-.1.34-.17.64-.43.93-.78.57-.69.93-1.46,1.23-2.2.21-.53.44-1.09.68-1.65.87,2.14-1.17,3.97-1.17,3.97,0,0,1.58-.85,2.01-1.7,0,0,.38,1.05-1.32,1.79-.8.36-1.63.7-2.45,1l-.48.18c-.2.07-.4.18-.61.31-.11.07-.21.15-.32.25.13-.54.35-1,.6-1.43.4-.68.58-1.54.68-1.99l.09-.39s-.5.62-.84.81c.01-.07.03-.14.05-.2.4-1.17.31-2.1.31-2.1,0,0-.61.44-.63.46.21-1.33-.04-2.06-.04-2.06,0,0-.48,1.39-.88,1.67-.19-.48-.51-.93-.68-1.1-.54-.53-.86-1.86-.86-1.86,0,0-.55.34-.56.36.04-.1.06-.46-.1-1.17,0,0-.53.55-.54.6,0,0-.4-1.26-.5-1.26-.03,0-.19.54-.23.64,0-.06-.42-1.08-.42-.84,0,.2-.23.65-.61.46-1.47-.74-3.06-1.26-4.73-1.39-4.13-.32-5.13.81-5.33,1.07,0,0,1.92-.49,4.44-.11,1.63.24,3.2.76,4.65,1.55,1.03.56,1.87,1.19,2.55,1.9-.17.85-5.34.58-5.34.58,0,0,1.3,1.15,4.99.57.44-.07.79.11,1.11.35.12.1.18.26.15.35-.02.07-.15.08-.23.08-.04,0-.09,0-.14-.01-.11-.02-.17-.02-.21-.02-.18,0,3.93,2.93.36,7.94-.74,1.04-2.93,2.25-4.09,2.65,3.74-4.35.2-7.33-.73-8-.81-.6-1.79-1.05-3.07-1.43-.15-.05-.31-.09-.47-.13l-1.17-.32.67.73s.05.06.11.09c.04.02.08.03.12.05.82.32,1.49.68,2.05,1.09.94.7,5.44,3.64.22,8.84-.18.18-.66.44-.74.47,1.4-2.37.22-4.19.22-4.19,0,0-.65,2.37-1.02,3.03-.45.78-1.04,1.42-1.66,1.64.98-1.91,0-2.99,0-2.99.97,4.32-9.9,5.34-12.46,7.26-.06-.26-.12-.61-.12-.89-.05-4.81,3.12-7.83,5.02-9.64Zm-7.52,1.42c-.17.68-.31,1.33-.43,2.68-.01.18-.05.91-.05.91,0,0,.9-3.94,5.04-4.38-.84,1.26-1.52,2.59-2.03,3.95-.46,1.22-.75,2.4-.87,3.59-.09.88-.1,1.73,0,2.55-.05.04-.1.07-.15.1-.92-.52-1.21-2.05-1.14-3.26.06-.98.67-3.23.57-3.04-.59,1.23-1.62,2.97-1.68,4.63-.04,1.17.31,2.3,1,3.33-.1-.02-.22-.06-.37-.14h-.02s-.05-.06-.05-.06c-.07-.07-.15-.14-.2-.21-3.81-5.09.12-10.16.39-10.65Zm-2.52,4.01c-.05.37-.09.73-.12,1.09-.1,1.2-.05,2.27.14,3.26.17.86.45,1.52.87,2.08.29.38.61.67.98.87-.43.51-.81,1.06-1.11,1.64-.16-.22-.27-.42-.35-.63l-.3-.81s-1.24,2.15-.51,4.73c0,0-6.11-8.03.39-12.22Zm-.55,13.28s.04.08.04.13c.03.59.06,1.08.1,1.58,0,0,0,0,0,0-1.86-2.27-3.04-4.85-3.51-7.7.43,2.04,2.25,4.75,3.37,5.99Zm44.84,13.65c-.64.35-1.59.44-2.41.44-.2,0-.43-.01-.66-.04-.04,0-.09,0-.13,0-.18,0-.39,0-.5.13-.15.2-.24.67.76.66.05,0,.56-.07.77.3.17.3.06.8-.07.94-.5.55-1.39-.27-1.39-.27-.19,0-.68.15-1.19-.36-.51-.52.1-1.63-.11-1.72-.2-.08-.25-.1-.44-.2-1.09-.56-2.54-1.82-1.84-3.55.57,1.43,2.62,2.15,3.59,2.31,2.75.45,4.73-.31,4.77-.33.04.58-.71,1.44-1.16,1.69Zm.92-5.46c-.05.49-.15.96-.27,1.49-.15.68-.57,1.13-1.23,1.33-.28.08-.59.12-.98.12-.65,0-1.31-.09-2.01-.26-.7-.17-1.16-.35-1.53-.6-.46-.3-.73-.66-.84-1.12-.08-.34-.04-.68,0-.95,0-.01,0-.03,0-.03,0,0,.01,0,.04-.01,1.28-.51,2.17-1.3,2.71-2.41.03-.07.06-.08.11-.08.16-.02.3-.03.43-.03.37,0,.69.07.96.22.19.1.39.15.59.15s.4-.05.61-.15c.15-.07.29-.16.41-.25.08-.06.15-.12.22-.18.62.8.88,1.72.78,2.76Z"/><path class="cls-10" d="m517.79,190.06c.57-.36.63-.93.63-.93.21-.9-.65-2.37-.93-3.13-.22-.62-.43-1.67-.26-2.31.69.21,1.54.84,2.04,1.38.54.59.98,1.44.91,2.23-.03.32-.18.73-.41,1.13-.1.18-.05.55.28.55.25,0,.36-.04.55-.29.65-.87.75-1.66-.12-2.82-.62-.83-1.29-1.42-2.12-2.04-.23-.17-.65-.37-.94-.43-.32-.07-.51.09-.62.4-.04.11-.06.23-.08.35-.18,1.04.05,1.98.56,2.92.68,1.24.67,1.79.06,3.1,0,0,.13.09.45-.11Z"/></g><g id="Spark-2"><path class="cls-11" d="m938.72,190.77c-.08-.17-.11-.25-.16-.33-1.13-2.15-2.25-4.3-3.4-6.44-.11-.22-.1-.34.06-.53,1.8-2.1,3.57-4.21,5.37-6.3.06-.07.12-.15.14-.28-.52.14-1.04.27-1.57.41-2.17.57-4.35,1.15-6.5,1.73-.2.05-.29,0-.39-.17-1.23-2.06-2.47-4.12-3.71-6.15-.06-.11-.13-.21-.27-.3-.1.55-.2,1.09-.3,1.64-.35,1.94-.69,3.86-1.03,5.8-.04.21-.09.42-.11.63-.02.2-.12.27-.3.33-2.56.8-5.11,1.61-7.66,2.42-.11.04-.22.08-.34.19,2.09.83,4.18,1.66,6.3,2.5-.08.06-.13.11-.18.15-1.31.84-2.61,1.69-3.92,2.54-.16.1-.28.12-.46.04-1.56-.7-3.13-1.39-4.7-2.09-.7-.31-1.33-.73-1.82-1.33-1.11-1.36-.89-2.9.59-3.86.48-.31,1.04-.54,1.58-.72,2.5-.82,5.02-1.6,7.52-2.39.21-.07.31-.16.35-.39.34-1.94.68-3.89,1.03-5.8.19-1.04.29-2.1.79-3.05.19-.37.42-.72.7-1.03,1-1.11,2.39-1.15,3.45-.1.36.36.66.77.93,1.21,1.16,1.9,2.3,3.8,3.45,5.72.13.23.26.27.5.21,2.8-.75,5.6-1.49,8.42-2.23.58-.15,1.16-.21,1.76-.1,1.29.24,1.86,1.22,1.42,2.48-.2.57-.54,1.05-.93,1.5-1.96,2.3-3.92,4.61-5.86,6.91-.16.19-.16.32-.05.53,1.17,2.21,2.33,4.41,3.51,6.65.28.53.49,1.08.5,1.69.01,1.38-1,2.51-2.37,2.72-.77.11-1.48-.05-2.21-.27-1.76-.54-3.51-1.08-5.28-1.61-.16-.05-.23-.11-.26-.29-.2-1.24-.42-2.48-.64-3.71,0-.03,0-.07.01-.15,2.01.55,4,1.1,6.07,1.67"/><path class="cls-11" d="m935.24,208.91c-1.58,0-3.16-.01-4.76,0-.21,0-.33-.06-.44-.24-1.87-2.86-3.77-5.72-5.63-8.56-.06-.09-.12-.18-.23-.33-.4,3.08-.8,6.09-1.2,9.11h-4.15c.05-.4.09-.8.14-1.18.4-3.11.81-6.18,1.22-9.29.39-2.96.77-5.92,1.17-8.88.01-.09.07-.2.14-.25,1.43-.93,2.86-1.85,4.3-2.78.02-.01.05-.01.12-.04-.43,3.31-.86,6.59-1.29,9.87.02.01.03.02.05.04,2.25-2.49,4.5-4.99,6.79-7.52.07.38.12.71.18,1.04.16.94.32,1.88.49,2.82.04.19-.02.3-.14.44-1.45,1.52-2.9,3.05-4.35,4.59-.06.07-.12.14-.2.22.05.07.09.15.13.21,2.5,3.51,4.99,7.02,7.49,10.53.05.06.11.11.17.17v.06"/><path class="cls-11" d="m886.19,199.63c-.06-.32-.11-.8-.25-1.24-.7-2.14-2.89-3.31-5.17-2.79-2.5.58-4.3,2.55-4.53,5.11-.19,1.89.82,3.71,2.71,4.38,1.52.55,2.99.32,4.35-.5,1.8-1.08,2.78-2.68,2.9-4.96h-.02Zm-10.97,7.98c-.12.92-.24,1.79-.35,2.66-.15,1.16-.3,2.31-.45,3.48-.02.13-.06.2-.2.19-1.14,0-2.28,0-3.42,0-.03,0-.05-.01-.11-.03.07-.55.14-1.09.21-1.64.25-1.92.5-3.83.76-5.75.29-2.19.52-4.38.9-6.56.66-3.86,3.95-7.17,7.78-8.01,2.23-.48,4.35-.26,6.3,1,1.94,1.25,3.05,3.08,3.31,5.34.36,3.22-.83,5.89-3.11,8.13-1.5,1.45-3.31,2.38-5.37,2.69-2.14.32-4.15-.03-5.95-1.29-.07-.05-.14-.09-.25-.16"/><path class="cls-11" d="m873.3,189.32c-1.28.95-2.51,1.87-3.74,2.79-.2-.31-.38-.63-.59-.92-.54-.75-1.2-1.31-2.17-1.38-.81-.06-1.5.21-2.05.8-.49.53-.55,1.29-.1,1.89.5.66,1.06,1.29,1.62,1.9.94,1.02,1.92,1.99,2.84,3.02.84.93,1.52,1.97,1.73,3.25.25,1.51-.05,2.93-.77,4.27-1.32,2.45-3.4,3.89-6.15,4.32-1.21.2-2.42.16-3.6-.19-1.57-.46-2.66-1.49-3.37-2.93-.25-.51-.44-1.06-.66-1.61,1.37-.73,2.71-1.45,4.06-2.17.05.11.08.21.12.3.23.46.42.95.71,1.38.85,1.26,2.22,1.65,3.6,1.02.36-.16.7-.39,1-.65.89-.8,1.06-1.9.4-2.9-.38-.57-.86-1.09-1.32-1.6-1.11-1.23-2.26-2.42-3.34-3.69-.75-.86-1.25-1.87-1.42-3.02-.18-1.27.08-2.46.73-3.51,1.63-2.64,4-4,7.14-3.92,1.79.06,3.22.9,4.32,2.3.33.41.64.84.97,1.29"/><path class="cls-11" d="m903.6,203.4c-.21,1.59-.41,3.11-.61,4.61-.01.08-.07.18-.14.21-3.11,1.43-7.17,1.23-9.69-1.65-1.36-1.55-1.94-3.4-1.85-5.43.2-4.73,4.12-8.88,8.82-9.46,2.74-.34,5.14.4,6.99,2.54,1.27,1.45,1.85,3.19,1.76,5.11-.06,1.27-.26,2.52-.41,3.77-.22,1.78-.47,3.57-.7,5.34,0,.06-.02.13-.04.21h-3.69c.05-.41.09-.81.15-1.21.27-2.06.56-4.12.8-6.18.15-1.28.05-2.56-.53-3.74-.62-1.26-1.67-1.93-3.05-2.08-2.85-.3-5.57,1.68-6.15,4.47-.4,1.85.23,3.63,1.71,4.61,1.44.95,2.96.96,4.53.34.8-.31,1.47-.81,2.11-1.48"/><path class="cls-11" d="m919.27,192.17c-.17,1.28-.34,2.55-.5,3.83-.78,0-1.55,0-2.32,0-.62,0-1.19.41-1.38.99-.07.23-.1.47-.13.71-.39,2.96-.77,5.89-1.16,8.82-.1.74-.19,1.49-.29,2.24h-3.86c.07-.57.14-1.11.21-1.66.25-1.91.5-3.83.75-5.72.22-1.65.42-3.31.67-4.96.35-2.21,2.54-4.18,4.76-4.27,1.06-.05,2.13,0,3.22,0"/><path class="cls-13" d="m939.88,208.91v-1.63h0l-.64,1.63h-.2l-.64-1.63h-.01v1.63h-.32v-1.95h.5l.58,1.48.57-1.48h.49v1.95h-.32Zm-2.83-1.69v1.69h-.32v-1.69h-.61v-.26h1.54v.26h-.61"/><path class="cls-10" d="m878.44,186.59h.95l-.23-1.45-.73,1.45Zm1.11.93h-1.59l-.5.99h-1.13l2.48-4.64h1.09l.84,4.64h-1.04l-.15-.99"/><path class="cls-10" d="m885.23,184.82h-.57l-.19,1.07h.57c.34,0,.61-.22.61-.65,0-.28-.17-.42-.42-.42h0Zm-1.37-.93h1.49c.78,0,1.32.46,1.32,1.26,0,1-.71,1.68-1.72,1.68h-.64l-.3,1.7h-.97l.82-4.64"/><path class="cls-10" d="m889.96,186.59h.95l-.23-1.45-.73,1.45Zm1.1.93h-1.59l-.5.99h-1.13l2.48-4.64h1.09l.84,4.64h-1.04l-.15-.99"/><path class="cls-10" d="m897.22,188.36c-.33.15-.69.24-1.05.24-1.23,0-2-.92-2-2.07,0-1.47,1.24-2.71,2.71-2.71.37,0,.7.09.98.24l-.14,1.11c-.2-.23-.53-.38-.94-.38-.84,0-1.6.76-1.6,1.65,0,.67.42,1.2,1.09,1.2.41,0,.8-.16,1.07-.37l-.13,1.1"/><path class="cls-10" d="m903.31,186.65h-2.02l-.33,1.87h-.97l.82-4.64h.97l-.33,1.83h2.02l.33-1.83h.97l-.82,4.64h-.97l.33-1.87"/><path class="cls-10" d="m906.8,188.51l.82-4.64h2.57l-.16.93h-1.6l-.16.9h1.47l-.16.93h-1.47l-.16.93h1.6l-.16.93h-2.57"/></g><path id="Lambda" class="cls-9" d="m407.99,145.95c-.16.21-.29.37-.42.55-2.06,2.75-4.13,5.5-6.19,8.25-1.92,2.56-3.84,5.12-5.76,7.67-.06.08-.16.13-.27.14-2.71-.02-5.43-.05-8.14-.08-.03,0-.06,0-.12-.02.02-.05.05-.1.08-.15,1.89-2.66,3.79-5.32,5.68-7.97,1.68-2.36,3.36-4.71,5.04-7.06,1.86-2.62,3.73-5.23,5.59-7.85.27-.39.56-.77.82-1.16.07-.11.09-.23.06-.35-.5-1.45-1.01-2.89-1.52-4.34-.22-.62-.45-1.23-.65-1.86-.07-.2-.18-.26-.4-.26-1.71,0-3.4,0-5.1,0-.32,0-.32,0-.32-.29,0-1.89,0-3.79,0-5.68,0-.21.08-.26.29-.26,3.42,0,6.85,0,10.27,0,.16-.02.32.08.36.22,1.81,4.11,3.61,8.23,5.42,12.34,2.11,4.79,4.21,9.59,6.32,14.38.65,1.49,1.31,2.98,1.96,4.47.08.18.16.22.36.16,1.79-.5,3.59-.99,5.39-1.49.23-.06.31-.02.38.18.61,1.74,1.24,3.48,1.86,5.22.02.06.04.12.06.2-.13.04-.25.09-.37.12-4.08,1.17-8.16,2.34-12.23,3.51-.19.06-.25,0-.32-.15-1.24-2.86-2.49-5.71-3.74-8.57-1.22-2.8-2.45-5.59-3.67-8.39-.18-.42-.36-.84-.55-1.26-.03-.07-.07-.13-.13-.25h0Z"/><g id="dag-2"><path id="path3506-2" class="cls-3" d="m739.99,90.56l-2.49,14.32"/><path id="path3504-2" class="cls-3" d="m714.75,124.93l12.09-6.84"/><path id="path3514-2" class="cls-3" d="m713.51,100.14l17.08,9.4"/><path id="path3510-2" class="cls-3" d="m732.39,83.96l-21.27,7.71"/><path id="path3252-2" class="cls-6" d="m747.97,73.96c3.05,3.03,3.07,7.97.03,11.02s-7.97,3.07-11.02.03c0,0,0,0-.01-.01-3.05-3.03-3.07-7.97-.03-11.02,3.03-3.05,7.97-3.07,11.02-.03,0,0,0,0,.01.01Z"/><path id="path3262-2" class="cls-6" d="m709.01,88.66c3.05,3.03,3.07,7.97.03,11.02s-7.97,3.07-11.02.03c0,0,0,0-.01-.01-3.05-3.03-3.07-7.97-.03-11.02,3.03-3.05,7.97-3.07,11.02-.03,0,0,0,0,.01.01Z"/><path id="path3169-2" class="cls-6" d="m713.66,122.21c3.05,3.03,3.07,7.97.03,11.02s-7.97,3.07-11.02.03c0,0,0,0-.01-.01-3.05-3.03-3.07-7.97-.03-11.02s7.97-3.07,11.02-.03c0,0,0,0,.01.01Z"/><path id="path4549-2" class="cls-5" d="m725.82,119.81l2.55-2.75-3.72.44c.85.44,1.33,1.37,1.17,2.31Z"/><path id="path3242-2" class="cls-6" d="m742.37,107.27c3.05,3.03,3.07,7.97.03,11.02-3.03,3.05-7.97,3.07-11.02.03,0,0,0,0-.01-.01-3.05-3.03-3.07-7.97-.03-11.02s7.97-3.07,11.02-.03c0,0,0,0,.01.01Z"/><path id="path3490-2" class="cls-5" d="m741.02,92.25l-.85-3.65-1.72,3.33c.84-.46,1.88-.33,2.57.32Z"/><path id="path3494-2" class="cls-5" d="m731.27,85.68l2.77-2.52-3.75.13c.81.51,1.21,1.48.97,2.4Z"/><path id="path3496-2" class="cls-5" d="m715.27,99.64l-3.72-.45,2.55,2.75c-.14-.95.33-1.88,1.18-2.31Z"/><path id="path3500-2" class="cls-5" d="m706.63,106.34l-1.67-3.36-.91,3.64c.71-.64,1.75-.76,2.57-.28Z"/><path id="path3502-2" class="cls-3" d="m705.48,106.33l1.24,13.53"/><path id="path3508-2" class="cls-3" d="m735.24,87.74l-23.45,32.81"/><path id="path3492-2" class="cls-5" d="m735.05,89.89l1.2-3.55-3.22,1.93c.96.05,1.77.71,2.02,1.62Z"/></g><g id="db-group-2"><g id="db-5"><path class="cls-10" d="m485.22,303.94c5.1,0,8.53,1.51,9.72,2.42v.03s0,21.75,0,21.75c-.79.74-4.43,2.33-9.73,2.33s-8.54-1.51-9.73-2.43v-21.65h0s.01-.14.01-.14c.82-.75,4.45-2.32,9.71-2.32m0-2c-5.8,0-10.77,1.85-11.6,3.51-.11.22-.15.48-.12.72,0,.05-.01.09-.01.14v22.09c0,.32.12.62.32.83,1.3,1.3,5.4,3.24,11.4,3.24s10.77-1.85,11.6-3.51c.08-.17.13-.36.13-.55v-22.09s0-.1-.01-.14c.05-.36-.06-.74-.31-.99-1.3-1.3-5.4-3.24-11.4-3.24h0Z"/><path class="cls-9" d="m474.28,306.79c1.71,1.25,5.53,2.77,10.84,2.77s9.81-1.51,11.25-3.03"/><path class="cls-9" d="m474.28,314.23c1.71,1.25,5.53,2.77,10.84,2.77s9.81-1.51,11.25-3.03"/><path class="cls-9" d="m474.28,321.68c1.71,1.25,5.53,2.77,10.84,2.77s9.81-1.51,11.25-3.03"/></g><g id="db-6"><path class="cls-10" d="m529.05,303.94c5.1,0,8.53,1.51,9.72,2.42v.03s0,21.75,0,21.75c-.79.74-4.43,2.33-9.73,2.33s-8.54-1.51-9.73-2.43v-21.65h0s.01-.14.01-.14c.82-.75,4.45-2.32,9.71-2.32m0-2c-5.8,0-10.77,1.85-11.6,3.51-.11.22-.15.48-.12.72,0,.05-.01.09-.01.14v22.09c0,.32.12.62.32.83,1.3,1.3,5.4,3.24,11.4,3.24s10.77-1.85,11.6-3.51c.08-.17.13-.36.13-.55v-22.09s0-.1-.01-.14c.05-.36-.06-.74-.31-.99-1.3-1.3-5.4-3.24-11.4-3.24h0Z"/><path class="cls-9" d="m518.11,306.79c1.71,1.25,5.53,2.77,10.84,2.77s9.81-1.51,11.25-3.03"/><path class="cls-9" d="m518.11,314.23c1.71,1.25,5.53,2.77,10.84,2.77s9.81-1.51,11.25-3.03"/><path class="cls-9" d="m518.11,321.68c1.71,1.25,5.53,2.77,10.84,2.77s9.81-1.51,11.25-3.03"/></g><g id="db-7"><path class="cls-10" d="m507.81,268.13c5.1,0,8.53,1.51,9.72,2.42v.03s0,21.75,0,21.75c-.79.74-4.43,2.33-9.73,2.33s-8.54-1.51-9.73-2.43v-21.65h0s.01-.14.01-.14c.82-.75,4.45-2.32,9.71-2.32m0-2c-5.8,0-10.77,1.85-11.6,3.51-.11.22-.15.48-.12.72,0,.05-.01.09-.01.14v22.09c0,.32.12.62.32.83,1.3,1.3,5.4,3.24,11.4,3.24s10.77-1.85,11.6-3.51c.08-.17.13-.36.13-.55v-22.09s0-.1-.01-.14c.05-.36-.06-.74-.31-.99-1.3-1.3-5.4-3.24-11.4-3.24h0Z"/><path class="cls-9" d="m496.87,270.97c1.71,1.25,5.53,2.77,10.84,2.77s9.81-1.51,11.25-3.03"/><path class="cls-9" d="m496.87,278.42c1.71,1.25,5.53,2.77,10.84,2.77s9.81-1.51,11.25-3.03"/><path class="cls-9" d="m496.87,285.87c1.71,1.25,5.53,2.77,10.84,2.77s9.81-1.51,11.25-3.03"/></g><line class="cls-8" x1="523.71" y1="286.91" x2="530.11" y2="297.57"/><line class="cls-8" x1="500.48" y1="318.48" x2="514.35" y2="318.48"/><line class="cls-8" x1="486.02" y1="298.28" x2="492.42" y2="287.62"/></g><g id="db-group-3"><g id="db-8"><path class="cls-10" d="m695.22,303.94c5.1,0,8.53,1.51,9.72,2.42v.03s0,21.75,0,21.75c-.79.74-4.43,2.33-9.73,2.33s-8.54-1.51-9.73-2.43v-21.65h0s.01-.13.01-.13c.82-.75,4.45-2.32,9.71-2.32m0-2c-5.8,0-10.77,1.85-11.6,3.51-.11.22-.15.48-.12.72,0,.05-.01.09-.01.14v22.09c0,.32.12.62.32.83,1.3,1.3,5.4,3.24,11.4,3.24s10.77-1.85,11.6-3.51c.08-.17.13-.36.13-.55v-22.09s0-.1-.01-.14c.05-.36-.06-.74-.31-.99-1.3-1.3-5.4-3.24-11.4-3.24h0Z"/><path class="cls-9" d="m684.28,306.79c1.71,1.25,5.53,2.77,10.84,2.77s9.81-1.51,11.25-3.03"/><path class="cls-9" d="m684.28,314.23c1.71,1.25,5.53,2.77,10.84,2.77s9.81-1.51,11.25-3.03"/><path class="cls-9" d="m684.28,321.68c1.71,1.25,5.53,2.77,10.84,2.77s9.81-1.51,11.25-3.03"/></g><g id="db-9"><path class="cls-10" d="m739.05,303.94c5.1,0,8.53,1.51,9.72,2.42v.03s0,21.75,0,21.75c-.79.74-4.43,2.33-9.73,2.33s-8.54-1.51-9.73-2.43v-21.65h0s.01-.14.01-.14c.82-.75,4.45-2.32,9.71-2.32m0-2c-5.8,0-10.77,1.85-11.6,3.51-.11.22-.15.48-.12.72,0,.05-.01.09-.01.14v22.09c0,.32.12.62.32.83,1.3,1.3,5.4,3.24,11.4,3.24s10.77-1.85,11.6-3.51c.08-.17.13-.36.13-.55v-22.09s0-.1-.01-.14c.05-.36-.06-.74-.31-.99-1.3-1.3-5.4-3.24-11.4-3.24h0Z"/><path class="cls-9" d="m728.11,306.79c1.71,1.25,5.53,2.77,10.84,2.77s9.81-1.51,11.25-3.03"/><path class="cls-9" d="m728.11,314.23c1.71,1.25,5.53,2.77,10.84,2.77s9.81-1.51,11.25-3.03"/><path class="cls-9" d="m728.11,321.68c1.71,1.25,5.53,2.77,10.84,2.77s9.81-1.51,11.25-3.03"/></g><g id="db-10"><path class="cls-10" d="m717.81,268.13c5.1,0,8.53,1.51,9.72,2.42v.03s0,21.75,0,21.75c-.79.74-4.43,2.33-9.73,2.33s-8.54-1.51-9.73-2.43v-21.65h0s.01-.13.01-.13c.82-.75,4.45-2.32,9.71-2.32m0-2c-5.8,0-10.77,1.85-11.6,3.51-.11.22-.15.48-.12.72,0,.05-.01.09-.01.14v22.09c0,.32.12.62.32.83,1.3,1.3,5.4,3.24,11.4,3.24s10.77-1.85,11.6-3.51c.08-.17.13-.36.13-.55v-22.09s0-.1-.01-.14c.05-.36-.06-.74-.31-.99-1.3-1.3-5.4-3.24-11.4-3.24h0Z"/><path class="cls-9" d="m706.87,270.97c1.71,1.25,5.53,2.77,10.84,2.77s9.81-1.51,11.25-3.03"/><path class="cls-9" d="m706.87,278.42c1.71,1.25,5.53,2.77,10.84,2.77s9.81-1.51,11.25-3.03"/><path class="cls-9" d="m706.87,285.87c1.71,1.25,5.53,2.77,10.84,2.77s9.81-1.51,11.25-3.03"/></g><line class="cls-8" x1="733.71" y1="286.91" x2="740.11" y2="297.57"/><line class="cls-8" x1="710.48" y1="318.48" x2="724.35" y2="318.48"/><line class="cls-8" x1="696.02" y1="298.28" x2="702.42" y2="287.62"/></g><g id="db-group-4"><g id="db-11"><path class="cls-10" d="m879.22,304.94c5.1,0,8.53,1.51,9.72,2.42v.03s0,21.75,0,21.75c-.79.74-4.43,2.33-9.73,2.33s-8.54-1.51-9.73-2.43v-21.65h0s.01-.13.01-.13c.82-.75,4.45-2.32,9.71-2.32m0-2c-5.8,0-10.77,1.85-11.6,3.51-.11.22-.15.48-.12.72,0,.05-.01.09-.01.14v22.09c0,.32.12.62.32.83,1.3,1.3,5.4,3.24,11.4,3.24s10.77-1.85,11.6-3.51c.08-.17.13-.36.13-.55v-22.09s0-.1-.01-.14c.05-.36-.06-.74-.31-.99-1.3-1.3-5.4-3.24-11.4-3.24h0Z"/><path class="cls-9" d="m868.28,307.79c1.71,1.25,5.53,2.77,10.84,2.77s9.81-1.51,11.25-3.03"/><path class="cls-9" d="m868.28,315.23c1.71,1.25,5.53,2.77,10.84,2.77s9.81-1.51,11.25-3.03"/><path class="cls-9" d="m868.28,322.68c1.71,1.25,5.53,2.77,10.84,2.77s9.81-1.51,11.25-3.03"/></g><g id="db-12"><path class="cls-10" d="m923.05,304.94c5.1,0,8.53,1.51,9.72,2.42v.03s0,21.75,0,21.75c-.79.74-4.43,2.33-9.73,2.33s-8.54-1.51-9.73-2.43v-21.65h0s.01-.14.01-.14c.82-.75,4.45-2.32,9.71-2.32m0-2c-5.8,0-10.77,1.85-11.6,3.51-.11.22-.15.48-.12.72,0,.05-.01.09-.01.14v22.09c0,.32.12.62.32.83,1.3,1.3,5.4,3.24,11.4,3.24s10.77-1.85,11.6-3.51c.08-.17.13-.36.13-.55v-22.09s0-.1-.01-.14c.05-.36-.06-.74-.31-.99-1.3-1.3-5.4-3.24-11.4-3.24h0Z"/><path class="cls-9" d="m912.11,307.79c1.71,1.25,5.53,2.77,10.84,2.77s9.81-1.51,11.25-3.03"/><path class="cls-9" d="m912.11,315.23c1.71,1.25,5.53,2.77,10.84,2.77s9.81-1.51,11.25-3.03"/><path class="cls-9" d="m912.11,322.68c1.71,1.25,5.53,2.77,10.84,2.77s9.81-1.51,11.25-3.03"/></g><g id="db-13"><path class="cls-10" d="m901.81,269.13c5.1,0,8.53,1.51,9.72,2.42v.03s0,21.75,0,21.75c-.79.74-4.43,2.33-9.73,2.33s-8.54-1.51-9.73-2.43v-21.65h0s.01-.13.01-.13c.82-.75,4.45-2.32,9.71-2.32m0-2c-5.8,0-10.77,1.85-11.6,3.51-.11.22-.15.48-.12.72,0,.05-.01.09-.01.14v22.09c0,.32.12.62.32.83,1.3,1.3,5.4,3.24,11.4,3.24s10.77-1.85,11.6-3.51c.08-.17.13-.36.13-.55v-22.09s0-.1-.01-.14c.05-.36-.06-.74-.31-.99-1.3-1.3-5.4-3.24-11.4-3.24h0Z"/><path class="cls-9" d="m890.87,271.97c1.71,1.25,5.53,2.77,10.84,2.77s9.81-1.51,11.25-3.03"/><path class="cls-9" d="m890.87,279.42c1.71,1.25,5.53,2.77,10.84,2.77s9.81-1.51,11.25-3.03"/><path class="cls-9" d="m890.87,286.87c1.71,1.25,5.53,2.77,10.84,2.77s9.81-1.51,11.25-3.03"/></g><line class="cls-8" x1="917.71" y1="287.91" x2="924.11" y2="298.57"/><line class="cls-8" x1="894.48" y1="319.48" x2="908.35" y2="319.48"/><line class="cls-8" x1="880.02" y1="299.28" x2="886.42" y2="288.62"/></g><path id="Lambda-2" class="cls-9" d="m618,145.95c-.16.21-.29.37-.42.55-2.06,2.75-4.13,5.5-6.19,8.25-1.92,2.56-3.84,5.12-5.76,7.67-.06.08-.16.13-.27.14-2.71-.02-5.43-.05-8.14-.08-.03,0-.06,0-.12-.02.02-.05.05-.1.08-.15,1.89-2.66,3.79-5.32,5.68-7.97,1.68-2.36,3.36-4.71,5.04-7.06,1.86-2.62,3.73-5.23,5.59-7.85.27-.39.56-.77.82-1.16.07-.11.09-.23.06-.35-.5-1.45-1.01-2.89-1.52-4.34-.22-.62-.45-1.23-.65-1.86-.07-.2-.18-.26-.4-.26-1.71,0-3.4,0-5.1,0-.32,0-.32,0-.32-.29,0-1.89,0-3.79,0-5.68,0-.21.08-.26.29-.26,3.42,0,6.85,0,10.27,0,.16-.02.32.08.36.22,1.81,4.11,3.61,8.23,5.42,12.34,2.11,4.79,4.21,9.59,6.32,14.38.65,1.49,1.31,2.98,1.96,4.47.08.18.16.22.36.16,1.79-.5,3.59-.99,5.39-1.49.23-.06.31-.02.38.18.61,1.74,1.24,3.48,1.86,5.22.02.06.04.12.06.2-.13.04-.25.09-.37.12-4.08,1.17-8.16,2.34-12.23,3.51-.19.06-.25,0-.32-.15-1.24-2.86-2.49-5.71-3.74-8.57-1.22-2.8-2.45-5.59-3.67-8.39-.18-.42-.36-.84-.55-1.26-.03-.07-.07-.13-.13-.25h0Z"/><path id="Lambda-3" class="cls-9" d="m822,145.95c-.16.21-.29.37-.42.55-2.06,2.75-4.13,5.5-6.19,8.25-1.92,2.56-3.84,5.12-5.76,7.67-.06.08-.16.13-.27.14-2.71-.02-5.43-.05-8.14-.08-.03,0-.06,0-.12-.02.02-.05.05-.1.08-.15,1.89-2.66,3.79-5.32,5.68-7.97,1.68-2.36,3.36-4.71,5.04-7.06,1.86-2.62,3.73-5.23,5.59-7.85.27-.39.56-.77.82-1.16.07-.11.09-.23.06-.35-.5-1.45-1.01-2.89-1.52-4.34-.22-.62-.45-1.23-.65-1.86-.07-.2-.18-.26-.4-.26-1.71,0-3.4,0-5.1,0-.32,0-.32,0-.32-.29,0-1.89,0-3.79,0-5.68,0-.21.08-.26.29-.26,3.42,0,6.85,0,10.27,0,.16-.02.32.08.36.22,1.81,4.11,3.61,8.23,5.42,12.34,2.11,4.79,4.21,9.59,6.32,14.38.65,1.49,1.31,2.98,1.96,4.47.08.18.16.22.36.16,1.79-.5,3.59-.99,5.39-1.49.23-.06.31-.02.38.18.61,1.74,1.24,3.48,1.86,5.22.02.06.04.12.06.2-.13.04-.25.09-.37.12-4.08,1.17-8.16,2.34-12.23,3.51-.19.06-.25,0-.32-.15-1.24-2.86-2.49-5.71-3.74-8.57-1.22-2.8-2.45-5.59-3.67-8.39-.18-.42-.36-.84-.55-1.26-.03-.07-.07-.13-.13-.25h0Z"/><g id="terminal-2"><rect class="cls-7" x="383.82" y="38.48" width="48.62" height="46.89"/><polyline class="cls-7" points="399.78 56.04 392.58 66.27 399.78 75.93"/><polyline class="cls-7" points="416.52 56.04 423.71 66.27 416.52 75.93"/><line class="cls-7" x1="412.86" y1="57.52" x2="404.39" y2="74.45"/><line class="cls-7" x1="383.82" y1="45.67" x2="432.44" y2="45.67"/></g><g id="terminal-3"><rect class="cls-7" x="590.82" y="38.48" width="48.62" height="46.89"/><polyline class="cls-7" points="606.78 56.04 599.58 66.27 606.78 75.93"/><polyline class="cls-7" points="623.52 56.04 630.71 66.27 623.52 75.93"/><line class="cls-7" x1="619.86" y1="57.52" x2="611.39" y2="74.45"/><line class="cls-7" x1="590.82" y1="45.67" x2="639.44" y2="45.67"/></g><g id="terminal-4"><rect class="cls-7" x="790.82" y="38.48" width="48.62" height="46.89"/><polyline class="cls-7" points="806.78 56.04 799.58 66.27 806.78 75.93"/><polyline class="cls-7" points="823.52 56.04 830.71 66.27 823.52 75.93"/><line class="cls-7" x1="819.86" y1="57.52" x2="811.39" y2="74.45"/><line class="cls-7" x1="790.82" y1="45.67" x2="839.44" y2="45.67"/></g><g id="terminal-5"><rect class="cls-7" x="893.82" y="64.58" width="48.62" height="46.89"/><polyline class="cls-7" points="909.78 82.13 902.58 92.36 909.78 102.02"/><polyline class="cls-7" points="926.52 82.13 933.71 92.36 926.52 102.02"/><line class="cls-7" x1="922.86" y1="83.61" x2="914.39" y2="100.54"/><line class="cls-7" x1="893.82" y1="71.77" x2="942.44" y2="71.77"/></g></svg>